<?xml version="1.0" standalone="no"?>
<!DOCTYPE svg PUBLIC "-//W3C//DTD SVG 1.1//EN" "http://www.w3.org/Graphics/SVG/1.1/DTD/svg11.dtd" >
<svg xmlns="http://www.w3.org/2000/svg" xmlns:xlink="http://www.w3.org/1999/xlink" version="1.1">
<metadata>
Created by FontForge 20170910 at Fri Jul 24 12:42:02 2015
 By Jimmy Wärting
Copyright (c) 2014 by studio kmzero. All rights reserved.
</metadata>
<defs>
<font id="Anothershabby" horiz-adv-x="1252" >
  <font-face 
    font-family="Another shabby"
    font-weight="400"
    font-stretch="normal"
    units-per-em="2000"
    panose-1="2 0 5 3 0 0 0 2 0 3"
    ascent="1600"
    descent="-400"
    x-height="762"
    cap-height="1525"
    bbox="-980 -1093 3671 2150"
    underline-thickness="100"
    underline-position="-200"
    unicode-range="U+0020-FB01"
  />
<missing-glyph horiz-adv-x="1222" 
d="M844 250q-57 -48 -129 -77t-153 -29t-152 29t-128 77h562zM248 282q-50 57 -77 129t-27 153q0 77 24.5 143.5t69.5 122.5h556zM280 876q57 51 129 79.5t153 28.5t152.5 -29t125.5 -79h-560zM980 564q0 -77 -24.5 -144.5t-69.5 -123.5h-558l546 550q106 -131 106 -282z
M698 76q-66 -18 -136 -18q-108 0 -200.5 41t-160.5 110t-106.5 161t-38.5 194q0 108 41 201t110 161t161 107t194 39q109 0 202 -42t160.5 -112.5t105.5 -162t38 -191.5q0 -92 -29 -170.5t-79 -141.5t-117.5 -108t-144.5 -68zM684 1012q-54 18 -122 18q-101 0 -186 -38
t-146.5 -102t-96.5 -148.5t-35 -177.5q0 -94 35.5 -178.5t98 -149t147.5 -102.5t183 -38q96 0 181 36.5t148 100t100 148.5t37 183q0 85 -27.5 158.5t-74 131.5t-109.5 98t-133 60z" />
    <glyph glyph-name="fi" unicode="fi" horiz-adv-x="1373" 
d="M868 1522q-49 0 -98.5 -53t-101.5 -150.5t-106.5 -236t-112.5 -309.5q-18 -52 -33.5 -97.5t-27.5 -86.5t-19.5 -78.5t-8.5 -72.5q21 -4 51 -5.5t57 -1.5q41 0 78.5 23t72.5 60.5t67.5 85.5t63.5 97.5t61.5 97.5t60.5 85.5t60.5 60.5t62.5 23q16 0 34 -12
q27 -20 46.5 -42.5t33.5 -47.5t24 -53t19 -59q-17 -19 -38 -53.5t-42.5 -77.5t-42 -92t-36.5 -97t-25.5 -92.5t-9.5 -77.5q0 -27 6 -46q50 25 110 71.5t120 100.5t116 109.5t99 97.5q14 -21 29 -37t27 -27t19.5 -17.5t7.5 -8.5q-15 -33 -47.5 -84t-75 -109t-91 -116.5
t-95.5 -106t-89.5 -77t-72.5 -29.5q-19 0 -48.5 8.5t-63.5 22t-68.5 30t-64 33t-50.5 31.5t-28 24q-11 16 -16 36.5t-5 43.5q0 34 7.5 71t17 70.5t18.5 61.5t12 44q-38 -55 -75.5 -106.5t-81 -91t-97 -63t-123.5 -23.5h-15q-43 -122 -83 -234t-80 -218t-83 -206.5
t-91.5 -200.5t-105 -201t-124.5 -206q-6 0 -24.5 7.5t-44 19.5t-54 27t-53.5 28.5t-43.5 24.5t-23.5 16q26 66 65.5 150t86.5 182.5t98.5 211t102 237t97 258.5t82.5 276q0 3 -15 21t-33 41t-33.5 45.5t-15.5 35.5v5q0 12 3.5 22.5t12.5 22.5q26 36 63 65.5t71.5 53t61.5 43
t33 36.5q26 69 61 162.5t79.5 193t98.5 197t118.5 174t139 124t159.5 47.5q67 0 124.5 -23.5t104 -62.5t82 -90t59.5 -104.5t36 -106.5t12 -97q0 -51 -18.5 -82.5t-57.5 -31.5q-43 0 -81 12.5t-66.5 35t-45 53.5t-16.5 67q0 16 4.5 33t9.5 35t9.5 37.5t4.5 40.5q0 33 -6 64
t-23.5 55t-48.5 38.5t-81 14.5z" />
    <glyph glyph-name=".notdef" horiz-adv-x="1222" 
d="M844 250q-57 -48 -129 -77t-153 -29t-152 29t-128 77h562zM248 282q-50 57 -77 129t-27 153q0 77 24.5 143.5t69.5 122.5h556zM280 876q57 51 129 79.5t153 28.5t152.5 -29t125.5 -79h-560zM980 564q0 -77 -24.5 -144.5t-69.5 -123.5h-558l546 550q106 -131 106 -282z
M698 76q-66 -18 -136 -18q-108 0 -200.5 41t-160.5 110t-106.5 161t-38.5 194q0 108 41 201t110 161t161 107t194 39q109 0 202 -42t160.5 -112.5t105.5 -162t38 -191.5q0 -92 -29 -170.5t-79 -141.5t-117.5 -108t-144.5 -68zM684 1012q-54 18 -122 18q-101 0 -186 -38
t-146.5 -102t-96.5 -148.5t-35 -177.5q0 -94 35.5 -178.5t98 -149t147.5 -102.5t183 -38q96 0 181 36.5t148 100t100 148.5t37 183q0 85 -27.5 158.5t-74 131.5t-109.5 98t-133 60z" />
    <glyph glyph-name="a" unicode="a" horiz-adv-x="1295" 
d="M27 108q-47 91 -62.5 171.5t-5.5 151t42 131.5t80 113q73 78 147.5 123.5t151.5 53t159 -27.5t170 -117q11 12 27.5 21t35 10.5t38.5 -6.5t38 -29q32 -38 49 -61.5t18.5 -46t-13 -50t-44.5 -73.5q-55 -82 -90.5 -156.5t-52.5 -156.5q-8 -37 20.5 -34t79.5 33t117 80.5
t134 108t130.5 115.5t106.5 104q30 -31 43 -61.5t14 -58.5t-6.5 -51t-17.5 -38q-80 -120 -187.5 -214t-234.5 -160q-53 -28 -108.5 -42.5t-108.5 -14.5t-101.5 14t-88.5 43q-24 18 -33.5 37t-9.5 39t6 40t13 40q-71 -47 -147.5 -65t-142 -16.5t-111 16.5t-55.5 34zM499 669
q-18 -4 -43.5 -23.5t-53.5 -49t-55.5 -65.5t-50.5 -73.5t-39.5 -73.5t-21 -64.5t5 -47t37.5 -20.5q62 -5 117.5 26t102.5 82t85.5 114t65.5 121q5 11 -8 26.5t-35.5 28t-51.5 19t-55 0.5z" />
    <glyph glyph-name="i" unicode="i" horiz-adv-x="646" 
d="M312 1268q20 1 40 3q17 1 37 2t37 1q22 0 46 -16.5t44 -45.5t33 -68t13 -84q0 -33 -18 -55.5t-63 -22.5q-43 0 -81 12.5t-66.5 35t-45 53.5t-16.5 67q0 31 10.5 60t29.5 58zM679 593q14 -20 29 -36t27 -27t19.5 -18t7.5 -9q-15 -33 -47.5 -84t-75 -109t-91 -116.5
t-95.5 -106t-89.5 -77t-72.5 -29.5q-19 0 -48.5 8.5t-63.5 22t-68.5 30t-64 33t-50.5 31.5t-28 24q-18 26 -26 60t-8 74q0 52 15 121.5t40.5 142.5t58.5 144t68 127t70 90.5t64 34.5q16 0 34 -12q27 -20 46.5 -42.5t33.5 -47.5t24 -53t19 -59q-17 -19 -36.5 -50.5
t-39.5 -70.5t-38.5 -82.5t-33 -87t-23 -85t-8.5 -74.5q0 -27 6 -46q50 25 110 71.5t120 100.5t116 109.5t99 97.5z" />
    <glyph glyph-name="b" unicode="b" horiz-adv-x="941" 
d="M1057 410q-82 -64 -175 -93t-196 -37q0 -8 -15.5 -31.5t-40.5 -55t-56 -66.5t-63 -65q-60 -56 -127.5 -102.5t-136.5 -88.5q-16 4 -47.5 14.5t-69.5 24.5t-78 31.5t-72.5 35.5t-53.5 36.5t-21 34.5q0 61 8.5 130t23.5 142.5t35.5 148.5t45.5 149q57 169 139.5 333.5
t175 318t185.5 293t170 258.5q10 0 26.5 -15.5t34.5 -37.5t35.5 -45.5t29.5 -38.5q7 -9 10.5 -27.5t3.5 -24.5q-60 -122 -127 -241t-134 -236.5t-131 -233.5t-119 -231q13 16 31.5 25.5t40.5 15t44.5 7t42.5 1.5q50 0 98 -21t86 -52.5t61 -68t24 -68.5q75 -8 145 13.5
t135 57.5q12 7 21 11.5t17.5 3.5t15.5 -10t15 -28q7 -19 8 -43t-4.5 -48t-15.5 -44t-25 -32zM498 327q-24 7 -54.5 23.5t-64.5 38t-70 47.5t-71 52q-26 -41 -40.5 -80t-21.5 -78t-8.5 -77.5t-1.5 -77.5q0 -11 5 -20.5t17 -9.5q41 0 86 18.5t87 46t77.5 59.5t59.5 58z" />
    <glyph glyph-name="space" unicode=" " horiz-adv-x="626" 
 />
    <glyph glyph-name="l" unicode="l" horiz-adv-x="769" 
d="M361 -26q-26 0 -65.5 15t-84.5 39t-90 53t-81 58t-59 54t-23 40q0 110 19.5 218t53 213.5t78 208.5t94.5 202.5t102.5 195.5t101.5 187q27 50 69.5 112t96 117t115 92t125.5 37q26 0 54 -19t53.5 -47.5t48.5 -63t40 -66t27 -54.5t10 -30q-2 -105 -40.5 -217.5
t-101.5 -224t-145 -217.5t-169.5 -198.5t-174.5 -167t-162 -122.5q0 -8 4 -34t13 -54t24 -50.5t36 -22.5q28 0 63 17t74.5 45t81.5 65t83.5 76t82.5 78t77 72q11 11 23 14t21 3q20 0 31 -16t11 -38q0 -26 -15.5 -64t-42 -83t-62.5 -94t-77 -96t-84.5 -89t-85.5 -74
t-80.5 -51t-69.5 -19zM344 691q37 23 77 58.5t78.5 78t75.5 90t69.5 95.5t58.5 93.5t43 83.5q22 49 48 102t49 105.5t39.5 104t19.5 97.5q-10 -4 -20 -6t-15 -9q-69 -83 -133.5 -176t-128.5 -201t-130.5 -233.5t-139.5 -271.5q1 -11 9 -11z" />
    <glyph glyph-name="d" unicode="d" horiz-adv-x="1093" 
d="M1152 558q17 -20 21.5 -44t1.5 -48t-11.5 -44t-15.5 -32q-46 -72 -99 -130t-106 -103t-103.5 -76.5t-91.5 -51t-70 -27t-38 -4.5q-29 11 -53 22t-46 24.5t-41.5 31t-38.5 42.5q-30 -16 -58.5 -38.5t-58 -43t-61 -33.5t-67.5 -10q-14 1 -39 11.5t-54 26t-60 34.5
t-57.5 38.5t-46 37t-26.5 29.5q-27 48 -29 101.5t12.5 108t42.5 108.5t62 104t70.5 94t68.5 78q55 59 117 96t124.5 46t123.5 -13t115 -80q18 37 38 88.5t39.5 107t35.5 108.5t26 93q3 14 9.5 43t15.5 65t20 74.5t24 71t27.5 54t29.5 24.5q23 -14 51 -39t55 -54t49.5 -58.5
t35.5 -52.5q-20 -66 -50 -146t-66 -170t-76 -186t-78.5 -194t-74 -195t-63.5 -187q20 -9 52 4t70.5 40t81 64.5t83.5 76.5t77.5 76t63.5 64zM564 708q-55 -25 -109 -70t-101.5 -101t-85.5 -118.5t-60 -121.5q-7 -18 -10 -38t10 -38q38 15 83.5 44.5t90 68t84.5 84.5t66.5 95
t36.5 99t-5 96z" />
    <glyph glyph-name="t" unicode="t" horiz-adv-x="806" 
d="M974 932q-31 -16 -84 -30.5t-109.5 -27t-107 -21.5t-77.5 -14q-34 -6 -56.5 -9t-37.5 -5.5t-25 -8t-19.5 -16t-19.5 -29.5t-25 -49q-15 -31 -40 -86t-49 -119t-41 -130t-17 -119q0 -23 4 -43t14 -35q31 0 75 18t95 48.5t105 70.5t104 84t93 89t72 85l132 -81
q-23 -48 -62 -107.5t-87.5 -120t-104.5 -118t-113 -102t-112 -71t-102 -25.5q-34 12 -79 24.5t-93.5 28.5t-95.5 36t-84 47t-60 62.5t-23 80.5q0 126 38 263t117 264q-24 -3 -58.5 -9t-73.5 -12.5t-78.5 -13t-74 -11t-60.5 -6t-36 2.5q-37 12 -37.5 27.5t22.5 32t63 33
t85 31t88 25.5t71 17q60 12 93 20t53 20t35 31.5t39 54.5q14 20 34 53.5t44 72t51.5 77.5t55.5 70t56 51t54 20q59 0 106.5 -20t93.5 -55q-54 -76 -112 -155t-100 -165q28 2 67 7t84 11.5t93 14t93 14.5t85 13t69 9z" />
    <glyph glyph-name="e" unicode="e" horiz-adv-x="849" 
d="M359 644q31 3 60 20t54.5 42t46 55t34.5 58q-5 2 -9 5t-8 3q-33 -4 -62 -24t-52 -47t-39.5 -57t-24.5 -55zM963 411q-22 -31 -61 -74t-88.5 -90t-105.5 -93t-111.5 -82.5t-106.5 -59t-90 -22.5q-9 0 -28.5 6t-45 15.5t-54 21.5t-55.5 24t-49 22.5t-35 18.5q-38 22 -70 50
t-54.5 62.5t-35 75.5t-12.5 91q0 64 21.5 133.5t58.5 137t88 128t110 107t123.5 73.5t129.5 27q103 0 156.5 -48t53.5 -142q0 -56 -19.5 -102t-52.5 -84.5t-76.5 -69t-91 -56t-96.5 -46t-92 -38.5q-16 -27 -24 -49t-8 -59q0 -39 18 -61.5t75 -22.5t120 30.5t123.5 75.5
t115.5 95.5t96 91.5q11 11 29.5 31t41.5 39.5t49 34t52 14.5q9 0 19.5 1t19.5 -2t14.5 -11.5t5.5 -27.5q0 -48 -16.5 -89.5t-41.5 -76.5z" />
    <glyph glyph-name="n" unicode="n" horiz-adv-x="1122" 
d="M-115 507q16 27 42 62.5t57.5 67.5t66 54t69.5 22q23 0 43 -13t35.5 -32.5t26 -42.5t13.5 -44q20 33 53 68.5t70 64.5t72.5 47.5t60.5 18.5q45 0 84.5 -25t69.5 -62.5t47.5 -82t17.5 -82.5q0 -37 -7.5 -74t-16.5 -75.5t-16.5 -78t-7.5 -81.5q0 -31 8 -44.5t22 -13.5
q20 0 53 22.5t74 58.5t86 81.5t87.5 91t80.5 87.5t64 72l80 -117q-24 -35 -59 -86t-80 -108t-99.5 -114t-117.5 -102t-133 -73.5t-147 -28.5q-52 0 -82.5 30t-46.5 77t-21 104t-5 111q0 36 1 68t1 57q0 26 -2 41.5t-9 15.5q-31 -8 -58 -46.5t-51.5 -90.5t-48.5 -111
t-48.5 -109t-50.5 -82.5t-56 -32.5q-24 0 -50 5.5t-49 14t-40.5 19.5t-24.5 23q5 14 16 40t24 59t27 69.5t25.5 71t19 64t7.5 47.5q0 42 -8.5 55t-11.5 13q-5 0 -17.5 -9t-26.5 -20t-25.5 -21t-13.5 -12z" />
    <glyph glyph-name="m" unicode="m" horiz-adv-x="1724" 
d="M1860 517q-21 -42 -52 -96t-70 -111.5t-85.5 -113t-98 -99t-107 -70t-112.5 -26.5q-41 0 -79 14.5t-66.5 40t-45.5 60t-17 75.5q0 49 16 102.5t35 106.5t35 102t16 90q0 8 -8 13.5t-14 5.5q-17 0 -36.5 -19t-40.5 -48.5t-41.5 -65t-38 -69t-31 -60.5t-20.5 -39
q-49 -86 -85.5 -174.5t-77.5 -171.5q-25 9 -47 17t-42.5 17.5t-40.5 22t-40 29.5q4 57 28 120.5t51.5 130t49.5 135t22 135.5q0 16 -8.5 19.5t-19.5 3.5q-28 0 -59.5 -26t-64.5 -69t-66.5 -99t-66 -115.5t-63.5 -119t-57.5 -110t-48.5 -87t-38 -50.5q-28 8 -49.5 16.5
t-39 19t-32.5 24t-29 31.5q0 55 16 108t40 105t52.5 103.5t52.5 104t40 106.5t16 111q0 23 -3 49q-50 -21 -91 -51t-75 -62t-61.5 -64t-50 -57t-42 -40.5t-37.5 -15.5q-22 0 -44 10t-49 44q22 32 51 82t64 106t76 112.5t88 102t100 74t111 28.5q34 0 68.5 -11t64 -33
t50.5 -54.5t29 -75.5q10 20 26 40t38 36t49.5 26t59.5 10q30 0 63 -9.5t61 -29t47 -49.5t21 -71q28 25 54 45t52.5 35t56.5 24t68 11q36 -13 77 -43t75.5 -70.5t57 -88.5t22.5 -98q0 -40 -19 -85t-42 -88.5t-42 -82.5t-19 -66q0 -9 3.5 -17.5t12.5 -8.5q19 0 51.5 23.5
t71 60t79 80t76 84.5t62.5 74t39 47z" />
    <glyph glyph-name="u" unicode="u" horiz-adv-x="1111" 
d="M1242 501q-67 -94 -124 -175q-25 -35 -50 -69.5t-47.5 -65t-40.5 -54t-29 -35.5q-18 -20 -43.5 -42.5t-54 -42t-57.5 -32.5t-54 -13q-50 0 -94 14.5t-79 42t-58 66.5t-30 88q-16 -22 -38.5 -46.5t-49.5 -45t-57.5 -34t-61.5 -13.5t-64.5 9t-65 22t-60 26t-50.5 22
q-64 25 -94 78.5t-30 118.5q0 52 19 100.5t45 96t52.5 95t41.5 98.5q6 19 15 31.5t19.5 20.5t21 12.5t19.5 7.5l174 -157q-8 -26 -23 -67t-31 -84t-27.5 -80.5t-11.5 -54.5v-24t1 -24.5t4.5 -20t9.5 -9.5q26 9 54 41t56.5 76t57 95t53.5 97.5t46.5 84t37.5 54.5q12 13 34 13
q21 0 37 -13t24 -32q10 -23 19 -41t19.5 -33.5t24 -30.5t31.5 -33q13 -13 13 -27q0 -26 -6.5 -58t-15 -65.5t-15 -66.5t-6.5 -61q0 -11 7 -22t21 -10q13 1 38.5 17t57 42.5t68 59.5t72 67.5t68.5 67.5l58.5 58.5t41 40.5t16.5 14z" />
    <glyph glyph-name="h" unicode="h" horiz-adv-x="1122" 
d="M1237 477q-17 -26 -35.5 -53t-38.5 -53q-60 -82 -125.5 -158t-130 -134.5t-125 -94t-109.5 -35.5q-39 0 -81 4.5t-76.5 19.5t-56.5 43.5t-22 76.5q0 5 0.5 11t1.5 12q9 60 33.5 116t55.5 111t62.5 109t54.5 109q-31 -1 -67.5 -17.5t-74 -44t-75.5 -61.5t-71.5 -68.5
t-61.5 -67t-46 -56.5q-33 -43 -61 -90t-58.5 -86t-68.5 -64.5t-91 -25.5q-10 0 -14.5 0.5t-8.5 1.5t-10 3.5t-18 6.5q-20 7 -27.5 19.5t-5.5 28.5q3 21 10.5 60.5t17.5 88.5t21.5 103.5t23.5 106t23.5 96.5t21.5 74q40 117 88 233.5t87 222.5q17 45 47 112.5t70.5 142
t89.5 149.5t104.5 134.5t115 97t120.5 37.5q28 0 61 -17.5t61.5 -44t48 -57t20.5 -56.5q0 -84 -30 -177.5t-75.5 -184t-98.5 -172.5t-99 -143q-11 -14 -34.5 -38.5t-53 -53.5t-61.5 -60.5t-59.5 -60.5t-46.5 -53.5t-23 -38.5l5 -2.5t6 0.5q18 7 48.5 31.5t70 56.5t85 67.5
t93 65t95.5 49t91 19.5q19 0 32.5 -15.5t22 -39.5t12.5 -53t4 -55q0 -44 -13.5 -88.5t-34.5 -89t-47.5 -88.5t-52 -88t-47.5 -87t-35 -85q39 25 95.5 73.5t122 111t134.5 133.5t134 140l28 -41zM721 1368q-18 -1 -18 -2q-26 -31 -59.5 -77t-70 -99.5t-71.5 -111
t-62.5 -112.5t-44.5 -104t-17 -84v-6q55 67 97.5 123.5t75.5 105t58 93t45 88t36 89t31 97.5z" />
    <glyph glyph-name="c" unicode="c" horiz-adv-x="928" 
d="M1006 404q-36 -39 -81 -76t-89.5 -69t-84 -57t-63.5 -40q-19 -12 -47.5 -32t-64 -42t-75 -44.5t-78.5 -38.5t-76.5 -23t-68.5 0q-39 9 -85.5 31.5t-84.5 48.5q-42 29 -72.5 53t-49.5 49.5t-28 55.5t-9 71q0 86 17 160.5t50 142t81.5 128.5t111.5 120q30 28 70 60
t84.5 59.5t90.5 45.5t88 18q49 0 88.5 -18.5t67 -50t42 -72.5t14.5 -86q0 -44 -12 -77.5t-32.5 -62t-47 -54.5t-55.5 -56q-14 2 -20.5 11.5t-13.5 19.5l-101 143q-41 -21 -78.5 -57.5t-66.5 -80t-46.5 -91.5t-17.5 -92q0 -23 2.5 -48t8.5 -49t16 -45.5t25 -37.5
q54 16 111 37.5t128 58.5t162.5 95t213.5 148q14 5 29 6t28.5 -1t23.5 -6t14 -10q10 -14 14 -32t2 -37.5t-10.5 -39t-24.5 -36.5z" />
    <glyph glyph-name="g" unicode="g" horiz-adv-x="1095" 
d="M1153 540q13 -30 11 -63t-12.5 -63t-25 -54.5t-25.5 -36.5q-40 -44 -86 -83t-92.5 -73t-91.5 -62.5t-83 -51t-66 -38t-41 -23.5q-32 -51 -69 -127.5t-85.5 -166t-113 -185.5t-152.5 -186q-49 -50 -121 -82t-155 -32q-67 0 -132 15t-116 43t-82 69t-31 94q0 61 30 117.5
t80.5 108t116 98t137 88t143.5 77.5t135.5 66.5t113 55.5t75.5 44q-40 -16 -75.5 -23t-67.5 -7q-56 0 -112 20t-101.5 55t-74 82.5t-28.5 101.5q0 43 7.5 97.5t25 111.5t45.5 111.5t68.5 98.5t94.5 72.5t123 33.5q27 2 42 -2t25 -11t17.5 -14t18.5 -11q13 24 23.5 33.5
t23 12t29 0.5t42.5 -2q55 0 103.5 -34.5t84.5 -85t56.5 -107.5t20.5 -102q0 -37 -6 -70.5t-15.5 -62.5t-20 -52t-19.5 -39l381 288zM355 571q-51 -56 -76.5 -134t-25.5 -159q0 -29 8 -49.5t31 -20.5q25 0 56.5 12.5t64 34t63.5 49.5t55.5 58.5t39.5 61.5t15 59
q0 45 -13 77.5t-33 52.5t-44 29.5t-46 9.5q-8 0 -23 -11.5t-30 -26t-27 -27.5t-15 -16zM-104 -592q0 -16 16.5 -23.5t40.5 -7.5q27 0 57.5 9t53.5 28q51 42 92.5 91.5t78 103.5t71 113t71.5 121q-21 -16 -65 -46t-97.5 -69t-110 -83t-103 -87t-76 -82t-29.5 -68z" />
    <glyph glyph-name="y" unicode="y" horiz-adv-x="958" 
d="M683 317q24 18 64.5 52.5t86 75t91 82.5t79.5 75l104 -107q-32 -50 -78.5 -101t-99 -99.5t-107 -93t-102.5 -80t-85 -61t-54 -36.5q-16 -26 -40.5 -71t-57 -101t-72.5 -118t-87 -123t-100 -116.5t-112 -98t-123 -67.5t-133 -25q-57 0 -110 12t-93.5 36t-65 59.5
t-24.5 83.5q0 50 26.5 99.5t71.5 98t103.5 94t122.5 87.5t129 80t123 70.5t104.5 58.5t72.5 45q-62 -25 -108 -36t-82 -11q-32 0 -67.5 12t-66 34t-50.5 54t-20 73q0 37 7.5 85.5t24 102t41 108.5t58 105t77 91t96.5 68l168 -155q-41 -39 -73.5 -93t-55 -109.5t-34.5 -105.5
t-12 -82q0 -40 17 -40q28 0 63.5 28t74 73t77.5 102t74.5 114.5t65.5 110t49 89.5q16 30 46 44.5t62 14.5q27 0 45.5 -8t30.5 -21t17 -28t5 -29q0 -11 -10.5 -41t-27 -70.5t-36.5 -86t-38 -86.5t-32.5 -73t-19.5 -45zM-151 -523q0 -7 12 -7q9 0 23 4.5t30.5 12t33.5 18
t32 22.5q51 42 95 82t83 83.5t75 92.5t71 109q-40 -29 -89.5 -67.5t-100 -80t-98 -83.5t-85 -78.5t-60 -65t-22.5 -42.5z" />
    <glyph glyph-name="q" unicode="q" horiz-adv-x="1159" 
d="M1268 477q-85 -117 -164.5 -196t-152 -129t-136 -76t-116.5 -38t-93.5 -14t-66.5 -4q-76 -123 -140.5 -236t-127.5 -224t-128.5 -224t-143.5 -235q-48 0 -88 17t-69 53l429 862q-6 -1 -11.5 -1h-11.5q-72 0 -130 29t-99.5 75.5t-64 104.5t-22.5 115q0 42 16 89.5t43 96
t62.5 96t73.5 89.5t76.5 76t71.5 55q41 26 78 36t72 10q36 0 63.5 -7.5t54 -16.5t55.5 -16.5t68 -7.5q29 0 61 -19t59 -48.5t45 -65t18 -67.5q0 -26 -10 -60t-26 -72t-35.5 -76.5t-38 -72t-34.5 -59.5l-24 -39q-7 -11 -7 -19q0 -12 21 -12q20 0 53.5 10.5t71.5 28t77 41
t70 49.5q63 53 116.5 104.5t107.5 114.5zM377 240q37 26 82.5 77t86 114.5t68 133t27.5 132.5q0 7 -1 19t-3 24t-5 20.5t-8 8.5q-13 0 -43 -19.5t-68 -52.5t-79 -77.5t-74.5 -93.5t-55.5 -100.5t-22 -99.5q0 -23 7 -37.5t20 -24t30 -15t38 -9.5z" />
    <glyph glyph-name="v" unicode="v" horiz-adv-x="1231" 
d="M373 762q44 0 80 -14t63.5 -45t48 -80.5t34.5 -120.5q-28 -66 -61 -117t-61 -97.5t-47 -92.5t-19 -100q0 -23 5 -46.5t14 -50.5q57 6 102.5 40.5t81 87t61.5 117t45 130.5t31.5 127.5t20.5 108.5q-12 16 -22.5 46.5t-10.5 57.5q0 19 7 32t26 13q13 0 24 -6.5t21 -14.5
q11 -9 32 -27t48.5 -39.5t60 -44t67 -41t68.5 -30.5t65 -12q27 0 52.5 8t52.5 18t56.5 18t64.5 8q32 0 54 -12.5t22 -43.5q0 -38 -18.5 -70t-49.5 -58t-69.5 -45.5t-78.5 -33t-77.5 -20.5t-66.5 -7q-21 0 -40 7t-36.5 17.5t-32.5 24t-27 26.5q-16 -61 -40 -127t-56 -130
t-72 -122t-88.5 -101.5t-105 -69.5t-120.5 -26q-58 0 -123 16t-119.5 48.5t-90.5 82t-36 115.5q0 65 21 126.5t53.5 120.5t70 116t70.5 113l-3 18q-35 -1 -59.5 -5.5t-46.5 -15.5t-44 -29t-52 -46q-10 -9 -23.5 -21t-27.5 -22.5t-27.5 -17.5t-23.5 -7q-14 0 -28 4.5
t-25 12.5t-18.5 19.5t-7.5 25.5q0 22 20.5 53t54.5 64.5t78.5 67t92.5 60t96 43t89 16.5z" />
    <glyph glyph-name="f" unicode="f" horiz-adv-x="810" 
d="M887 558q11 -14 16 -31t5 -33q0 -33 -15.5 -63t-29.5 -47q-62 -70 -126.5 -111.5t-129.5 -63.5t-128.5 -29t-123.5 -7h-15q-43 -122 -83 -234t-80 -218t-83 -206.5t-91.5 -200.5t-105 -201t-124.5 -206q-6 0 -24.5 7.5t-44 19.5t-54 27t-53.5 28.5t-43.5 24.5t-23.5 16
q26 66 65.5 150t86.5 182.5t98.5 211t102 237t97 258.5t82.5 276q0 1 -13 19t-30 40t-32.5 40.5t-20.5 21.5q0 6 -0.5 11.5t-0.5 10.5q0 14 3 25t13 25q26 36 63 65t72 53t61.5 43.5t32.5 36.5q46 109 106.5 237t135 254.5t162.5 241t187 197.5l103 7q-53 -111 -115 -216.5
t-124 -213.5t-118.5 -223.5t-97.5 -245.5q-15 -47 -30 -92t-28 -87.5t-21.5 -82t-9.5 -74.5q37 -6 86 -6q42 0 90 7t100.5 25t108 50t112.5 82z" />
    <glyph glyph-name="w" unicode="w" horiz-adv-x="1479" 
d="M1624 420q-16 -17 -47 -42t-71 -48t-85.5 -39.5t-89.5 -16.5q-24 0 -41 5t-30 13t-23.5 19t-21.5 22q-8 -30 -28 -82t-50 -113t-68.5 -123.5t-84.5 -113.5t-97.5 -83.5t-107.5 -32.5q-36 0 -79.5 21t-86 52.5t-78.5 67.5t-56 66q-37 -30 -77.5 -57.5t-84 -47.5t-89 -32
t-92.5 -12q-54 0 -103.5 16t-87 46t-59.5 74t-22 100q0 52 13 125.5t38.5 153t62.5 157.5t85 140t106.5 100.5t126.5 38.5q20 0 36 -3.5t32 -11.5t33 -21.5t38 -34.5q-56 -56 -101 -125.5t-76.5 -142.5t-48.5 -143t-17 -126q0 -42 11 -75q58 16 117.5 67t118 126t113.5 169
t103 196q19 8 47 8q25 0 54.5 -6.5t54 -20t41 -34t16.5 -48.5q0 -14 -14 -45.5t-35.5 -73.5t-46.5 -92t-46.5 -101t-35.5 -100t-14 -90q0 -4 0.5 -12.5t1.5 -16.5t3.5 -14.5t5.5 -6.5q20 0 49.5 28.5t64.5 75t73.5 106t76 121.5t72 121.5t62.5 106t47 75t25 28.5
q18 -15 43.5 -43t54 -55.5t57 -48t52.5 -20.5q32 0 67 16.5t76 55.5z" />
    <glyph glyph-name="o" unicode="o" horiz-adv-x="868" 
d="M1018 497q-15 -38 -42.5 -70t-62 -55t-72.5 -35.5t-74 -12.5q-47 0 -82 22q-29 -69 -66.5 -123.5t-84 -99t-101 -81.5t-115.5 -71q-9 -5 -23 -5q-23 0 -54 14t-65.5 36t-69.5 49t-66 53t-56 48t-39 34q-3 15 -6 33.5t-5 37t-3 34.5t-1 25q0 51 17 105t43.5 105.5t59 99
t63.5 84.5q25 33 67.5 68.5t93 64t104 47t100.5 18.5q51 0 98.5 -30t84.5 -74.5t59.5 -95.5t22.5 -94q0 -9 -1 -20.5t-2.5 -23t-4 -22.5t-5.5 -18q4 -3 6.5 -4.5t6.5 -3t11 -2t21 -0.5q15 0 31 1.5t33.5 8.5t35.5 21t38 38zM473 642q-14 9 -28 9q-12 0 -23.5 -6t-20.5 -15
q-37 -39 -69.5 -83t-56.5 -89.5t-38 -90.5t-14 -85q0 -11 8 -18t19 -7q16 0 40 14t49 34.5t48.5 43.5t38.5 41q26 31 46 62.5t38 66.5q-16 13 -23.5 27.5t-10.5 30t-2.5 32t-0.5 33.5z" />
    <glyph glyph-name="x" unicode="x" horiz-adv-x="817" 
d="M907 813q-83 -72 -162 -154t-148 -159.5t-125 -143.5t-93 -105q65 -118 109.5 -198.5t73 -133.5t44.5 -83.5t24.5 -47.5l13 -26t10 -19.5t15 -27l28.5 -49.5q15 -16 21.5 -27t6.5 -19q0 -14 -11.5 -24t-19.5 -28q-44 31 -86.5 77t-82.5 99t-77.5 109.5t-71 109
t-62.5 98.5t-52 78q-15 -13 -49 -49.5t-79.5 -87.5t-98.5 -113t-107 -127t-104 -128t-90 -117t-65.5 -94.5t-29.5 -59.5q-11 12 -33 23.5t-43.5 25.5t-39 33t-19.5 45q14 50 49.5 116t84.5 142t109.5 159t124.5 165.5t130 162t126 149.5q-4 9 -9 18t-15.5 23.5t-28.5 37
t-48 59.5t-74.5 91.5t-107.5 132.5q-23 17 -32.5 29.5t-9.5 20.5q0 11 14 16.5t37 5.5q19 0 43 -3.5t47.5 -10t45 -15.5t35.5 -19q27 -20 48.5 -43t43.5 -55t48.5 -76t64.5 -106q49 63 109 138.5t125 150.5t134 143t138 117z" />
    <glyph glyph-name="z" unicode="z" horiz-adv-x="1190" 
d="M-67 485q35 32 67 74t57 87t39.5 91.5t14.5 87.5q-11 15 -21 28.5t-21 27.5q12 31 32.5 48t62.5 16q23 -28 46.5 -47.5t58.5 -19.5q61 0 144 21t169 58t165 87t133 108q10 11 18 16.5t18 5.5q15 0 30 -11.5t27 -28.5t19.5 -36.5t7.5 -35.5q0 -14 -6 -23
q-43 -62 -89.5 -118t-93 -110t-91 -108.5t-84.5 -113.5h45q18 0 37 -1t34 -4t24.5 -8.5t9.5 -15.5t-13.5 -17t-34.5 -12t-46.5 -8t-48.5 -4.5t-41.5 -2.5t-24.5 -2q-22 -27 -44.5 -52t-47.5 -50.5t-52.5 -55t-59.5 -65.5q51 -1 98 -8t92 -15.5t88 -15.5t85 -7
q74 0 141.5 35.5t129 89t117 115.5t105.5 116q12 13 23 13q8 0 16 -7t17.5 -18t21 -25t26.5 -28q-15 -31 -39 -74.5t-55 -93t-68.5 -102t-78 -100t-83 -87t-85.5 -64.5q-39 -23 -81 -31.5t-84 -8.5q-53 0 -106 10t-104 22t-100 22t-92 10q-59 0 -100.5 -20.5t-75.5 -51.5
t-65 -67.5t-68 -68.5q-105 39 -151 71t-46 70q0 33 31 75t85 102q45 50 86 96t80.5 90t78.5 87.5t78 90.5l-171 -3l-7 -5q-37 -29 -65.5 -39.5t-49.5 -10.5q-17 0 -29 4.5t-20 10.5q-9 6 -15 15zM189 554q15 2 37 6q19 3 47.5 6l66.5 7q30 36 60.5 75t63.5 82
q-22 -8 -51 -14.5t-59.5 -12t-59.5 -8.5t-51 -3q-11 -29 -20 -51.5t-19.5 -40.5t-23.5 -33.5t-31 -31.5z" />
    <glyph glyph-name="r" unicode="r" horiz-adv-x="1006" 
d="M-16 531q6 17 20.5 34.5t24.5 32.5q10 16 14.5 41t6.5 55t3 61.5t4 60t8.5 51.5t17.5 35q18 6 33 6q22 0 37.5 -11t31.5 -24.5t34 -24.5t45 -11q94 0 182.5 20.5t164.5 68.5q42 26 86 62.5t82 68.5q8 6 18.5 8.5t18.5 5.5q17 -11 34 -33t30 -48t21 -51t8 -42
q0 -18 -25 -25q-24 -8 -51 -32.5t-55.5 -59.5t-57 -76t-54.5 -81.5t-48.5 -77.5t-38.5 -62q-38 -60 -65 -123.5t-27 -129.5q0 -48 8 -66.5t18 -18.5q23 0 58.5 19.5t77 51t86 71t86 78.5t76.5 74.5t57 59.5q34 36 54 61.5t24 29.5q12 12 29.5 8t34.5 -15.5t29 -26t12 -24.5
q0 -18 -7.5 -38.5t-20 -43.5t-28.5 -47.5t-33 -48.5q-38 -54 -76 -114.5t-85.5 -121.5t-108 -119t-143.5 -107q-47 12 -97 31t-98.5 42.5t-94 51t-83.5 56.5q-66 50 -66 136q0 57 20 122.5t48 127.5t58 114t49 82q-19 -12 -40 -17.5t-42 -5.5q-26 0 -49 8t-37 23
q-6 -36 -21.5 -78t-37.5 -77.5t-49 -59t-55 -23.5q-15 0 -22 10z" />
    <glyph glyph-name="j" unicode="j" horiz-adv-x="604" 
d="M157 1246q10 34 31.5 61t52.5 43.5t70 20.5t83 -7q27 -7 48.5 -21t35 -34.5t18 -47t-3.5 -56.5q-12 -39 -37.5 -68t-58.5 -46.5t-71.5 -22t-76.5 5.5q-37 9 -58.5 27.5t-31 42t-9 50t7.5 52.5zM719 517q-72 -129 -146 -203.5t-143.5 -111.5t-131 -45t-107.5 -5
q-61 -192 -158 -347t-232.5 -256.5t-309.5 -142.5t-388 -5q-32 5 -54 25t-29 57q12 30 36 47t53.5 27t61 15t58.5 10q86 16 166 35t152 52.5t135 87t116.5 138.5t96 207.5t73.5 294.5q6 32 18 92.5t28.5 132t35.5 145.5t39.5 133t40 94.5t37.5 30.5q26 -8 54 -22t54.5 -32
t48 -39.5t33.5 -45.5q15 -30 20 -61t3.5 -61.5t-7 -59t-12.5 -52.5q-12 -37 -22.5 -69t-21.5 -63t-23 -63.5t-27 -71.5q63 -2 118 20.5t102 56t86 70.5t72 66z" />
    <glyph glyph-name="s" unicode="s" horiz-adv-x="887" 
d="M-185 378q35 37 64 65t54.5 51.5t49 44.5t48.5 44.5t53 51.5t62 65q54 58 101 121t81 136q16 34 19.5 70.5t6 73t8 72t25.5 67.5q2 1 7 1q16 0 43 -15t58.5 -39t64 -54t59.5 -59t45 -54t21 -40q1 -5 1.5 -9.5t0.5 -9.5q0 -25 -5.5 -54t-5.5 -56q0 -12 14 -53t30 -98.5
t27 -125t5 -132.5l-13 -32l44 58q19 16 34.5 29t32 28t36.5 34t49 46q0 -3 13.5 -19t30 -34.5t29.5 -34t12 -15.5q-28 -43 -66.5 -95t-87 -105t-106 -103t-123.5 -88.5t-139.5 -62t-152.5 -23.5q-44 0 -94.5 22.5t-98.5 58.5t-88.5 81.5t-65.5 92.5q-24 -20 -52 -29.5
t-41 -9.5t-35.5 2.5t-44 10t-37.5 21t-16 34.5q0 14 10 30t33 39zM480 755q-26 -59 -62 -110t-77.5 -97t-87 -87t-89.5 -79q9 -20 23 -35t30.5 -26t34 -16.5t33.5 -5.5q51 0 94.5 20.5t75.5 54t50 76t18 86.5q0 29 -3.5 60t-9 60t-13.5 54.5t-17 44.5z" />
    <glyph glyph-name="periodcentered" unicode="&#xb7;" horiz-adv-x="934" 
d="M323 552q0 35 17.5 70t46 63t63 45.5t69.5 17.5q30 0 60 -21t54 -49t39 -56t15 -42q0 -35 -17.5 -69.5t-46 -62t-64 -45t-70.5 -17.5q-19 0 -47 16t-54.5 40t-45.5 53.5t-19 56.5z" />
    <glyph glyph-name="dotaccent" unicode="&#x2d9;" horiz-adv-x="488" 
d="M131 1447q35 3 66 5q26 2 51.5 1t36.5 -6q15 -8 32 -25t31 -40.5t23.5 -51.5t9.5 -57q0 -11 -9 -29t-24 -35t-35 -29.5t-41 -12.5q-28 0 -55 8t-50 21.5t-40 31t-24 36.5q-12 33 -12 65q0 31 10.5 60t29.5 58z" />
    <glyph glyph-name="acute" unicode="&#xb4;" horiz-adv-x="534" 
d="M124 1124q-10 6 -18.5 13t-13 14.5t-4 16.5t9.5 20q25 34 50 58.5t48 46.5t45 45.5t43 55.5q30 -13 55 -25t47.5 -24.5t44 -26t44.5 -28.5q12 -8 11.5 -23t-9 -31t-22.5 -30t-28 -21q-27 -14 -69 -30.5t-85.5 -28.5t-84 -14.5t-64.5 12.5z" />
    <glyph glyph-name="grave" unicode="`" horiz-adv-x="534" 
d="M416 1098q7 -6 17.5 -16.5t17.5 -24t8 -28t-9 -27.5q-80 29 -152 69t-144 79q-26 14 -45.5 41t-27.5 57.5t-3 59.5t29 49q26 21 50 16.5t47.5 -25t47.5 -53.5t50 -69t54 -70.5t60 -57.5z" />
    <glyph glyph-name="hungarumlaut" unicode="&#x2dd;" horiz-adv-x="844" 
d="M372 1189q32 23 58.5 54t49.5 61.5t44 57.5t42 42.5t43 16.5t48 -20q24 -20 29.5 -47t-3 -54.5t-27.5 -52t-45 -38.5q-36 -20 -61 -35t-48.5 -28.5t-50.5 -26.5t-67 -27q-11 13 -17 27.5t-7.5 28t1.5 24.5t11 17zM107 1189q32 23 58.5 54t49.5 61.5t44 57.5t42 42.5
t43 16.5t48 -20q24 -20 29.5 -47t-3 -54.5t-27.5 -52t-45 -38.5q-36 -20 -61 -35t-48.5 -28.5t-50.5 -26.5t-67 -27q-11 13 -17 27.5t-7.5 28t1.5 24.5t11 17z" />
    <glyph glyph-name="dieresis" unicode="&#xa8;" horiz-adv-x="770" 
d="M402 1366q30 2 56 4q22 1 43.5 1t30.5 -5q13 -6 27.5 -26.5t27.5 -46.5t21.5 -55.5t8.5 -53.5q0 -9 -3.5 -19.5t-11.5 -19.5t-20.5 -15t-30.5 -6q-24 0 -51.5 7.5t-52.5 20t-44 28t-25 31.5q-10 27 -10 55q0 26 9 51t25 49zM257 1362q13 -6 26.5 -21.5t24.5 -36t18.5 -45
t7.5 -48.5q0 -9 -11 -24t-28.5 -28.5t-37.5 -23.5t-38 -10q-24 0 -43.5 8.5t-34.5 22t-26 30t-17 32.5q-10 27 -10 55q0 29 12 54t34 39t53 14.5t70 -18.5z" />
    <glyph glyph-name="ring" unicode="&#x2da;" horiz-adv-x="562" 
d="M370 1467q39 1 67.5 -20t46.5 -49.5t25 -57.5t2 -44q-20 -56 -47 -101.5t-64.5 -78.5t-87.5 -52t-116 -22q-6 0 -19.5 10t-30.5 26t-35.5 35.5t-32.5 39t-22 36.5t-5 28q22 72 59 119.5t80.5 76.5t90 41t89.5 13zM342 1343q-24 4 -46.5 -17.5t-36.5 -51.5
q-6 -12 -13 -24.5t-10 -23t0 -20t17 -15.5q10 -4 24 4.5t28 22t25.5 28t14.5 22.5q3 4 5 13.5t2.5 20.5t-2 22t-8.5 19z" />
    <glyph glyph-name="circumflex" unicode="&#x2c6;" horiz-adv-x="596" 
d="M-8 1133q0 11 10 24q6 8 36.5 32.5t72 55.5t88.5 65t87 62.5t66.5 47t27.5 18.5q22 0 35.5 -31.5t24.5 -75.5t22.5 -91.5t29.5 -80.5q7 -12 13.5 -27.5t6.5 -37.5q0 -16 -9 -26q-34 6 -52.5 17t-31.5 27t-24.5 35.5t-30.5 41.5q-27 -22 -61.5 -41.5t-72 -34.5t-75 -24
t-71.5 -9q-12 0 -27.5 3.5t-30 10t-24.5 16.5t-10 23z" />
    <glyph glyph-name="caron" unicode="&#x2c7;" horiz-adv-x="596" 
d="M242 1099q-33 19 -55.5 34.5t-42 31t-40 33.5t-49.5 42q-21 18 -31.5 39t-10 43t12 42t34.5 37q9 7 25.5 -8t39 -43.5t50 -66t58.5 -75.5q20 28 41 52t41 47t39 47t35 53q26 -13 46 -28.5t37.5 -32t34.5 -33t37 -31.5q11 -8 10 -23t-8.5 -31.5t-19.5 -31t-24 -21.5
q-23 -13 -56.5 -29.5t-69.5 -28.5t-70.5 -17t-58.5 5z" />
    <glyph glyph-name="breve" unicode="&#x2d8;" horiz-adv-x="596" 
d="M282 1104q-35 1 -62.5 12.5t-50.5 30.5t-43.5 43t-40.5 50q-17 22 -27 44t-10.5 42.5t9.5 39t33 35.5q-1 -1 3.5 -14.5t14 -32.5t24.5 -39.5t34.5 -35t43.5 -19t52 7.5t60 45t67 94q26 -13 46 -28.5t37.5 -32t34.5 -33t37 -31.5q11 -8 10 -21.5t-9 -29t-20 -30.5t-23 -26
q-38 -36 -97.5 -54.5t-122.5 -16.5z" />
    <glyph glyph-name="tilde" unicode="&#x2dc;" horiz-adv-x="658" 
d="M41 1102q-16 14 -25 28t5 37q20 35 40 69t42.5 64t49.5 53.5t62 36.5q0 -1 2 -1q8 7 23.5 -3.5t36 -32.5t46 -52.5t52.5 -64.5q31 41 60.5 76.5t53.5 82.5q24 -13 39 -25t28 -24t26 -24.5t31 -27.5q10 -8 8 -22t-9.5 -29.5t-18 -30.5t-18.5 -25q-21 -24 -51.5 -46
t-62.5 -36t-61.5 -16.5t-49.5 12.5q-19 12 -31.5 21t-21.5 17.5t-16.5 16t-14.5 16.5q-23 -14 -53.5 -32.5t-62 -32t-61 -17t-48.5 11.5z" />
    <glyph glyph-name="macron" unicode="&#xaf;" horiz-adv-x="686" 
d="M656 1130q-78 -8 -158 -10.5t-158.5 1t-153.5 14.5t-142 31q-13 21 -27 35.5t-28 37.5q85 12 171 15t173 3.5t175.5 3t178.5 14.5z" />
    <glyph glyph-name="ogonek" unicode="&#x2db;" horiz-adv-x="658" 
d="M117 -13q0 24 5.5 41t16 28.5t25.5 18.5t35 13q1 0 2 0.5t2 0.5q9 0 9.5 -15.5t-5 -41.5t-15 -60.5t-20.5 -72.5t-21.5 -76.5t-18.5 -73.5q19 -5 46.5 5t53.5 30.5t46 48.5t25 60q20 -2 41.5 -1.5t39 -3.5t29 -15t11.5 -34q0 -51 -24 -97t-64 -80t-92.5 -53.5
t-108.5 -18.5q-73 1 -102.5 23.5t-31.5 58t15.5 79.5t40 88t41.5 83t19 65z" />
    <glyph glyph-name="cedilla" unicode="&#xb8;" horiz-adv-x="658" 
d="M-24 -189q18 28 43 34t52.5 3t55.5 -10t53.5 -5.5t45.5 17t31 57.5q12 46 27.5 85t25.5 74q2 7 10 10t18.5 3.5t23.5 0t25 -0.5q2 1 8 -3q11 -7 12 -39.5t-3 -77t-11 -95t-12 -93.5q-2 -18 -22 -36.5t-45.5 -33.5t-51.5 -25.5t-39 -13.5q-48 -11 -100.5 2.5t-96.5 42.5
q-11 7 -23.5 19.5t-21.5 27t-11.5 29.5t6.5 28z" />
    <glyph glyph-name="period" unicode="." horiz-adv-x="491" 
d="M338 90q0 -32 -13.5 -55t-33.5 -39t-44.5 -23.5t-46.5 -7.5t-49.5 13t-52 34t-41.5 48.5t-17 57.5t6 59t20 51.5t37.5 36.5t58.5 14q41 0 74 -15.5t55.5 -41.5t34.5 -60.5t12 -71.5z" />
    <glyph glyph-name="comma" unicode="," horiz-adv-x="480" 
d="M353 80q0 -41 -25.5 -88t-66.5 -88t-93 -71.5t-106 -38.5l-38 41q9 7 26.5 22t34.5 34.5t29.5 42.5t12.5 47q0 16 -10.5 33t-23.5 36.5t-23.5 41t-10.5 47.5q0 27 8.5 52t24.5 44t39 30.5t53 11.5q43 0 75 -16.5t53 -43.5t31 -62.5t10 -74.5z" />
    <glyph glyph-name="tbar" unicode="&#x167;" horiz-adv-x="806" 
d="M-137 506q-25 -4 -49 -9.5t-45.5 -9t-38.5 -5t-29 2.5q-22 8 -20.5 18t19 22t48 24t67.5 24.5t77.5 23.5t77 20.5t67 16.5t47.5 10q29 6 65.5 13.5t84 15t109 15.5t141.5 16q66 6 139.5 14t142.5 16l-22 -66q-6 -16 -29 -25.5t-52.5 -16t-60.5 -10t-52 -7.5
q-6 -1 -48.5 -7.5t-106.5 -15.5t-140.5 -20.5t-150.5 -22.5t-138.5 -21t-102.5 -16zM1018 932q-31 -16 -84 -30.5t-109.5 -27t-107 -21.5t-77.5 -14q-34 -6 -56.5 -9t-37.5 -5.5t-25 -8t-19.5 -16t-19.5 -29.5t-25 -49q-15 -31 -40 -86t-49 -119t-41 -130t-17 -119
q0 -23 4 -43t14 -35q31 0 75 18t95 48.5t105 70.5t104 84t93 89t72 85l132 -81q-23 -48 -62 -107.5t-87.5 -120t-104.5 -118t-113 -102t-112 -71t-102 -25.5q-34 12 -79 24.5t-93.5 28.5t-95.5 36t-84 47t-60 62.5t-23 80.5q0 126 38 263t117 264q-24 -3 -58.5 -9
t-73.5 -12.5t-78.5 -13t-74 -11t-60 -6t-36.5 2.5q-37 12 -37.5 27.5t22.5 32t63 33t85 31t88 25.5t71 17q60 12 93 20t53 20t35 31.5t39 54.5q14 20 34 53.5t44 72t51.5 77.5t55.5 70t56 51t54 20q59 0 106.5 -20t93.5 -55q-54 -76 -112 -155t-100 -165q28 2 67 7t84 11.5
t93 14t93 14.5t85 13t69 9z" />
    <glyph glyph-name="p" unicode="p" horiz-adv-x="1043" 
d="M-462 -572q7 17 21.5 47.5t39.5 85t61 137t85 204t113.5 286t145.5 381.5q7 19 18 47.5t24 62t27 69.5t26.5 69.5t23 62.5t17.5 48q11 32 35 44t53 12t59 -7t56 -12q63 18 117 18q80 0 140.5 -34.5t101 -90.5t61 -127.5t20.5 -145.5q0 -51 -11 -105t-35.5 -106.5
t-63.5 -100t-94 -83.5q63 8 124.5 41t123.5 87t125 127t129 161q32 -5 53 -27t21 -61q0 -27 -11.5 -61t-38 -76t-68.5 -90.5t-103 -103.5q-90 -81 -179 -130t-169 -49q-42 0 -79 14.5t-69 46.5q-42 -26 -89.5 -37.5t-96.5 -11.5q-51 0 -101 10.5t-96 27.5
q-67 -200 -145 -394t-157 -374zM505 428q16 29 25 65t9 71q0 33 -8 62.5t-24.5 52t-43 36t-63.5 13.5h-29.5t-21.5 -1.5t-21.5 -4t-29.5 -7.5q-24 -65 -46.5 -118t-43.5 -102.5t-41 -100t-40 -111.5q51 -27 112 -27q36 0 73 10t71.5 31t65.5 53.5t56 77.5z" />
    <glyph glyph-name="A" unicode="A" horiz-adv-x="1269" 
d="M1036 -69q-67 7 -112.5 26t-74.5 48t-44 65.5t-22 77.5t-8.5 85t-2.5 88q-51 13 -108 23t-115.5 18t-115.5 14t-108 9q-28 -39 -67.5 -92t-81.5 -110.5t-81.5 -115.5t-68.5 -106q-9 -1 -36.5 13t-61.5 36t-68.5 47t-57.5 45q34 52 87 124t122.5 158.5t152 184t175 200.5
t192 208.5t202.5 207.5t207 198t205 179q27 0 61 -6t63 -15t47.5 -19t16.5 -17q-40 -134 -79.5 -283t-70.5 -301t-50.5 -302.5t-19.5 -287.5q0 -47 3.5 -96t6 -94.5t2 -85t-9 -68.5t-27.5 -44t-52 -12zM778 489q5 21 15.5 66.5t24 102.5t29 120t30 118t27 96.5t21.5 55.5
q-23 -18 -56.5 -52t-73.5 -77.5t-85.5 -93.5t-91.5 -101t-92 -100t-88 -90z" />
    <glyph glyph-name="k" unicode="k" horiz-adv-x="1116" 
d="M625 1753q-47 -136 -91.5 -273.5t-83 -267.5t-68 -248t-46.5 -215q30 37 59.5 68.5t64 55t77 37t98.5 13.5q32 0 60.5 -10t50 -31.5t34 -54.5t12.5 -79q0 -69 -28 -123t-73 -93.5t-100 -65.5t-109 -38q37 -50 67 -91t57.5 -69.5t55.5 -44t61 -15.5q42 0 86 24.5t87 63.5
t83.5 86.5t75 92.5t61.5 83t44 58l75 -99q-28 -49 -62.5 -108.5t-75 -121t-87 -119.5t-97.5 -103t-107.5 -72.5t-116.5 -27.5q-70 0 -124.5 13.5t-97 36t-75 53.5t-59 66t-49.5 72.5t-45 73.5q-25 -23 -41 -57t-29 -72t-25.5 -76t-30.5 -68.5t-44 -49.5t-65 -19q-20 0 -36 2
t-27 10.5t-16.5 25t-5.5 45.5q0 47 11.5 144t36.5 229t64 291.5t93 331.5t125 349.5t159 344.5zM415 539q37 10 67 24q25 12 46 29t21 40q0 13 -14 20t-27 7q-17 0 -34.5 -9t-33.5 -21t-28.5 -25t-18.5 -20z" />
    <glyph glyph-name=".personaluse" horiz-adv-x="1222" 
d="M698 76q-4 -2 -7 -2l-6 -2l-20 -4q-14 -3 -27 -5t-27 -3q-5 -1 -14 -1q-2 0 -3.5 -0.5t-3.5 -0.5h-28h-22q-11 1 -21 1.5t-21 2.5l-20 3l-21 3l-20 5q-80 20 -146 62q-8 5 -16 11l-16 12l-15 12l-15 12q-11 10 -21.5 20t-20.5 21l-12 14q-44 53 -73 115t-40 131l-3 20
q-3 30 -3 61q0 22 1.5 42.5t5.5 41.5l3 20q3 15 7 30t9 29q2 5 3.5 9.5t3.5 9.5q5 14 11.5 27.5t13.5 26.5l9 18q15 26 32.5 49t37.5 45q7 7 13.5 14t14.5 13q32 30 69 53.5t78 40.5q14 5 27.5 10t27.5 9q5 2 10 3l10 2q57 15 119 15q17 0 32.5 -1t31.5 -3q11 -2 21 -3.5
t20 -3.5l20 -5q39 -10 77 -26q14 -6 27 -12.5t26 -14.5l17 -11l16 -11l16 -11q16 -12 30 -25t28 -27q4 -4 7 -7.5t6 -7.5q4 -4 7 -7.5t6 -7.5q7 -8 12.5 -15.5t11.5 -15.5q15 -22 31 -49l9 -17q2 -5 4 -9t4 -9q5 -9 8 -18t7 -18q16 -44 24 -94l3 -20q3 -20 3 -39q1 -5 1 -10
v-10q0 -29 -3 -54q-1 -9 -2 -17.5t-3 -17.5l-3 -17q-2 -13 -5.5 -25t-7.5 -24q-20 -63 -56 -118l-18 -27q-24 -32 -53 -60t-61 -51l-27 -18q-23 -15 -48.5 -27t-52.5 -22q-8 -3 -15 -5.5t-15 -4.5zM684 1012q-2 0 -3 1q-2 0 -3 1l-17 4q-10 3 -20 4.5t-21 3.5l-13 2h-6
q-2 0 -3.5 0.5t-3.5 0.5h-6q-4 0 -7 0.5t-6 0.5h-13h-10t-10 -1h-10t-10 -1q-5 0 -9.5 -0.5t-9.5 -1.5l-19 -3q-30 -5 -56 -12q-14 -5 -26.5 -9.5t-25.5 -9.5l-16 -8q-5 -2 -8.5 -4t-8.5 -4l-15 -9l-16 -9q-39 -25 -70 -56q-24 -23 -48 -53l-10 -14q-42 -59 -64 -127.5
t-22 -143.5q0 -28 3 -56l3 -18q4 -27 12 -54q1 -5 2 -8.5t3 -8.5q20 -61 54 -113l21 -29q45 -57 104 -99t130 -63q17 -6 37 -9q9 -2 18 -3.5t19 -3.5q28 -3 58 -3h19q5 1 9.5 1h9.5l19 2q37 4 72 15q54 16 100 42l16 10l15 9l29 21l13 12l14 12l13 12l12 13l12 14
q23 26 43 58q19 31 33 64l13 34q2 5 3 9t2 9q2 5 3 9t2 9q2 5 2.5 9t1.5 9l4 18l2 19q3 19 3 38q1 5 1 10v10q0 4 -0.5 8t-0.5 9q0 8 -0.5 16.5t-1.5 16.5q0 5 -0.5 8.5t-1.5 7.5l-2 16t-3 16q-1 4 -1.5 8t-2.5 8q-2 10 -4 15q-2 8 -4.5 15t-5.5 15l-5 14q-8 20 -19 42
l-15 26l-8 13q-13 19 -26.5 36t-29.5 33l-11 10l-22 20q-14 12 -29 22.5t-31 20.5q-24 15 -51 27l-14 6q-7 4 -14 5q-7 3 -13 5q-4 2 -7.5 2.5t-6.5 2.5q-10 2 -14 4zM980 564v-8q0 -10 -1 -15q0 -8 -0.5 -15t-1.5 -15q-1 -2 -1 -7l-5 -29l-3 -14l-8 -28q-11 -35 -27 -66
l-11 -19l-3 -6l-12 -18q-5 -8 -10.5 -14.5t-10.5 -13.5h-558l546 550l5 -7q4 -4 5 -6l15 -20l13 -21l12 -20q32 -54 45 -112q2 -9 3.5 -18t3.5 -18q3 -20 3 -37q1 -6 1 -12v-11zM248 282l-15 17l-13 18q-36 51 -55.5 111.5t-20.5 127.5v8v7q0 29 4 56t12 53q11 42 31 79
t47 71h556zM280 876q2 1 2.5 2t2.5 3l12 10q5 4 9 7t9 6q10 7 19.5 13.5t19.5 11.5q2 2 6 4l21 10q14 8 28 12l14 6l22 7q2 0 8 2q22 6 45 9q10 2 16 2l16 2q8 1 16 1h16h8h7.5t8.5 -1h8q10 -2 16 -2l15 -2l16 -3q2 0 3.5 -0.5t3.5 -0.5q10 -2 15 -4q10 -2 19 -5l18 -6
q4 -2 7.5 -2.5t6.5 -2.5l21 -9l14 -7l19 -11q5 -2 13 -8l13 -8q5 -3 9 -6t9 -7l11 -9q5 -3 8.5 -6.5t8.5 -7.5h-560zM844 250q-4 -4 -6 -5q-8 -8 -17.5 -14t-18.5 -13q-4 -2 -6 -4q-10 -6 -19.5 -12t-20.5 -11q-19 -10 -41 -18l-15 -6q-5 -2 -10.5 -3.5t-11.5 -3.5
q-8 -2 -15 -3.5t-15 -3.5l-15 -3q-10 -2 -19.5 -3t-19.5 -2q-2 0 -4 -0.5t-4 -0.5h-24h-8h-12t-12 1q-10 1 -19.5 2t-19.5 3l-30 6q-5 2 -15 4l-15 5q-11 4 -21.5 8t-20.5 9q-35 15 -66 36l-12 9q-15 10 -29 23h562zM383 -23q1 5 5 15l9 12q3 4 11 10q4 3 14 7l15 3
q10 0 15 -2q11 -2 15 -5q5 -2 13 -8q4 -3 10 -11q5 -8 6 -14q2 -5 4 -15q0 -10 -1 -15q-2 -9 -6 -15q-2 -5 -8 -13q-2 -2 -5 -4.5t-6 -4.5l-14 -7q-8 -3 -15 -3h-7.5t-8.5 1t-15 5q-6 3 -12 9q-4 3 -10 11q-2 3 -3.5 6.5t-3.5 6.5l-3 15v8t1 8zM945 86q-6 5 -10 13
q-2 4 -3 7t-2 7q-2 5 -2 15q0 5 2 15q1 6 6 14q2 3 4.5 6.5t5.5 5.5q2 3 5.5 5.5t6.5 4.5q4 2 7 3t7 2q5 2 15 2t15 -2q7 -1 14 -5q7 -5 13 -10l9 -13l6 -14q1 -5 1 -15q0 -6 -2 -14t-6 -14q-2 -4 -4.5 -7t-4.5 -6q-6 -6 -13 -9q-8 -5 -14 -6q-10 -2 -15 -2t-15 2
q-6 1 -14 6q-6 3 -12 9zM169 1032q-6 8 -7 14q-3 7 -3 15q-1 4 -0.5 7.5t0.5 7.5q1 7 5 14q2 5 8 13q3 3 6 5.5t6 4.5q8 6 14 7q7 3 15 3q7 1 15 0q4 -1 7 -2t7 -3q5 -2 13 -8l5.5 -5.5t4.5 -6.5q6 -8 7 -14q3 -8 3 -15q1 -8 0 -15q-1 -4 -2 -7t-3 -7q-2 -5 -8 -13
l-5.5 -5.5t-6.5 -4.5q-11 -8 -21 -9q-12 -3 -23 0q-9 1 -21 8q-11 7 -16 16zM920 1058q6 7 12 10q3 2 6.5 3.5t6.5 3.5q4 2 7.5 2t7.5 1q10 0 15 -1q7 -1 14 -5q7 -3 13 -9q7 -5 11 -12q5 -6 6 -13q3 -8 3 -15q0 -10 -1 -15q-2 -10 -5 -14q-2 -5 -8 -13l-12 -11
q-8 -5 -14 -6q-8 -3 -15 -3q-10 0 -15 1q-3 1 -6.5 2t-7.5 3q-5 2 -13 8q-10 10 -14 19q-5 11 -6 22q0 11 3 22q2 5 4.5 10t7.5 10zM1150 247l-15 -23l-46 30l33 -50l-12 -19l-58 10l45 -29l-15 -23l-96 63l10 15q3 4 8 7q3 1 9 1l68 -11l-38 57q-3 4 -3 9t3 10l10 15z
M613 -103l-24 -1l-53 76l1 -76l-27 -1l-2 115h23q5 0 7 -1l4 -3l40 -58l2 -3q0 -1 0.5 -1.5t0.5 -1.5q0 -3 1 -4l-2 73h28zM266 96l19 -12l-16 -123l-16 9l-4 3q-2 2 -2 4q-2 4 -2 5v5l2 14l-38 22l-11 -8l-4 -2h-5q-2 -1 -3 -0.5t-2 0.5q-2 1 -3 1t-2 1l-15 9zM7 244
l26 -44l-23 -13l-46 77l11 6q6 5 13 3l79 -8l-25 42l23 13l44 -76l-10 -6q-4 -2 -6 -2q-2 -1 -6 -1zM77 104l-49 58l88 74l49 -59l-20 -16l-32 37l-13 -11l25 -30l-20 -17l-25 30l-15 -12l32 -37zM111 882l-10 -13l-91 70l25 33q6 6 10 8q4 3 12 5h6.5t6.5 -1q6 -2 12 -6
q3 -2 7 -8t5 -9q1 -4 1 -11q0 -4 -2 -10l61 -1l-6 -9q-4 -4 -7 -5q-4 -2 -7 -2l-51 1l-10 -13zM876 41q3 -6 9 -9q3 -3 11 -5q6 -2 12 0q4 0 12 4l3.5 3.5l3.5 3.5t3 4l2 4q2 5 6 8q2 2 3.5 2t3.5 1h6l10 -2q-2 -10 -4 -14q-1 -4 -5 -12q-3 -6 -8 -11l-9 -8q-4 -2 -7.5 -4
t-7.5 -3q-8 -3 -15 -3q-5 -1 -15 1q-3 1 -6.5 1.5t-7.5 2.5q-3 2 -6.5 4t-5.5 5q-6 5 -11 11q-2 4 -3.5 7.5t-3.5 7.5l-3 14q0 10 1 15t5 15l4 6t5 6q5 7 12 11q5 4 11 5q5 2 13 4h13q6 0 14 -2l-1 -10l-3 -6q-1 -2 -2 -2.5t-3 -2.5q-5 -3 -10 -3q-6 0 -9 -1q-6 -2 -9 -4
q-6 -3 -9 -9q-2 -3 -3 -5.5t-1 -5.5q-2 -7 0 -13q2 -8 5 -11zM182 1041q4 -8 12 -12q7 -5 15 -6t17 0q8 2 15 7q7 4 12 12q4 7 6 15q1 8 0 17q-2 8 -7 15t-12 12q-8 4 -15 6q-8 2 -16 0q-9 -2 -16 -7q-8 -5 -12 -12q-5 -8 -6 -15q-2 -8 0 -16q2 -9 7 -16zM932 1048
q-6 -8 -9 -15q-2 -4 -2 -8v-8q0 -5 1 -8.5t3 -7.5t4.5 -7.5t5.5 -6.5q4 -3 7.5 -4.5t7.5 -3.5q10 -3 16 -2q9 0 16 4q7 3 14 10q3 4 5 7t3 8q3 9 2 16q0 9 -4 16q-2 4 -4.5 7t-5.5 6q-6 6 -15 9q-4 2 -8 2h-8q-6 0 -16 -4q-8 -5 -13 -10zM761 21q-2 0 -4 -2q-2 0 -2 -2
l-2 -3q0 -1 1 -2q0 -1 2 -3q1 0 1.5 -0.5t2.5 -0.5h16q9 0 14 -1q6 -2 11 -4q6 -4 9 -7q4 -4 6 -11q3 -8 2 -15q0 -7 -5 -15q-3 -7 -10 -12l-6 -4t-8 -4q-8 -2 -13 -2q-5 -1 -13 1q-4 1 -12 5q-7 4 -9 8l6 8l3 3q2 2 4 2q2 1 7 1q2 0 3 -0.5t3 -0.5t3 -0.5t3 -0.5q4 0 6 1
q1 0 5 2l4 4q2 2 2 5v5l-3 3q-1 1 -4 1q-2 1 -6 1h-8q-8 0 -12 1q-4 0 -12 2l-10 6q-5 5 -8 12q-2 4 -2 7.5v6.5q2 9 5 13q3 5 9 10q4 4 12 7q6 2 10 2q2 0 4.5 -0.5t5.5 -0.5l10 -4q6 -2 8 -4l-5 -9l-3 -5q-4 -2 -6 -2q-1 -1 -4 -1h-8q-2 0 -3 -1zM423 1214l15 3l71 -102
l-9 -2q-2 -1 -3.5 -0.5t-3.5 0.5q-3 2 -5 5l-12 16l-57 -11l-4 -20q-2 -4 -4 -6q-2 -3 -6 -3l-9 -2zM37 736l-6 -15l-107 40l14 38q3 8 7 12q7 7 12 9l6 2t7 1t7 -0.5t7 -1.5q7 -3 12 -8q4 -3 8 -11q2 -3 2.5 -6.5t1.5 -6.5q0 -8 -3 -15l-8 -23zM319 1059l-15 -6l-44 106
l11 5q3 1 7 1t5 -1l87 -57l1 -1q1 -1 1 -2q1 0 1 -0.5t1 -0.5l-37 88l15 6l44 -106l-11 -5q-3 -1 -7 -1t-6 1l-86 57q-1 0 -1 0.5t-1 0.5q0 1 -1 2h-1zM983 920l-10 12l92 69l8 -10l3 -6v-6l-34 -97q0 -1 -0.5 -1t-0.5 -1t-0.5 -1t-0.5 -1l-1 -1l76 57l10 -13l-92 -68l-7 9
q-2 2 -4 6q0 4 1 6l33 98q1 1 1 2l3 3zM374 -6l-10 -25l-38 16l-15 -40l-26 10l42 106l71 -28l-9 -24l-46 18l-7 -18zM154 150l17 20l70 -59l-17 -20l-24 21l-58 -68l-20 18l57 67zM626 -14l-5 26l90 17l5 -25l-32 -7l17 -86l-26 -5l-17 86zM848 1035l-63 33l52 102l63 -33
l-7 -14l-49 25l-15 -29l40 -20l-8 -15l-39 21l-16 -30l49 -26zM95 861l-34 -62l-100 55l34 62l14 -8l-27 -48l29 -16l22 39l13 -7l-21 -39l30 -17l26 48zM639 1154q-2 -6 0 -12l5 -10q3 -5 8 -8q3 -2 5.5 -3t5.5 -2q9 0 12 1q5 0 11 4q5 3 8 8q4 8 5 12l12 68l16 -2l-13 -69
q-2 -8 -4 -12q-1 -3 -2.5 -5.5t-3.5 -4.5l-9 -8l-10 -5q-3 -2 -6 -2t-6 -1q-8 0 -12 1q-4 0 -6.5 1t-5.5 3q-5 1 -10 6l-8 9l-5 10q-3 6 -3 12q0 8 1 12l12 69l16 -3zM120 1036l-7 -2l-5 -3q-4 -4 -5 -6q-2 -4 -2 -6v-6l3 -5l5 -4h5q3 0 7 2l10 4q4 2 5 2l6 3q2 0 6 2
q1 0 2 0.5t3 0.5q16 2 26 -10q7 -5 8 -12q1 -4 1.5 -7t0.5 -7q-2 -10 -4 -14q-5 -8 -9 -12q-12 -11 -25 -12h-5q-2 1 -5 1q-1 0 -2 0.5t-2 0.5t-1 0.5t-1 0.5l1 4l3 6q4 3 9 3h2q2 0 8 2l7 5l5 7q2 4 2 8q2 3 0 8q0 3 -4 7q-3 4 -7 4q-4 2 -7 0q-4 0 -8 -2q-6 -2 -8 -4
l-12 -4q-3 -2 -6 -2t-5 -1q-8 0 -12 1q-2 2 -5 3.5t-5 4.5q-5 4 -7 11q-2 8 -1 12q2 8 4 12q3 6 7 10q2 2 4 3l4 2q4 3 9 3q8 2 9 2q6 0 8 -1l-1 -5q0 -4 -3 -7t-6 -3zM788 1168l-4 6l-6 3q-2 1 -7 1h-6l-5 -3q-3 -3 -3 -5q-2 -4 -1 -6q0 -3 2 -5q2 -4 4 -6l8 -6l5 -4l5 -4
q1 -1 1.5 -2t2.5 -2l3 -5q9 -12 4 -27q-2 -5 -8 -13q-8 -6 -12 -7q-8 -3 -14 -3q-5 0 -15 2q-14 6 -22 18q0 2 -2 4q0 2 -0.5 2.5t-0.5 2.5q-1 1 -1 3v3l4 1q4 0 6 -1q5 -1 8 -6v-1q3 -5 5 -6q2 -2 4 -3l4 -2q2 0 4 -0.5t4 -0.5q6 0 8 1q6 2 8 4q4 4 5 7q2 5 0 8q0 2 -1 3.5
t-2 3.5l-6 6l-7 5l-9 9q-4 2 -7 9q-4 6 -4 10q-1 5 2 13q1 6 6 11q6 5 11 6q4 2 12 2q5 0 13 -2l4 -2t4 -3q4 -3 7 -7q4 -4 5 -7l3 -7l-5 -2q-3 -2 -8 0q-4 2 -6 4zM964 105q3 -3 11 -7q6 -2 12 -2q8 0 12 2q4 1 10 7t7 10q3 6 3 12t-3 12q-1 5 -7 11t-10 7q-6 3 -12 3
q-4 0 -12 -2q-8 -4 -11 -7q-6 -6 -7 -11q-2 -4 -2 -12t2 -12zM410 -29q-2 -6 0 -12q2 -8 4 -12l4 -4t5 -4q3 -3 12 -5q6 -2 12 0q8 2 11 4q6 4 9 9q3 4 5 12q2 6 0 13q-2 8 -5 11q-2 3 -4 5l-4 4q-3 2 -5.5 3t-6.5 2q-6 1 -12 0q-4 -1 -6.5 -2t-5.5 -3q-5 -4 -8 -9
q-3 -3 -5 -12zM1081 748l-6 15l46 17l2 1q2 2 3 2q0 1 0.5 1.5t0.5 1.5q2 0 2 2l38 58l3 -10q2 -3 2 -9l-3 -7l-25 -38l-3 -3h2q0 2 2 0l44 -12q2 -1 3.5 -1.5t3.5 -2.5q2 -3 4 -7l4 -10l-66 19q-2 0 -3 1h-6q-2 0 -3 -1zM510 1112l-4 115l15 1l4 -99l50 2l1 -16zM1039 839
l102 53l7 -14l-88 -45l23 -44l-14 -8zM-9 780q0 2 0.5 4t0.5 4q0 3 -2 7q-1 3 -5 7l-6 4q-3 1 -8 1q-2 0 -8 -2q-4 -2 -6 -4t-2.5 -3.5t-1.5 -3.5l-9 -24l38 -14zM32 942l28 -22l16 21l3 6v7q0 2 -2 6q-2 3 -5 5q-3 3 -6 3q-2 1 -7 1l-6 -2q-3 -2 -5 -5zM434 1191l-11 -51
l44 8l-30 43q-2 2 -2 3.5t-1 3.5v-7zM834 -29q0 2 -0.5 3t-0.5 3q0 4 1 6q0 2 3 5q1 2 5 4l6 2q2 0 3 -0.5t3 -0.5l5 -3q2 -1 4 -5t2 -6q0 -4 -1 -6l-3 -5q-1 -2 -5 -4t-6 -2q-4 0 -6 1q-3 0 -6 3zM256 58l-2 -2l-2 -2l-2 -2l-17 -12l18 -11l2 21q0 1 0.5 1.5t0.5 1.5t0.5 1
t0.5 1t0.5 1.5t0.5 1.5z" />
    <glyph glyph-name="fraction" unicode="&#x2044;" horiz-adv-x="1159" 
d="M658 853q183 196 333 355.5t260 272.5t175.5 174.5t77.5 61.5q7 0 24 -0.5t38 -2t43 -4t40.5 -5t30 -6t10.5 -7.5q-3 -10 -14 -29q-17 -29 -55 -77.5t-90.5 -111t-116.5 -135t-133 -150t-140.5 -156t-139 -152t-128.5 -139t-109 -117.5q-30 -32 -74 -79t-96.5 -103
t-110.5 -117t-114.5 -119.5t-109 -111t-94.5 -92.5t-70 -63t-36 -23q-1 0 -13.5 5t-30.5 12.5t-38 16.5t-36.5 18t-26.5 16.5t-7 11.5q27 40 75 99.5t109.5 131t133 152t146 162.5t148 161.5t139.5 149.5z" />
    <glyph glyph-name="eth" unicode="&#xf0;" horiz-adv-x="1207" 
d="M658 853q7 31 11.5 75t5 90.5t-4 90.5t-13.5 74q-44 -22 -83 -37t-65 -20q-40 8 -64.5 30t-24.5 41q0 14 14 22q29 14 71 37t91 51q-29 42 -65.5 78.5t-79.5 66.5q21 33 49.5 45.5t58.5 12.5q28 0 57.5 -7t57.5 -20t52 -30.5t41 -38.5q48 26 83.5 43.5t52.5 17.5
q13 0 27 -5t26 -14t20 -20.5t8 -23.5q0 -18 -20 -37.5t-46 -37t-52.5 -32t-38.5 -21.5q39 -83 61.5 -169t22.5 -186q0 -111 -32 -245t-104 -304q-3 -8 -3 -21q0 -18 2.5 -41.5t10.5 -44.5t22 -35t37 -14q29 0 64 21t71.5 54.5t74 76t72.5 85t66.5 81t55.5 65.5l26 -25
q7 -12 10 -26.5t3 -29.5q0 -30 -9 -59t-19 -46q-50 -83 -106 -159.5t-127 -135.5t-161 -94t-208 -35q-21 0 -39 18t-31.5 42.5t-22 50t-9.5 41.5q-18 -24 -41.5 -39.5t-50 -27t-55 -20t-57.5 -18.5h-2q-10 0 -41.5 14t-74.5 37t-91 52t-90 58t-72 56.5t-37 46.5
q15 147 63.5 264.5t118 199.5t153 126t166.5 44q57 0 111.5 -22t102.5 -67zM626 705v11.5t-1 11.5q-51 32 -95 32q-31 0 -58.5 -14t-52 -36.5t-47.5 -51.5t-45 -58q-42 -56 -59 -101t-17 -81t12 -61.5t29.5 -42t35.5 -24t30 -7.5q24 0 53 18.5t59 49.5t58 73t50 89t35 96
t13 96z" />
    <glyph glyph-name="colon" unicode=":" horiz-adv-x="574" 
d="M369 81q0 -13 -16.5 -32.5t-41 -38t-53 -32t-52.5 -13.5q-33 0 -64 26t-55 60t-38 67.5t-14 47.5q0 29 9 55.5t26.5 47t42 32.5t56.5 12q46 0 83 -17.5t63 -49t40 -74t14 -91.5zM223 689q0 19 12.5 44.5t35 48.5t53 39.5t67.5 16.5q36 0 60.5 -16.5t39.5 -42t21.5 -57
t6.5 -61.5q0 -31 -11 -59t-31 -49.5t-48.5 -34.5t-64.5 -13q-20 0 -44.5 21t-46 50.5t-36 61t-14.5 51.5z" />
    <glyph glyph-name="semicolon" unicode=";" horiz-adv-x="517" 
d="M343 80q0 -41 -25.5 -88t-66.5 -88t-93 -71.5t-106 -38.5l-38 41q9 7 26.5 22t34.5 34.5t29.5 42.5t12.5 47q0 16 -10.5 33t-23.5 36.5t-23.5 41t-10.5 47.5q0 27 8.5 52t24.5 44t39 30.5t53 11.5q43 0 75 -16.5t53 -43.5t31 -62.5t10 -74.5zM310 588q-13 6 -27 22.5
t-26 38.5t-20 47.5t-8 51.5q0 9 11 24.5t27.5 31t36.5 26.5t38 11q32 0 59.5 -16.5t47 -41t30.5 -52t11 -49.5q0 -23 -7.5 -43.5t-21 -36t-33 -25t-44.5 -9.5q-34 0 -74 20z" />
    <glyph glyph-name="oe" unicode="&#x153;" horiz-adv-x="1343" 
d="M1515 467q-8 -14 -16.5 -28t-18.5 -28q-22 -31 -61 -74.5t-88.5 -90t-105.5 -92.5t-111.5 -82.5t-106.5 -59t-90 -22.5q-9 0 -28.5 6t-45 15.5t-54 21.5t-55.5 24t-49 22.5t-35 18.5q-56 31 -96 75q-51 -62 -112.5 -110t-140.5 -92q-19 -11 -49.5 -1.5t-67 30.5
t-75.5 49.5t-74 57.5t-63.5 54t-43.5 39q-3 27 -7 52t-6 51q-6 52 9.5 105.5t43 104t62.5 97t68 86.5q4 5 8 10.5t9 10.5q3 4 1.5 10.5t-2.5 15.5t1 18.5t12 19.5q36 35 87.5 66t106.5 50.5t108 24.5t92 -10q32 -13 67.5 -51t61.5 -88q37 48 76.5 87t83 66.5t93 42
t106.5 14.5q103 0 156.5 -48t53.5 -142q0 -56 -19.5 -102t-52.5 -84.5t-76.5 -69t-91 -56t-96 -46t-92.5 -38.5q-16 -27 -24 -49t-8 -59q0 -39 18 -61.5t75 -22.5q25 0 51 9.5t52.5 24t52 31t49.5 30.5q21 13 54 40t67.5 58.5t66.5 61.5t52 50q11 11 30.5 33t43.5 43.5
t51.5 38t53.5 16.5q9 0 20 -3t20.5 -10.5t15.5 -19.5t6 -31q0 -18 -3.5 -37t-8.5 -36q-5 -19 -11 -37zM286 514q-20 -29 -35.5 -57t-24.5 -53t-10 -45.5t8 -33.5q-4 -14 5.5 -24t24.5 -8q14 0 26 6q35 21 64.5 47.5t55.5 57.5l10 12q-38 21 -69.5 47t-54.5 51zM541 714
q-19 14 -53.5 -2.5t-74.5 -51.5q19 -32 47.5 -55.5t61.5 -37.5q7 17 13 40.5t9.5 45t3 39t-6.5 22.5zM885 661q13 1 20.5 2.5t12 3t8 3.5t8.5 5l34 24q35 24 58 56t45 64q-5 2 -9 5t-8 3q-71 -10 -109 -73q-15 -25 -32.5 -44t-27.5 -48v-1z" />
    <glyph glyph-name="underscore" unicode="_" horiz-adv-x="869" 
d="M730 -197q-52 -5 -119.5 -8.5t-142 -4.5t-152 1t-149.5 7t-135 14t-108 23q-6 10 -2 23.5t10.5 27.5t11 27.5t-2.5 24.5q57 8 123 12t137 6t145 2.5t146 2.5t140.5 5.5t128.5 11.5z" />
    <glyph glyph-name="zero.001" horiz-adv-x="1113" 
d="M984 391q-74 -131 -177.5 -230.5t-240.5 -162.5q-26 -12 -53 -17.5t-55 -5.5q-61 0 -122 24t-113.5 62t-91.5 86.5t-56 97.5q1 55 16 122t42 139.5t64.5 146t84.5 142t101.5 128.5t114.5 105t124.5 70.5t131.5 25.5q83 0 137.5 -38t86.5 -98.5t45 -136t13 -151.5
q0 -52 -5 -100.5t-12.5 -90t-16.5 -72t-18 -46.5zM328 312q1 -15 9.5 -30.5t21 -27.5t28.5 -19.5t31 -7.5q25 0 61.5 16t73 39t68 48.5t47.5 45.5q45 57 84.5 106.5t68 99.5t45.5 105.5t17 123.5q0 57 -17.5 86t-65.5 29q-29 0 -73.5 -26t-95.5 -71t-103 -105.5t-95 -128.5
t-71.5 -140.5t-33.5 -142.5z" />
    <glyph glyph-name=".personaluse2" horiz-adv-x="3609" 
d="M2679 880q9 -8 16 -23q6 -14 6 -30q0 -14 -6 -29q-7 -14 -16 -23q-10 -10 -24 -16t-29 -6q-16 0 -29 6q-14 6 -24 16q-5 5 -9 11t-7 12q-6 15 -6 29q0 16 6 30q6 13 16 23q9 10 24 17q13 6 29 6q15 0 29 -6q15 -7 24 -17zM836 857q-4 -6 -7 -10q-6 -4 -10 -6t-12 -2h-44
v61h44q6 0 12 -3q5 -1 10 -6q3 -3 7 -9q2 -8 2 -13q0 -4 -2 -12zM1206 880q10 -10 16 -23q6 -14 6 -30q0 -14 -6 -29q-3 -6 -7 -12t-9 -11q-10 -10 -24 -16t-29 -6q-16 0 -29 6q-14 6 -24 16q-9 9 -16 23q-6 15 -6 29q0 16 6 30q7 15 16 23q9 10 24 17q13 6 29 6q15 0 29 -6
q15 -7 24 -17zM1582 896q0 -6 2 -12l37 -84h-78l36 84q1 2 1 2.5t1 2.5q0 2 0.5 3.5t0.5 3.5zM511 890q3 -3 7 -11q3 -8 3 -14q0 -8 -3 -14q-4 -8 -7 -11q-6 -6 -11 -7q-4 -2 -7 -3t-7 -1h-44v71h44q6 0 14 -3q5 -1 11 -7zM3398 1364v-766h-3147v766h1193q0 80 30 151
q16 35 36.5 65t46.5 56q54 52 121 80q70 30 146 30q85 0 152 -32q70 -31 121 -84q26 -26 45.5 -56.5t34.5 -65.5q29 -70 29 -144h1192zM1501 1496q-26 -64 -26 -133q0 -71 27 -134q26 -62 74 -113q46 -47 111 -76q61 -29 137 -29q74 0 136 28q32 14 60 33t52 42t43 51t33 60
q27 64 27 138q0 67 -20 120q-19 53 -56 99q-35 42 -82 74q-24 14 -49.5 25.5t-51.5 19.5q-39 13 -92 13q-73 0 -139 -29q-64 -29 -111 -76q-45 -47 -73 -113zM544 841q5 12 5 24t-5 25q-4 9 -14 19q-8 9 -20 14q-10 5 -24 5h-71v-200h27v74h44q11 0 24 5q11 4 20 13
q10 10 14 21zM693 928h-124v-200h124v27h-96v60h78v28h-78v57h96v28zM888 728l-63 86q10 3 16 8q9 6 13 13q5 5 9 16q2 5 2 9v9q0 14 -4 23q-2 5 -5.5 9.5t-7.5 9.5q-8 7 -18 12q-9 5 -23 5h-72v-200h28v83h30l52 -71q3 -5 10 -9q4 -3 15 -3h18zM1023 762q5 13 5 25
q0 27 -21 44q-6 4 -9 5q-2 2 -4.5 2.5t-4.5 2.5q-2 1 -5 1.5t-5 2.5q-2 0 -5 1t-5 2q-5 2 -9 3.5t-8 3.5q-9 3 -11 5q-5 5 -6 8q-2 3 -2 10t2 10q4 6 7 8q3 1 11 5q3 1 5.5 1.5t6.5 0.5q2 0 5 -1t5 -2q3 -1 6 -2.5t5 -3.5q6 -3 12 -3q9 0 14 5l7 5l-4.5 4.5l-5.5 5.5
q-3 2 -6 4.5t-7 4.5q-5 4 -15 7q-8 3 -16 3q-12 0 -22 -3q-6 -2 -10.5 -4.5t-9.5 -5.5q-8 -8 -13 -17q-5 -10 -5 -22q0 -15 5 -22q4 -9 12 -15q9 -7 18 -11q5 -2 10 -4.5t10 -4.5q3 -2 6.5 -2.5t7.5 -2.5q10 -4 13 -6q6 -4 10 -10q3 -5 3 -13q0 -9 -4 -14q-2 -6 -9 -11
q-3 -2 -6.5 -3.5t-6.5 -3.5q-5 -1 -8 -1.5t-7 -0.5q-6 0 -14 2q-9 3 -12 8l-3 1q-6 7 -15 7q-6 0 -11 -4l-7 -3q1 -1 1 -2t2 -2q0 -2 1 -3t2 -3t5 -6q3 -5 6 -6q17 -16 45 -16q15 0 27 4q13 5 21 13q10 8 16 19zM1252 800q3 15 3 27q0 14 -3 28q-2 7 -4.5 13t-6.5 12
q-3 5 -7 10l-8 10q-10 8 -22 16q-5 4 -11 6.5t-13 4.5q-14 3 -27 3q-15 0 -27 -3q-7 -2 -13 -4.5t-12 -6.5q-5 -4 -10 -7.5t-10 -8.5q-9 -8 -16 -20q-4 -6 -6.5 -12t-4.5 -13t-3 -13.5t-1 -14.5q0 -21 9 -39q4 -10 9.5 -17.5t12.5 -15.5q13 -13 32 -21q17 -8 40 -8
q8 0 14 0.5t13 2.5t13 4.5t11 6.5q11 5 22 15q4 5 8 10.5t7 10.5q4 6 6.5 12t4.5 12zM1462 928h-28v-156q0 5 -1 8t-3 6l-97 134q-3 4 -8 6q-8 2 -12 2h-20v-200h28v168v-4l2 -4q0 -2 2 -4l114 -156h23v200zM1683 728l-87 200h-27l-88 -200h16q6 0 12 3l4 4t4 5l14 32h102
l14 -32q3 -7 8 -9q3 -3 12 -3h16zM1817 755h-87v173h-27v-200h114v27zM2092 928h-28v-122q0 -12 -4 -21q-2 -5 -4.5 -9t-7.5 -7q-3 -5 -7 -7.5t-9 -4.5q-9 -4 -21 -4t-20 4q-5 2 -9.5 4.5t-7.5 7.5q-7 5 -12 16q-2 5 -3 10t-1 11v122h-27v-122v-11.5t2 -10.5t4 -9.5t4 -9.5
q3 -5 6 -9t8 -7q5 -6 15 -13q11 -5 20 -8q10 -3 21 -3t22 3q5 2 9.5 4t9.5 4q9 6 16 13q4 3 7 7t6 9q2 5 4 9.5t4 9.5q3 10 3 22v122zM2246 762q5 10 5 25q0 29 -21 44q-2 2 -4 3l-4 2l-10 5q-6 2 -10 4q-2 0 -4.5 1t-5.5 2q-5 2 -8.5 3.5t-7.5 3.5t-6.5 2.5t-4.5 2.5
q-6 4 -7 8q-2 6 -2 10q0 5 3 10q4 6 7 8q2 1 4.5 2t5.5 3q8 2 13 2q2 0 4.5 -1t5.5 -2l5 -2.5t6 -3.5q6 -3 12 -3q8 0 13 5l8 5l-10 10q-3 2 -6 4.5t-7 4.5q-3 2 -7 3.5t-8 3.5q-9 3 -16 3q-13 0 -23 -3q-5 -2 -9.5 -4.5t-9.5 -5.5q-4 -4 -7.5 -8t-5.5 -9q-6 -9 -6 -22
q0 -12 5 -22t13 -15q8 -7 17 -11l21 -9q4 -2 7 -2.5t7 -2.5q3 -2 6.5 -3t6.5 -3q6 -5 9 -10q4 -4 4 -13t-4 -14q-2 -5 -10 -11q-5 -4 -13 -7q-10 -2 -14 -2q-7 0 -15 2q-9 3 -12 8l-2 1q-6 7 -16 7q-6 0 -10 -4l-8 -3q1 -1 1.5 -2t1.5 -2l3 -6q4 -4 5 -6q3 -5 7 -6
q17 -16 45 -16q14 0 26 4q12 5 22 13q8 7 15 19zM2410 928h-124v-200h124v27h-97v60h78v28h-78v57h97v28zM2725 800q3 15 3 27q0 14 -3 28q-2 7 -4.5 13t-6.5 12q-7 12 -16 20q-5 5 -10 8.5t-10 7.5q-6 4 -12 6.5t-13 4.5q-12 3 -27 3q-14 0 -27 -3q-7 -2 -13 -4.5t-12 -6.5
q-5 -4 -10.5 -7.5t-10.5 -8.5t-8.5 -10t-7.5 -10q-5 -10 -10 -25q-3 -14 -3 -28q0 -10 1.5 -20t6.5 -19q4 -10 9 -17.5t12 -15.5q15 -14 33 -21q16 -8 40 -8q7 0 14 0.5t13 2.5q7 2 13 4.5t12 6.5q12 7 20 15q5 5 9 10.5t7 10.5q4 6 6.5 12t4.5 12zM2935 928h-28v-156
q-2 9 -5 14l-97 134q-3 5 -8 6q-6 2 -12 2h-20v-200h28v168l2 -4q0 -3 1 -4q0 -2 2 -4l114 -156h23v200zM3098 755h-87v173h-27v-200h114v27zM3257 928h-19q-10 0 -14 -3q-7 -3 -10 -10l-48 -64q1 0 -2 -3q0 -1 -1 -2v-1v3q0 3 -2 3l-47 64q-6 8 -10 10q-8 3 -15 3h-19
l72 -97q1 -1 1.5 -2t1.5 -2q2 -4 3 -5q0 -1 0.5 -2t0.5 -2v-6v-84h28v84q0 2 0.5 3t0.5 3q1 1 1 2t1 2t1 2t2 3q0 1 3 4zM1710 1069q-53 21 -97 58h423q-43 -37 -97 -58q-51 -22 -115 -22q-63 0 -114 22zM1649 1161l411 415q79 -103 79 -213q0 -57 -18 -108q-17 -49 -53 -94
h-419zM1588 1151q-19 22 -33.5 46t-24.5 51q-11 26 -15.5 55t-4.5 60q0 57 18 108q8 26 21.5 48.5t30.5 44.5h419zM1939 1658q55 -23 95 -60h-422q22 20 46.5 34.5t50.5 25.5q27 11 55.5 16t59.5 5q62 0 115 -21zM257 396q-6 8 -10 22q-2 6 -3 12t-1 13q0 6 1 12t3 12
q3 14 10 23q7 12 14 19t19 14q5 3 10.5 5.5t11.5 4.5q12 3 25 3q10 0 19 -2t18 -5q8 -5 15.5 -9.5t13.5 -11.5l-4 -4q0 -1 -1 -1q-1 -1 -2 -1q-2 -2 -4 -2h-5q-6 0 -9 2q-5 3 -9.5 5.5t-9.5 4.5q-11 3 -22 3q-15 0 -28 -5q-15 -7 -23 -16q-9 -8 -16 -23q-6 -14 -6 -28
q0 -10 3 -19t7 -18q3 -5 6 -8t6 -7q4 -3 7.5 -6t7.5 -5q5 -2 9 -3.5t9 -3.5q9 -3 19 -3q12 0 24 3q6 2 11.5 4.5t10.5 5.5v38h-14q-2 0 -3.5 0.5t-3.5 0.5q-2 2 -6 4q-1 2 -2 3t-1 3q-2 4 -2 7v2h51v-71q-5 -7 -14 -11q-8 -4 -15 -5q-5 -2 -9 -2.5t-9 -1.5h-19q-13 0 -25 3
q-11 3 -22 9q-12 7 -19 15q-5 5 -8 9.5t-6 9.5zM469 513v-59h72v-20h-72v-62h90v-20h-111v182h111v-21h-90zM639 352v161h-58v21h137v-21h-58v-161h-21zM853 513v-63h76v-20h-76v-78h-21v182h111v-21h-90zM998 534v-112q0 -12 4 -20q2 -5 5 -9l6 -8l8 -6t9 -5q9 -4 20 -4
q12 0 20 4q5 2 9 5l8 6q6 6 11 17q5 10 5 20v112h20v-112q0 -16 -6 -28q-3 -7 -6.5 -12.5t-8.5 -10.5q-9 -9 -23 -16q-15 -5 -29 -5q-13 0 -28 5q-15 7 -23 16q-9 8 -16 23q-3 6 -4 13t-1 15v112h20zM1182 534v-162h81v-20h-102v182h21zM1306 534v-162h81v-20h-101v182h20z
M1553 352l-79 182h11q4 0 10 -3l3.5 -3.5t2.5 -4.5l60 -136q0 -2 0.5 -3t0.5 -3q1 -3 1 -6v6q2 4 2 6q8 17 15 34t15 34t15 34t15 34q2 4 6 8q6 3 10 3h11q-10 -23 -20 -45.5t-20 -45.5t-19.5 -45.5t-19.5 -45.5h-20zM1688 513v-59h73v-20h-73v-62h90v-20h-111v182h111v-21
h-90zM1914 437q-8 -5 -16 -6l59 -79h-12q-9 0 -12 2q-6 3 -9 8l-51 68h-31v-78h-21v182h65q12 0 20 -4q9 -4 17 -11q7 -8 11 -17q4 -8 4 -20q0 -9 -3 -18q-4 -9 -8 -15q-3 -4 -6 -6.5t-7 -5.5zM1886 450q6 0 12 3q3 1 5.5 2.5t4.5 3.5q4 4 7 10l2 6t1 7q0 3 -1 6l-2 6
q-3 6 -7 10t-10 7q-8 2 -12 2h-44v-63h44zM2053 378q6 4 9 11q4 5 4 14t-3 15t-9 9q-4 4 -12 7q-4 1 -14 5q-5 2 -9.5 4t-9.5 4q-11 3 -16 9q-6 4 -11 13q-3 7 -3 20q0 11 5 19q3 9 12 15q4 3 8 5.5t9 4.5q9 3 19 3q5 0 15 -2q5 -2 13 -6q3 -2 5.5 -4t4.5 -4q3 -2 5 -4l4 -4
l-5 -4q-4 -4 -10 -4q-4 0 -10 2q-2 2 -3 2.5t-2 1.5q-2 1 -2.5 1.5t-2.5 1.5q-2 0 -3 0.5t-3 0.5q-2 1 -6 1q-5 0 -13 -2q-4 -1 -10 -5q-6 -6 -7 -9q-3 -5 -3 -10q0 -8 2 -11q1 -4 6 -7q6 -4 11 -6q4 -2 8 -3t9 -3q3 -2 9 -4t9 -4q6 -2 9 -4q2 -1 3.5 -2t3.5 -2q8 -8 14 -17
q2 -5 3 -10.5t1 -12.5q0 -10 -5 -22q-4 -8 -13 -17q-8 -7 -20 -10q-9 -4 -23 -4q-26 0 -40 14q-3 2 -5.5 5t-4.5 5q-4 6 -4 8l4 2q2 2 4 2q1 1 4 1q8 0 13 -5q6 -7 14 -9q7 -3 15 -3q4 0 7 0.5t7 1.5q7 1 13 6zM2148 534v-182h-21v182h21zM2218 377q-13 12 -20 29
q-8 19 -8 37q0 6 1 12t3 12q3 13 9 23q4 5 7 9.5t8 9.5q5 4 9.5 7.5t9.5 6.5q11 7 22 10q12 3 25 3t25 -3q6 -2 11.5 -4.5t10.5 -5.5t9.5 -6.5t9.5 -7.5q5 -5 8 -9.5t6 -9.5t5.5 -11t4.5 -12q3 -12 3 -24q0 -20 -7 -37q-8 -17 -20 -29q-14 -14 -30 -20q-15 -7 -36 -7
q-20 0 -37 7q-17 6 -29 20zM2217 471q-6 -14 -6 -28q0 -10 3 -19t7 -18q2 -5 5 -8t6 -7q4 -3 7.5 -6t7.5 -5q5 -2 9 -3.5t9 -3.5q7 -3 19 -3q10 0 19 3q5 2 9 3.5t9 3.5q7 4 14 11t11 15q5 7 8 18q2 5 2 9.5v9.5q0 14 -6 28q-5 14 -15 23q-8 9 -23 16q-13 5 -28 5
q-8 0 -14.5 -1.5t-14.5 -3.5q-14 -7 -23 -16t-15 -23zM2431 352h-20v182h14q12 0 16 -7l94 -132q2 -2 2 -3t1 -3t1 -5v150h21v-182h-19l-107 150l-1 2q-1 1 -1 3t-1 3v-158zM2713 513v-63h76v-20h-76v-78h-20v182h111v-21h-91zM2931 449q-2 -4 -5 -6.5t-7 -5.5q-8 -5 -16 -6
l59 -79h-12q-9 0 -13 2q-5 3 -8 8l-50 68h-33v-78h-20v182h64q12 0 21 -4t16 -11t12 -17q2 -5 3 -10t1 -10q0 -9 -3 -18q-4 -10 -9 -15zM2903 453q3 1 5.5 2.5t4.5 3.5q5 5 6 10q3 6 3 13q0 6 -3 12q-1 5 -6 10q-4 4 -10 7q-8 2 -13 2h-44v-63h44q7 0 13 3zM3140 377
q-14 -14 -30 -20q-15 -7 -37 -7q-9 0 -18.5 1.5t-17.5 5.5q-17 6 -29 20q-7 6 -11.5 13.5t-8.5 15.5q-8 19 -8 37q0 6 1 12t3 12q3 14 10 23q4 9 14 19q7 7 19 14q5 3 10.5 5.5t11.5 4.5q12 3 24 3q14 0 26 -3q6 -2 11 -4.5t10 -5.5q6 -3 10.5 -6.5t9.5 -7.5q5 -5 8 -9.5
t6 -9.5q6 -10 9 -23q4 -11 4 -24q0 -21 -8 -37q-6 -16 -19 -29zM3073 370q11 0 20 3q5 2 9 3.5t8 3.5q5 2 8 5t7 6q7 7 11 15q5 7 8 18q2 5 2 9.5v9.5q0 13 -5 28q-7 15 -16 23q-9 9 -23 16q-15 5 -29 5q-13 0 -28 -5q-13 -6 -22 -16q-9 -8 -16 -23q-6 -14 -6 -28
q0 -5 0.5 -9.5t1.5 -9.5q2 -5 4 -9t4 -9t5 -8l7 -7q6 -7 14 -11q4 -2 8 -3.5t9 -3.5q9 -3 19 -3zM3372 531q4 3 9 3h17v-182h-20v151q0 -1 -1 -1q0 -2 -1 -3v-3q0 -1 -1 -2q-5 -11 -9 -20.5t-8 -19.5q-5 -10 -9 -18.5t-7 -17.5q-4 -9 -8 -17.5t-7 -16.5q-4 -8 -7.5 -16
t-7.5 -16h-21q-8 17 -15.5 35t-15.5 35l-16 36l-16 36q-1 1 -1 4q-1 2 -1 4v-150h-20v182h16q4 0 9 -3q6 -3 6 -8l63 -141q0 -3 1 -4t1 -4q0 3 2 11q2 2 2.5 4.5t2.5 5.5l57 128q1 5 6 8zM251 280h210v-23q0 -10 -1 -14q-3 -8 -6 -12l-141 -189l4 2l4 2q1 0 1.5 0.5t2.5 0.5
h135v-50h-217v16q0 5 2 13t4 13q2 3 3 5.5t3 5.5q5 5 8 11l125 169h-137v50zM496 280h182v-50h-130v-65h105v-50h-105v-68h130v-50h-182v283zM906 230h-83v-233h-52v233h-83v50h218v-50zM1034 280l123 -283h-32q-11 0 -20 6q-7 5 -14 15l-16 39h-129l-17 -39q-2 -5 -5 -8
q-2 -3 -8 -7t-10 -4q-3 -2 -10 -2h-33l124 283h47zM1052 108l-37 86q-2 3 -2.5 6t-1.5 5q0 6 -1 8q0 -5 -1 -8q0 -2 -1 -5l-2 -6l-37 -86h83zM1169 280h181v-50h-130v-71h109v-50h-109v-112h-51v283zM1637 211q5 -8 8.5 -16.5t5.5 -18.5q3 -8 4 -18t1 -20t-1 -19.5t-4 -18.5
q-4 -17 -14 -35q-9 -15 -23 -29q-6 -6 -13.5 -11.5t-15.5 -10.5t-16.5 -8.5t-17.5 -6.5q-10 -2 -19 -3.5t-20 -1.5q-29 0 -56 11q-27 12 -46 31q-10 11 -18 22t-13 24q-11 25 -11 56q0 10 1 20t3 18q5 17 15 35q5 8 10.5 15t12.5 15q14 12 29 22q17 9 34 15q17 4 39 4t39 -4
q17 -6 34 -15q8 -5 15.5 -10.5t13.5 -11.5q7 -8 12.5 -15t10.5 -15zM1598 102q3 9 5 18t2 18q0 17 -7 36q-4 9 -9 16t-11 14q-15 14 -30 19q-18 8 -36 8t-36 -8q-16 -6 -29 -19q-12 -12 -21 -30q-7 -19 -7 -36q0 -9 2 -18t5 -18q5 -8 9.5 -15.5t11.5 -13.5q12 -13 29 -20
q15 -7 36 -7t36 7t30 20q12 12 20 29zM1893 280h52v-283h-48l-135 189q-3 2 -4 7q-2 2 -3 3.5t-2 3.5t-2 3.5t-2 3.5l-3 6v-216h-52v283h46q10 0 16 -3q8 -3 11 -9q15 -20 30 -41t29 -42l30 -42t29 -41q4 -6 6 -12q2 -8 2 -9v199zM1969 280h218v-50h-83v-233h-52v233h-83v50
zM2366 135q8 -8 13 -23q5 -13 5 -28q0 -18 -8 -36q-9 -17 -22 -29q-15 -12 -33 -18q-9 -3 -18.5 -5t-18.5 -2q-11 0 -20.5 2t-19.5 5q-9 5 -16.5 9.5t-15.5 11.5q-5 5 -8 9t-6 9t-4.5 8.5t-3.5 7.5q2 1 3.5 2t3.5 2t3.5 2t3.5 2q6 2 8 3q2 0 4.5 0.5t4.5 0.5q6 0 12 -3
q8 -2 13 -4q9 -7 17 -10q8 -5 21 -5q3 0 7 0.5t9 1.5q4 2 8 3.5t7 3.5q9 6 12 13q6 7 6 17q0 7 -5 14q-4 5 -12 10q-6 4 -16 7q-5 2 -9 4t-9 4q-13 4 -29 11q-8 3 -14 7t-12 9q-12 10 -17 22q-7 13 -7 32q0 10 2 18t5 16q5 7 9.5 12.5t10.5 10.5q13 10 29 16q13 4 32 4
q13 0 24 -4q6 -2 11.5 -4.5t10.5 -5.5t9.5 -7t9.5 -8q10 -8 15 -16l-10 -8q-7 -5 -14 -8q-5 -2 -8 -2h-7h-3h-4q-6 2 -10 4q-6 2 -8 4q-2 0 -4 1t-4 1q-6 2 -8 2q-4 0 -7 -0.5t-7 -1.5q-5 -1 -11 -5q-6 -3 -9 -8q-2 -3 -2 -11t2 -11t4.5 -5t4.5 -4q6 -4 16 -7q5 -2 11 -4
t13 -4l9 -3q18 -6 29 -14q14 -9 22 -18zM2453 47q5 -5 6 -10q3 -5 3 -12q0 -8 -3 -12q-1 -5 -6 -10q-4 -4 -10 -6q-6 -3 -13 -3t-11 3q-7 2 -11 6t-7 10q-2 6 -2 12t2 12q3 6 7 10t11 6q4 3 11 3t13 -3q6 -2 10 -6zM2560 204q-13 -13 -20 -30q-8 -18 -8 -36q0 -17 8 -36
q4 -8 8.5 -15.5t11.5 -13.5t14 -11t16 -9q15 -7 35 -7q8 0 15 1t13 3q14 5 25 13q6 2 9 4q3 1 10 1q10 0 16 -3q8 -4 12 -8l11 -11q-12 -14 -23 -22q-7 -5 -13.5 -8.5t-13.5 -7.5q-13 -7 -30 -10q-12 -4 -31 -4q-28 0 -56 11q-27 12 -46 31q-19 20 -31 46q-11 28 -11 56
q0 20 5 38q2 10 5.5 18.5t8.5 16.5q10 15 23 30q7 6 14 11.5t16 10.5q16 9 34 15q17 4 38 4q8 0 16 -0.5t15 -2.5q8 -2 15 -4.5t15 -5.5q7 -4 13.5 -8t13.5 -9q13 -10 23 -21l-11 -12q-4 -4 -12 -8q-8 -3 -16 -3q-10 0 -19 6q-13 8 -25 12q-13 5 -28 5q-17 0 -35 -8
q-9 -3 -16 -8t-14 -11zM3025 211q5 -8 8.5 -16.5t5.5 -18.5q3 -8 4 -18t1 -20t-1 -19.5t-4 -18.5q-4 -17 -14 -35q-9 -15 -23 -29q-7 -6 -14 -11.5t-16 -10.5q-8 -5 -16 -8.5t-18 -6.5q-20 -5 -38 -5q-29 0 -57 11q-13 6 -24.5 13.5t-20.5 17.5q-10 11 -18 22t-13 24
q-12 27 -12 56q0 20 5 38q5 17 15 35q5 8 10.5 15t12.5 15q6 6 13.5 11.5t15.5 10.5q17 9 34 15q17 4 39 4t38 -4q18 -6 34 -15q9 -5 16 -10.5t14 -11.5q7 -8 12.5 -15t10.5 -15zM2986 102q3 9 5 18t2 18q0 17 -7 36q-9 17 -20 30q-15 14 -30 19q-18 8 -36 8t-36 -8
q-15 -5 -30 -19q-6 -7 -11 -14t-9 -16q-7 -15 -7 -36q0 -19 7 -36t20 -29q15 -13 30 -20t36 -7t36 7t30 20q6 6 10.5 13.5t9.5 15.5zM3336 278q6 2 10 2h52v-283h-52v207q-3 -5 -4 -14q-2 -4 -2.5 -7.5t-2.5 -6.5q-9 -23 -18 -45t-19 -44q-9 -23 -18 -45t-19 -45h-47
l-74 179q-2 3 -3 6t-2 8q-1 3 -2 6.5t-2 5.5v-205h-52v283h51q4 0 12 -2q6 -2 9 -4q5 -3 8 -8q2 -2 6 -8q8 -22 16.5 -43.5t17.5 -42.5q8 -22 17 -43t17 -43q2 -2 2 -5q0 -2 0.5 -3t0.5 -3q1 -2 1 -6v-3q0 2 1 3q0 4 1 6q0 4 1 6q0 2 0.5 3t0.5 2l10 20l59 152q1 4 6 9
q2 3 8 7q4 2 10 4z" />
    <glyph glyph-name="asciitilde" unicode="~" horiz-adv-x="1079" 
d="M173 332q0 19 13.5 45.5t35.5 56t50 60t56 57.5t54 48t45 33q0 -1 3 -1q6 0 25 -15t46 -41.5t60 -61.5t68 -74q22 24 46 44.5t47.5 41t45.5 41.5t42 46l118 -97q10 -7 10 -22q0 -40 -29.5 -80t-71.5 -71.5t-89 -51t-82 -19.5q-40 0 -70 15t-51 35t-35 41.5t-21 34.5
q-9 -9 -36.5 -30t-63 -43.5t-72.5 -39.5t-64 -17q-13 0 -27 5.5t-26 14.5t-19.5 20.5t-7.5 24.5z" />
    <glyph glyph-name="quotesingle" unicode="'" horiz-adv-x="467" 
d="M301 929q-19 -15 -40.5 -23t-40.5 -8q-15 0 -25 6t-11 17q14 39 39.5 95t54 114.5t56.5 112.5t47 90q9 17 24 31.5t34 25t39 16.5t40 6q34 0 61 -21t27 -61q0 -30 -15.5 -65t-40.5 -72.5t-57 -75t-66 -72t-67 -64.5t-59 -52z" />
    <glyph glyph-name="thorn" unicode="&#xfe;" horiz-adv-x="1034" 
d="M444 1588l167 -79q-24 -90 -52.5 -176.5t-60 -172t-66 -171.5t-69.5 -176q74 47 139 53.5t117 -16.5t88.5 -70t54.5 -106.5t14.5 -126.5t-31.5 -131q-18 -41 -45.5 -82.5t-59 -77.5t-66.5 -63t-68 -39q58 4 130.5 44.5t149 105t153 147t142.5 170.5q38 -5 57.5 -35.5
t6 -84t-66.5 -129.5t-159 -172q-56 -50 -125.5 -89.5t-146.5 -67t-158 -41.5t-159 -13.5t-149.5 17.5t-130.5 51q-38 -99 -79 -187t-86 -169.5t-93 -160t-98 -158.5l-189 54zM465 430q17 32 21.5 63.5t-5.5 57.5t-35 43.5t-66 21.5q-40 4 -64.5 -6.5t-37.5 -22.5l-117 -274
q34 -18 75.5 -21.5t83 10.5t79.5 45.5t66 82.5z" />
    <glyph glyph-name="one.001" horiz-adv-x="1298" 
d="M256 688q0 17 9 30.5t22.5 23t29.5 15t30 6.5q122 8 230 45.5t207.5 93t193 123t186.5 135.5q20 -7 20 -31q0 -23 5.5 -45.5t12.5 -44.5t12.5 -43.5t5.5 -42.5q0 -20 -19 -48t-49 -59.5t-66.5 -64.5t-70.5 -64t-61.5 -57t-40.5 -43q-21 -28 -42 -60.5t-40.5 -67
t-35.5 -69.5t-27 -67q9 1 18 1.5t18 0.5q78 0 136 -36t105 -101q4 -6 9 -17t10 -25t8.5 -29.5t3.5 -28.5t-4.5 -20.5t-16.5 -7.5q-16 0 -34 7t-37.5 15t-40.5 15t-42 7q-104 0 -196.5 -12.5t-182 -28t-181.5 -28t-196 -12.5q-17 0 -32.5 9t-29 23t-24.5 31t-18 34
q0 30 22 51.5t57 37.5t78 26.5t84 18t76.5 12.5t54.5 10q26 6 46.5 10.5t35.5 10t24 13.5t13 21q1 5 8.5 22.5t18.5 41.5t24 52.5t25.5 55t23.5 48t18 32.5q-15 -20 -47.5 -32.5t-71.5 -19t-78.5 -8.5t-67.5 -2q-11 0 -32 17t-43 40t-38 46t-16 34z" />
    <glyph glyph-name="two.001" horiz-adv-x="1255" 
d="M1151 167q-55 -10 -122.5 -26.5t-141 -36t-149 -39t-146 -36t-132 -26.5t-107.5 -10q-24 0 -53 16t-60.5 41t-63 56.5t-59 62.5t-49.5 58t-34 44q-2 2 -2 5q0 7 8.5 14t20.5 13.5t24 12t20 9.5q87 44 166.5 99.5t156 114.5t153.5 119t160 113q64 42 94.5 75.5t30.5 59.5
t-31 41t-90 15q-23 0 -52.5 -3t-61.5 -10t-63 -18t-57 -26q-12 10 -30.5 31.5t-36.5 45.5t-31 45t-13 29q0 26 42.5 50.5t110 44t151 31t166.5 11.5q57 0 107 -10.5t89 -36.5t63.5 -70.5t30.5 -112.5q0 -58 -40 -120t-103 -124t-141 -122t-154.5 -114t-143.5 -100t-107 -80
q-5 -4 -5 -13q0 -13 13 -21.5t25 -8.5q5 0 7 1q73 19 153 33t162.5 24t164.5 15t158 5q33 0 64.5 -2.5t55.5 -9t38.5 -16.5t14.5 -25q0 -13 -15.5 -31t-40 -35.5t-55 -32t-60.5 -19.5z" />
    <glyph glyph-name="three.001" horiz-adv-x="1195" 
d="M763 703q-50 12 -96.5 17t-91.5 5q-87 0 -161.5 -14t-137.5 -28q-3 -1 -8 -1q-15 0 -27.5 12t-22 28t-16.5 32.5t-11 26.5q-4 8 -6 20t-1 24t7 23q22 10 77 24t131 26.5t167.5 21.5t186.5 9q62 0 118.5 -17.5t99.5 -41t69 -48t29 -38.5q6 -31 3 -59q-5 -54 -38 -98
t-80.5 -79.5t-103 -61.5t-106 -43.5t-89 -26.5t-51.5 -10h7q26 0 68.5 -8.5t90 -25t95 -39.5t85 -52t59.5 -63.5t18 -73.5q-1 -4 -1 -8t-2 -8q-21 -84 -70 -140t-116 -92t-147 -55t-162.5 -27t-162 -9t-146.5 -1q-16 0 -39 3.5t-48.5 11t-50 18.5t-43.5 26.5t-30 35.5t-9 45
q0 7 3 16q169 1 304 17t230 41.5t146.5 56.5t54.5 62q4 41 -82.5 74.5t-276.5 45.5q-27 2 -60.5 15.5t-62 35t-47 50.5t-15.5 62q1 13 11 27t24.5 25.5t32.5 19t37 7.5q45 0 95.5 13.5t100.5 34t96 45t82.5 47t60.5 40t29 24.5z" />
    <glyph glyph-name="four.001" horiz-adv-x="1081" 
d="M235 -389q-12 9 -33.5 19.5t-40.5 25.5t-29.5 35.5t-0.5 49.5q18 52 47.5 104.5t66 104t76.5 102t79 99.5t74 96t61 92q-5 1 -34.5 -5.5t-70.5 -14.5t-86 -15.5t-80 -7.5q-61 -1 -113.5 22.5t-89 59t-52.5 77.5t-3 78q20 55 59.5 106.5t90.5 99.5t111 92.5t121 85
t120.5 77t109.5 69.5q34 22 67 28.5t70 -2.5q4 -1 7 -4t7 -5q9 -7 2 -15q-43 -54 -92.5 -109t-101.5 -110.5t-104 -109.5t-100 -106q-14 -15 -23.5 -30t-10.5 -26.5t8 -17t31 -2.5q64 8 131 25t130 28q14 25 40 64t54 79.5t52.5 76.5t36.5 55q55 -24 85.5 -62t43.5 -82.5
t11 -91t-12 -88.5t-24.5 -75.5t-27.5 -50.5q-46 -60 -96.5 -129.5t-102.5 -142t-103.5 -144.5t-99.5 -136.5t-90.5 -118.5t-77 -91t-58.5 -53.5t-35 -5.5z" />
    <glyph glyph-name="five.001" horiz-adv-x="1140" 
d="M155 507l2 6q5 17 17.5 49t28 71t32.5 80.5t32 77t25.5 61t13.5 33.5q18 48 52.5 80.5t79 53t96.5 31t105.5 15t106 4.5h97.5q30 0 53 -10.5t40.5 -27.5t29 -40t17.5 -48q-15 -1 -28 -1t-29 -0.5t-39.5 -1t-59.5 -2.5q-58 -3 -110 -9.5t-94 -19.5t-72.5 -34t-43.5 -52
q-9 -22 -24.5 -53t-30 -63t-25 -61t-10.5 -46q24 11 63 26t85 28t95.5 22.5t95.5 11t84.5 -7.5t62.5 -33q33 -33 51 -78t20.5 -95.5t-9.5 -104.5t-38 -105.5t-66.5 -98.5t-93.5 -83q-26 -18 -76.5 -37.5t-114 -38.5t-135.5 -35.5t-140 -27t-127 -13.5t-98 5q-3 1 -8.5 10.5
t-9.5 22.5t-4.5 25t7.5 17q7 11 41 24.5t85 30t112.5 35.5t124.5 41t120.5 48t100 56.5t64.5 65t12 74.5q-6 23 -21 37t-35.5 21t-44 7t-44.5 -4q1 0 -21 -5.5t-58.5 -16.5t-85 -28.5t-100.5 -41.5z" />
    <glyph glyph-name="six.001" horiz-adv-x="977" 
d="M668 772q48 -19 89.5 -55.5t72.5 -83t49 -98.5t18 -101q0 -40 -11.5 -82.5t-37.5 -88.5t-69.5 -94.5t-106.5 -100.5q-57 -46 -130 -60t-154 -14q-88 0 -147.5 22.5t-95.5 61t-51.5 90t-15.5 108.5q0 98 36.5 187.5t98.5 170t143.5 152.5t171.5 136t182.5 120.5
t175.5 105.5q19 0 44.5 -7t48.5 -20t38.5 -31.5t15.5 -40.5q-54 -26 -102 -57.5t-92.5 -67.5t-86.5 -74.5t-84 -77.5zM367 291q0 -23 10.5 -37t39.5 -14q25 0 65.5 10t81 34.5t74.5 65t47 101.5q1 5 1 8.5v8.5q0 28 -11 55.5t-30 49.5t-44.5 36t-54.5 14q-25 0 -48 -22
t-43 -56t-36.5 -74.5t-28 -77.5t-17.5 -65t-6 -37z" />
    <glyph glyph-name="seven.001" horiz-adv-x="1146" 
d="M271 -167q-7 -13 -23.5 -14.5t-38 5t-44 19t-40.5 26.5t-28 28.5t-6 25.5q43 87 84 168q18 34 36.5 70t37.5 70.5t37 64.5t33 52q-27 2 -54 1t-52 -2.5t-47 -2.5t-38 -1q-8 11 -10 33.5t2.5 47t16.5 46t33 30.5q60 24 124.5 30t124.5 4h19.5t10 1.5t5 5t4.5 8.5
q5 9 26 41.5t47.5 76.5t54 94t45.5 95q-17 -6 -46.5 -14.5t-60 -19t-58 -23t-40.5 -25.5q-37 25 -61.5 62.5t-38.5 81.5t-18 90.5t1 88.5q66 14 121 19.5t105.5 7.5t99 5.5t102.5 13.5t116 31t139 58q8 4 29.5 11t45.5 14.5t45.5 13.5t29.5 6q18 -19 27.5 -49t14 -62
t5 -60.5t0.5 -44.5q0 -1 -17.5 -18.5t-44.5 -44t-59.5 -58t-62 -60.5t-53 -52.5t-31.5 -32.5q-9 -10 -27 -32.5t-39.5 -50.5t-44 -58.5t-40.5 -56.5t-29 -43.5t-9 -20.5q2 -4 17 -4t37 2t47.5 5t47.5 5t37.5 2t17.5 -4q19 -18 13 -40t-23 -44t-38.5 -42.5t-32.5 -35.5
q-36 0 -65 -1t-57 -3t-57 -4.5t-65 -5.5q-19 -9 -49 -46t-64.5 -89t-70 -112.5t-67 -116.5t-55.5 -100.5t-34 -65.5z" />
    <glyph glyph-name="eight.001" horiz-adv-x="1222" 
d="M377 716q0 64 23.5 115.5t63 91.5t91 68.5t108 47t114 27t108.5 8.5q54 0 96 -17.5t71 -49t44 -76t15 -97.5q0 -33 -12 -60t-29.5 -51t-38 -47.5t-36.5 -50.5q36 -51 58 -106.5t22 -112.5q0 -41 -12.5 -81t-41.5 -75q-38 -46 -98 -101t-135.5 -102.5t-162 -79.5
t-177.5 -32q-39 0 -78.5 7t-79.5 23q-43 17 -89 48t-84.5 68.5t-63 77.5t-24.5 76q0 49 19 91t50.5 78t71.5 67t81.5 58.5t81 52t69.5 47.5q1 1 1 4q0 6 -4 16t-9 21.5t-9 23.5t-4 22zM480 387q-16 -14 -44 -41t-55.5 -57t-47.5 -57.5t-20 -41.5q0 -7 6.5 -16t17 -17.5
t23 -14t24.5 -5.5q139 0 259.5 46.5t218.5 151.5q23 24 43 56.5t20 61.5q0 12 -5.5 24t-17.5 21.5t-31.5 16t-47.5 6.5q-73 0 -135.5 -21t-108.5 -46q-55 -30 -99 -67zM956 853q0 15 -17.5 26t-35.5 11q-7 0 -26.5 -8t-45 -21t-53.5 -29.5t-51.5 -33t-38.5 -32t-15 -25.5
q0 -11 21 -11q18 0 44 6.5t55.5 17t58.5 24t52 27t37.5 26t14.5 22.5z" />
    <glyph glyph-name="nine.001" horiz-adv-x="1314" 
d="M1134 617q0 -76 -29 -141.5t-72 -122.5t-91 -105.5t-87 -90.5q-24 -25 -70 -68.5t-107.5 -97t-134 -113.5t-149 -118.5t-153 -112.5t-145.5 -94.5t-127 -65t-97 -24.5q-26 0 -57 4.5t-58 16.5t-45.5 33.5t-18.5 55.5q0 7 4 11t10 6t12.5 3t12.5 3q17 7 59 34t99 68
t125 92.5t137 107.5t135.5 113t120.5 108.5t90.5 94t47.5 70.5q-48 3 -90.5 25t-78.5 54.5t-64 71.5t-47.5 77.5t-30 71.5t-10.5 54q0 67 22 123.5t59.5 102t86.5 80.5t102.5 58t108 35t103.5 12q61 0 117 -19.5t103 -52t85.5 -76t65.5 -91.5t41.5 -97.5t14.5 -95.5z
M913 746q0 12 -17 33.5t-39.5 42.5t-46 36.5t-36.5 15.5q-34 0 -79 -19.5t-85.5 -51.5t-68.5 -72t-28 -81q0 -19 8 -44.5t22 -48.5t33 -39t42 -16q58 0 111.5 13t94.5 41.5t65 75t24 114.5z" />
    <glyph glyph-name="B" unicode="B" horiz-adv-x="1424" 
d="M328 1136l-92 160q154 76 326 115t346 39q73 0 139 -16.5t114 -52.5t74.5 -94t22.5 -142q-3 -47 -26.5 -91.5t-58.5 -82.5t-77 -69t-81 -51q79 -8 147 -28t117 -56t75.5 -88.5t22.5 -124.5q-5 -85 -44.5 -157.5t-103.5 -134t-146.5 -112t-172.5 -90.5t-182 -70.5
t-175 -51.5t-151.5 -33.5t-111.5 -16.5q-61 -6 -121 -11.5t-112.5 -6.5t-94 5.5t-65 24.5t-25.5 50t24 82q2 5 17.5 42.5t40.5 98t57.5 140t68 167.5t72 180.5t70 179t61 163t45.5 133.5zM230 64q84 11 177.5 32t185.5 51.5t176 71t149 90t105 108t44 124.5q2 39 -11 66
t-36.5 43t-55 20.5t-66.5 -1.5q-47 -9 -109.5 -25.5t-131 -38t-139 -45t-133.5 -45.5zM463 825q35 9 83.5 23.5t100 34t102.5 43.5t92 53t67.5 63t29.5 72q2 27 -22.5 35t-64.5 3t-89 -18t-94.5 -28t-82.5 -28t-52 -17z" />
    <glyph glyph-name="C" unicode="C" horiz-adv-x="1356" 
d="M662 -29q-27 0 -71 14.5t-97 40.5t-112 60.5t-116.5 74.5t-109.5 83.5t-92 86.5t-63.5 83.5t-23.5 75.5q0 106 40.5 218.5t112 219t170 201t215 165.5t247 112.5t264.5 41.5q58 0 102.5 -19t75 -52.5t46 -79.5t15.5 -100q0 -27 -9.5 -51t-25 -44.5t-35 -38t-39.5 -31.5
q-48 -33 -109 -57l-172 211q-60 -16 -123 -54.5t-122.5 -92.5t-112.5 -119.5t-92.5 -137t-62.5 -144.5t-23 -141q0 -25 18.5 -59.5t48 -71.5t68 -73t79 -65t79 -46.5t69.5 -17.5q18 0 55.5 18.5t88 48.5t110 68t120 78.5t119 78.5t108 68t85.5 48.5t51 18.5q22 0 22 -23
q0 -8 -5 -26q-11 -39 -42 -84t-75.5 -92.5t-100 -95t-116.5 -91.5t-124.5 -82t-123.5 -66t-114 -44t-97 -16z" />
    <glyph glyph-name="D" unicode="D" horiz-adv-x="1207" 
d="M128 1082q-25 7 -41 20t-25.5 30.5t-13.5 38.5t-4 42t4.5 42.5t16 40.5t32 34.5t52.5 26.5q18 6 24 21t10 32t11 31t25 18q45 9 91.5 16t93.5 7q19 0 37.5 -1t37.5 -5l3 -68q77 8 157 15q34 3 71.5 5.5t76.5 5t78 3.5t75 1q84 0 160 -14.5t134 -49t91.5 -93t32.5 -147.5
q-2 -126 -49.5 -244t-127.5 -225.5t-185.5 -202.5t-223.5 -174.5t-242 -143t-240.5 -108t-218.5 -68t-176 -23.5q-24 0 -40.5 9t-28.5 26.5t-21.5 43t-19.5 57.5q29 12 36.5 14.5t10.5 2.5t10 1.5t35 10.5q10 10 25.5 54t34 109t38.5 146t40 165t38.5 166.5t34 150.5
t26 116.5t14.5 64.5zM193 195q111 55 210 109.5t185 114.5t158.5 128.5t132 151t105 182.5t76.5 222q-45 23 -108.5 33.5t-134.5 10.5q-56 0 -112 -5.5t-108 -14.5t-96 -21.5t-74 -25.5q-11 -48 -29 -118t-40 -152.5t-46 -170.5l-46.5 -170.5t-41.5 -153.5t-31 -120z" />
    <glyph glyph-name="E" unicode="E" horiz-adv-x="1220" 
d="M-121 139q18 69 40 151.5t47 172t52.5 183.5t55.5 185.5t55.5 178t53.5 161.5t49.5 136.5t43.5 102.5q9 18 48 35t99 32.5t134.5 29t154 24.5t158.5 20t147 15t120 9.5t77 3.5q57 0 91.5 -23.5t34.5 -79.5v-9q-177 -48 -349.5 -93t-351.5 -74q-22 -3 -34.5 -9.5
t-20 -16.5t-12 -24.5t-9.5 -35.5q-9 -39 -19 -68.5t-19.5 -56.5t-19.5 -56t-20 -68q28 2 72.5 9t92.5 14.5t93.5 13.5t76.5 6q42 0 69 -11t43 -30t22 -45t6 -55v-13q-64 -20 -117 -32.5t-104 -21.5t-103 -16.5t-114 -19.5q-41 -8 -62.5 -11.5t-33 -10.5t-18.5 -21.5
t-19 -45.5q-23 -56 -45.5 -116t-43.5 -118t-38.5 -111.5t-30.5 -96.5q70 7 145.5 23.5t154.5 37t159 42.5t159 40t155 29.5t146 11.5q35 0 49 -16t14 -39q0 -17 -4 -33t-9 -33q-82 -27 -167.5 -60.5t-174 -69t-180.5 -70t-186 -64.5q-27 -9 -84.5 -21t-128 -24t-146 -22.5
t-138.5 -16.5z" />
    <glyph glyph-name="F" unicode="F" horiz-adv-x="1019" 
d="M530 1172q-4 -16 -17.5 -52t-29.5 -82.5t-32 -99t-26 -101.5q51 22 111 41.5t120.5 30.5t118 12t104 -14.5t78 -49t39.5 -91.5q-81 -23 -178.5 -52t-192.5 -63t-179.5 -72t-140.5 -79q-16 -54 -37 -110t-44.5 -112.5t-46.5 -111.5t-44 -108q-14 -35 -39.5 -66.5
t-54.5 -72.5q-17 13 -44.5 26.5t-57 28t-55.5 28.5t-41 27q16 68 45.5 157.5t64.5 192.5t73 217t71.5 231t59 234t36.5 227q4 38 21.5 62t61.5 35q102 25 199.5 47.5t193.5 46t192.5 49t197.5 57.5q25 8 47 6t40.5 -10t34.5 -21.5t30 -29.5q25 -28 43 -62t41 -70
q-197 -57 -385.5 -113t-377.5 -113z" />
    <glyph glyph-name="G" unicode="G" horiz-adv-x="1445" 
d="M567 775q104 32 202 63.5t193.5 56.5t189.5 40.5t191 15.5q40 0 62.5 -9t24.5 -35q2 -21 4 -48t4 -55t3.5 -55t2.5 -49l-101 -13q14 -21 23 -36.5t14.5 -29t7.5 -26.5t2 -29q0 -49 -34.5 -101t-93 -103.5t-135 -101.5t-160.5 -94.5t-170.5 -82t-164 -64.5t-141.5 -42.5
t-103 -15.5q-33 0 -70 19.5t-75.5 50t-76 69t-70.5 76t-60 71t-44 54.5q-26 31 -37 73t-11 93q0 68 13 155.5t40 174t67.5 162t95.5 120.5q58 47 138.5 96.5t175 96t198 87t209 71t208 48t193.5 17.5q24 0 47 -9t45 -30t44 -56t45 -87q-89 -35 -177.5 -62.5t-177 -52.5
t-175 -50.5t-170.5 -57.5t-165 -73t-157 -96q-18 -13 -38.5 -40t-40.5 -63.5t-39 -80t-33.5 -89t-23 -90t-8.5 -83.5q0 -31 16.5 -65t41 -67.5t54.5 -64t58.5 -54t52 -37.5t35.5 -14q23 2 65 15.5t96 34.5t115 48t121.5 57.5t116 62t97.5 62t67.5 57t25.5 47.5q0 12 -3 29.5
t-9 34t-15 28.5t-20 12q-62 0 -109.5 -8.5t-95.5 -22.5t-105 -32t-138 -38q-14 -3 -26 -3q-26 0 -47.5 19t-38 50t-28.5 70t-18 79z" />
    <glyph glyph-name="H" unicode="H" horiz-adv-x="1440" 
d="M443 1568q17 35 34 52t39 17q13 0 42.5 -4t64 -11.5t67 -19t52.5 -25.5q-14 -39 -35.5 -94t-46.5 -119.5t-52.5 -134.5t-52.5 -139.5t-46.5 -134t-35.5 -116.5q95 11 173.5 23.5t153.5 27t154.5 31.5t176.5 37q27 59 63.5 140.5t74.5 169.5t74.5 172.5t62.5 149.5
q24 60 48 89t54 29q9 0 29 -4.5t44 -12.5t50.5 -19.5t47.5 -26t35 -32t14 -36.5q-36 -121 -82 -249t-99 -260t-109.5 -266t-112 -267t-108 -262.5t-96.5 -251.5q-50 0 -88.5 8t-72.5 22.5t-65 35.5t-66 48l234 627q-68 -7 -149 -18.5t-166.5 -26t-170 -30t-159.5 -30.5
l-283 -651q-19 -3 -44.5 1.5t-53.5 14t-56 22.5t-51 28t-38 30t-17 27q-4 20 10.5 76t42 137t65.5 182t83 211.5t93.5 226t97 224.5t93.5 207t83 175z" />
    <glyph glyph-name="I" unicode="I" horiz-adv-x="513" 
d="M452 1525q29 -21 62.5 -39t67 -35t63.5 -33.5t53 -34.5q6 -6 -8.5 -53t-42.5 -122t-67.5 -172t-83.5 -202t-90.5 -211.5t-89 -201t-78 -171.5t-57.5 -122q-11 -23 -29 -47t-40.5 -43.5t-49 -32.5t-55.5 -13q-47 0 -63 19t-16 57q0 32 11 92t30 138.5t45.5 171.5
t57.5 191.5t65 199.5t69.5 194.5t70 176t66.5 145.5t60 102t49 46z" />
    <glyph glyph-name="J" unicode="J" horiz-adv-x="549" 
d="M279 1256q-24 -14 -48.5 -21t-47.5 -9t-44 -1.5t-40 1.5q-27 1 -47.5 7.5t-35.5 16.5t-24.5 22.5t-15.5 25.5q-14 30 -15 66q154 67 318 121.5t337 78.5q37 5 71.5 9.5t60 1.5t40 -16t13.5 -42q-2 -61 -15 -91t-36 -45t-55.5 -22.5t-73.5 -23.5q-14 -46 -34.5 -122.5
t-49 -174t-64.5 -211.5t-82 -235.5t-102 -246t-123 -243t-146.5 -227t-172 -197.5t-199 -154.5t-228.5 -98.5q-32 -9 -73.5 -9t-77.5 10.5t-59 32t-19 57.5q1 10 22 22.5t48.5 25t55 23.5t42.5 18q68 33 117 68.5t89.5 75.5t77.5 84.5t81 96.5q53 63 101.5 143.5t92 172
t82.5 189.5t73.5 195.5t64.5 190.5t55.5 175t47 149t38.5 111z" />
    <glyph glyph-name="K" unicode="K" horiz-adv-x="1542" 
d="M928 971q30 -75 71 -153t91 -154.5t108 -148.5t123.5 -134t137 -112t147.5 -82q24 -10 38 -20t24 -22t17.5 -28.5t16.5 -39.5q-17 -2 -34.5 -3t-34.5 -1q-129 0 -251.5 58t-236 159t-218 237t-197.5 292l-286 -214q-24 -68 -45.5 -144t-42.5 -150t-44.5 -141.5
t-50.5 -118.5t-60.5 -81.5t-75.5 -30.5q-28 0 -64.5 9t-69.5 24.5t-56 37t-23 46.5q0 42 14.5 113t40 162t59.5 198.5t73.5 222.5t81.5 233.5t83.5 231.5t79.5 217.5t70 190.5q27 74 65.5 105t82.5 31q38 0 70 -22t55.5 -50.5t36.5 -56.5t13 -40q0 -25 -10.5 -66.5
t-27.5 -93t-38 -108.5t-42 -112t-39.5 -105t-30.5 -88q36 24 86.5 63.5t110 88t125 102.5t132 107t131 101t122.5 84.5t106.5 58t82.5 21.5q21 0 46.5 -7.5t48 -21.5t38 -33.5t15.5 -42.5q0 -11 -8.5 -23t-22 -24.5t-29 -25t-30.5 -24.5q-146 -117 -290.5 -231t-284.5 -241z
" />
    <glyph glyph-name="L" unicode="L" horiz-adv-x="1177" 
d="M266 266q-2 -3 42.5 1.5t118.5 15t170 25t198 31t200.5 34t178.5 33.5q24 5 45 3t37.5 -12t26 -28.5t9.5 -46.5q0 -20 -7.5 -28t-28.5 -14q-80 -23 -166.5 -51.5t-175 -57t-177 -56.5t-171 -50.5t-157.5 -37.5t-137 -18q-5 0 -11 1.5t-19.5 8.5t-36 21.5t-61 41t-94.5 67
t-136 98.5q12 58 40 138.5t66.5 173t83.5 192.5t91 197.5t89 187.5t77 163.5t56 124.5t26 71q10 55 36 77t60 21.5t72 -19t73 -44t63 -52.5t42 -45q-7 -65 -29 -142.5t-54 -161t-71 -170.5t-81 -171.5t-84.5 -163.5t-81 -147t-70.5 -122.5t-52 -88.5z" />
    <glyph glyph-name="M" unicode="M" horiz-adv-x="1608" 
d="M483 1085q-21 -71 -47.5 -154t-55 -170.5t-57 -176.5t-55.5 -172t-50 -156t-39 -129q-8 -29 -14 -43.5t-24 -14.5q-32 0 -68 17.5t-66 43t-49.5 53t-19.5 48.5q0 84 17 176.5t44.5 189t62.5 196.5t71.5 200t70.5 198.5t60 192.5q7 25 12.5 45t14 33.5t23.5 21t41 9.5
q35 -24 81.5 -74t97 -111.5t101 -126.5t94 -118.5t77 -88t49.5 -34.5q11 6 41.5 32t74.5 65t99 87t115 98.5t122.5 99.5t121.5 90t111.5 70t93.5 40q24 -18 50.5 -38.5t50.5 -44t42 -51t26 -58.5q-30 -62 -68 -148t-79.5 -187t-86 -211.5t-87.5 -220.5t-83.5 -213.5
t-74.5 -191t-60 -153.5t-41 -100q-35 0 -75.5 8.5t-75.5 25t-58 42t-23 60.5q0 36 15 97.5t39 138t55 162t63 169.5q76 197 172 424l-447 -328q-20 0 -51.5 21.5t-69.5 55.5t-79 76.5t-79.5 85t-71.5 80t-54 62.5z" />
    <glyph glyph-name="N" unicode="N" horiz-adv-x="1353" 
d="M1641 1542q-44 -74 -92.5 -167t-98.5 -198t-100 -218t-96.5 -227t-88 -224.5t-74 -210.5t-55 -185.5t-30.5 -149.5q-2 -11 -10.5 -23t-23 -22t-33 -16.5t-40.5 -6.5q-26 0 -55.5 12t-58.5 44q-29 50 -58 135t-56.5 187t-53.5 213.5t-49.5 215t-45.5 190.5t-40 141
q-13 -42 -34 -104t-47.5 -137t-56.5 -157.5t-60.5 -166t-60 -162.5t-55.5 -146.5t-46.5 -119t-32.5 -79.5q-35 9 -62 26.5t-52 39.5t-49 46t-52 46q51 171 116 346t139 348t154.5 342t161.5 327q20 32 45 32q24 0 44 -30q69 -110 120 -228.5t89.5 -241.5t67 -248.5
t52.5 -249.5q32 97 73.5 198.5t88 203t97.5 199t102 187.5q27 48 61.5 96t78 86.5t97 63t118.5 24.5q4 0 13 -4.5t18 -10.5t17.5 -11t13.5 -5z" />
    <glyph glyph-name="O" unicode="O" horiz-adv-x="1447" 
d="M468 -7q-29 0 -66.5 22t-79.5 59t-86 84t-86 98t-79 100.5t-65 91t-44 71t-16 39.5q0 124 28.5 228t79.5 190.5t121.5 156t153 123t174.5 91.5t187 63t190 36.5t183 11.5q51 0 102.5 -26.5t98 -70t86.5 -99t69.5 -113.5t46.5 -113t17 -98q0 -123 -40.5 -240.5
t-111.5 -222.5t-167.5 -193.5t-209.5 -152.5t-236.5 -100t-249.5 -36zM504 200q85 0 176.5 37.5t179 100.5t166.5 144t138.5 167.5t94.5 172.5t35 158q0 29 -25.5 62.5t-61.5 62t-74 47.5t-62 19q-82 -1 -172 -23.5t-176.5 -65t-165.5 -102t-138.5 -134t-94.5 -162.5
t-35 -186q0 -8 14.5 -33t37 -58.5t49.5 -69.5t51 -66.5t41.5 -50.5t21.5 -20z" />
    <glyph glyph-name="P" unicode="P" horiz-adv-x="1222" 
d="M411 1536q8 24 22 39t32 23.5t40 11.5t46 3q19 0 39.5 -0.5t38.5 -6t32.5 -18t22.5 -36.5q77 18 164.5 25.5t173.5 -1t165 -34.5t139.5 -75t96.5 -123.5t36 -179.5q0 -98 -41 -178t-109.5 -144.5t-157.5 -114.5t-185.5 -88t-192.5 -64.5t-179 -44t-145.5 -27t-91.5 -12.5
q-26 -68 -55.5 -144t-59.5 -153t-58 -151.5t-51 -138.5q-5 -15 -16.5 -21t-26 -8t-31 -1t-32.5 1q-38 0 -67.5 8t-49.5 21t-30.5 29t-10.5 32q0 17 4.5 40t16 59t30.5 90.5t48.5 135.5t70 192.5t94.5 263t123 347t155 443.5zM456 751q40 3 107 16.5t144 38.5t156.5 61
t143.5 83.5t104.5 106.5t40.5 130q0 47 -32 72t-81.5 34.5t-110 7t-117 -9.5t-102 -15t-66.5 -10z" />
    <glyph glyph-name="Q" unicode="Q" horiz-adv-x="1447" 
d="M1193 -636q-56 -6 -110 9t-99.5 47t-79 77t-48.5 99q-15 55 -26.5 96.5t-20.5 76t-16.5 64t-15 60t-15 66t-17.5 80.5q-78 -35 -148.5 -50.5t-132.5 -15.5q-72 0 -138 25.5t-123.5 69t-105 101t-81 121.5t-52 131t-18.5 129q0 125 41.5 241t113 216t167 182t202.5 140.5
t219.5 90.5t219.5 32q106 0 201 -34.5t165.5 -108.5t112 -190.5t41.5 -280.5q0 -67 -21 -140t-57 -146t-84.5 -142t-103.5 -126.5t-113.5 -101t-115.5 -65.5q24 -75 45 -137.5t40.5 -120t38 -112.5t39.5 -113.5t44.5 -124.5t51.5 -145zM842 345q48 27 99.5 59.5t100 70.5
t91.5 82t75.5 94t51.5 105.5t19 117.5q0 82 -18 139.5t-50 94t-76 53t-95 16.5q-72 0 -153.5 -28t-162 -75.5t-155 -110t-131 -131.5t-90.5 -140t-34 -136q0 -47 6.5 -103.5t22.5 -105t43.5 -81t69.5 -32.5q53 0 95.5 4.5t72.5 10.5q35 6 63 15q-1 5 -5.5 30.5t-9.5 60.5
t-9 75t-4 75q0 37 6.5 61.5t23.5 24.5q28 0 70 -60.5t83 -185.5z" />
    <glyph glyph-name="R" unicode="R" horiz-adv-x="1180" 
d="M1132 -235q-108 0 -187 28.5t-136 77t-96 113t-67.5 136t-49.5 146.5t-43 145t-48 130t-63 102q-32 0 -56 -1t-56 -3q-21 -77 -39.5 -157.5t-38.5 -163t-43.5 -166t-54.5 -165.5q-41 0 -83 6.5t-76.5 24t-56.5 47t-22 74.5q0 26 7.5 70.5t20 101.5t30.5 125t38.5 142.5
t43.5 152t46 154.5q82 270 186 588q98 33 195 59q41 11 86 22t89.5 19.5t87 13.5t79.5 5q107 0 190.5 -22.5t140.5 -68.5t86.5 -115.5t29.5 -163.5q0 -96 -32 -171t-83 -133t-115 -99.5t-127.5 -70t-121 -45.5t-95.5 -24q43 -74 86 -168t91 -191t102.5 -188.5t119.5 -160.5
q12 -12 38.5 -31t54.5 -40t49 -41t21 -34q0 -15 -15 -26.5t-36 -19t-42.5 -11t-34.5 -3.5zM516 1252q-13 -49 -33 -111.5t-39.5 -123t-33.5 -111t-14 -75.5q69 -6 145.5 5.5t150 35.5t140.5 58.5t118 73.5t81 80t30 79q0 37 -25 62t-65.5 40.5t-92.5 22.5t-106 7
q-39 0 -77 -3t-71.5 -9t-61.5 -14t-46 -17z" />
    <glyph glyph-name="S" unicode="S" horiz-adv-x="1304" 
d="M394 167q41 0 94.5 11t109.5 32t110.5 52t99.5 71t75.5 89t38.5 106v8q0 29 -26.5 58.5t-69.5 60.5t-98 63t-113 66.5t-113 72t-98 78t-69.5 84.5t-26.5 93q0 57 32.5 106t85.5 90t119 72t133.5 53t129 33t105.5 11q55 0 101 -11t79 -35t51.5 -61.5t18.5 -90.5v-19.5
t-2 -20.5q-77 -8 -159 -9.5t-156 -7.5t-133.5 -21.5t-90.5 -52.5q64 -36 136.5 -73.5t143 -77.5t135 -84t113.5 -93t78 -104t29 -117v-19.5t-2 -19.5q-13 -102 -52 -186.5t-97 -151.5t-131.5 -116.5t-154.5 -82.5t-166.5 -49t-168.5 -16q-128 0 -232 26.5t-178 64t-114 79
t-40 71.5q0 12 4.5 26.5t17.5 27t37 21t62 8.5q36 0 70 -18t74 -39.5t90 -39.5t118 -18z" />
    <glyph glyph-name="T" unicode="T" horiz-adv-x="671" 
d="M278 44q-17 -57 -48.5 -82.5t-66.5 -25.5q-26 0 -52 12.5t-46 34.5t-32.5 52.5t-12.5 66.5v7q3 82 23.5 181t51.5 206t68 219t73 220.5t67 209.5t50 187q-60 -8 -120 -15q-51 -6 -109 -11.5t-105 -7.5q-55 0 -93 8t-61 22t-33.5 32t-10.5 39q0 18 15 30.5t48 15.5
q165 16 329 33t328 31.5t328.5 24t330.5 11.5l26 -130l-518 -59q-47 -159 -103.5 -326t-114.5 -334t-113.5 -331.5t-98.5 -320.5z" />
    <glyph glyph-name="U" unicode="U" 
d="M573 245q80 17 151 75.5t134 143t117.5 187t102 207t87.5 203t73 175t60.5 123.5t48.5 48q11 1 26.5 -5t27.5 -16q-20 -137 -55 -280.5t-87 -283.5t-122 -270.5t-160 -241.5t-200.5 -197t-244.5 -136q-128 60 -222 130.5t-156.5 148.5t-93 162.5t-30.5 171.5
q0 80 17 161.5t46.5 162.5t68 160t81 154t86.5 145t84 132q36 57 66.5 84t64.5 27q16 0 41.5 -10.5t53.5 -26t54 -34.5t43 -36q-12 -50 -42 -116.5t-68.5 -144t-80.5 -163t-77 -173.5t-57.5 -175.5t-22.5 -169.5q0 -41 12.5 -87.5t36.5 -91t58.5 -82t77.5 -61.5z" />
    <glyph glyph-name="V" unicode="V" horiz-adv-x="816" 
d="M1446 1432q-71 -61 -154 -140.5t-181.5 -182.5t-213.5 -232.5t-250 -290.5q-23 -28 -59.5 -76.5t-77.5 -107t-83 -122.5t-75.5 -122t-55 -104.5t-21.5 -71.5q0 -20 -6.5 -31t-15.5 -17t-20 -7.5t-21 -1.5q-22 0 -50 12t-57 29t-56 36.5t-46 33.5q-1 34 -1 67.5v67.5
q0 149 2.5 292t5 285t5 284.5t2.5 291.5q0 46 16.5 74t47.5 28q25 0 54 -24.5t59 -59.5t58 -73.5t51 -66.5q6 -8 8 -19t2 -20q-12 -78 -20 -151.5t-12 -147t-4.5 -149t1.5 -157.5q40 57 92 119t108 122t112 114.5t106 95.5q66 55 119 98.5t100 80t91.5 69t94 66t108 70
t133.5 81.5q2 -2 17.5 -8t34.5 -13t34.5 -13t17.5 -8z" />
    <glyph glyph-name="W" unicode="W" horiz-adv-x="1415" 
d="M1969 1369q-47 -41 -93 -81t-95 -85t-101.5 -97.5t-113.5 -117.5t-131.5 -146t-154.5 -183q-23 -28 -60.5 -78.5t-81 -113t-88 -129.5t-80 -128.5t-58.5 -110t-23 -73.5q0 -17 -6.5 -26t-16.5 -14t-21.5 -6t-21.5 -1q-24 0 -47 1.5t-42 3t-30.5 3.5l-11.5 2l-122 104
q-18 49 -36.5 114.5t-35 133t-30 130t-19.5 105.5q-17 -31 -38 -75.5t-42.5 -95.5t-42 -105t-36.5 -103t-25.5 -88.5t-9.5 -62.5q0 -27 -6 -43t-16.5 -24.5t-25.5 -11t-32 -2.5q-11 0 -20.5 2t-14.5 7l-136 131q-7 120 -9 242.5t-2 246.5q0 138 1.5 271.5t1.5 258.5
q0 15 2 30.5t8 28t17 20.5t29 8q30 0 59.5 -26t56 -61t47.5 -71t34 -56q10 -17 10 -34v-280.5t-3 -224.5q26 57 54.5 120.5t60 124.5t66 115t72.5 93l118 -83q10 -32 22 -76.5t26.5 -91.5t31 -92.5t35.5 -79.5q86 147 208 282t265 252.5t299 216t311 172.5q13 0 36.5 -6
t46.5 -13.5t41 -14t20 -8.5z" />
    <glyph glyph-name="X" unicode="X" horiz-adv-x="1139" 
d="M1359 1172q-102 -87 -201 -178t-185.5 -175t-156.5 -155.5t-116 -119.5q54 -90 102.5 -162.5t93 -132.5t86 -110.5t80.5 -97t76.5 -91.5t75.5 -94q22 -29 26 -45.5t-2 -29t-17.5 -24t-18.5 -28.5q-54 38 -114.5 91.5t-122 115t-121.5 126.5t-113 126.5t-96.5 115.5
t-72.5 93q-19 -16 -53.5 -52t-79 -85t-95.5 -107t-101.5 -119.5t-98 -121.5t-85 -112t-62 -93t-29.5 -64q-14 14 -43.5 32t-59.5 40t-53.5 49t-26.5 59q27 90 85 188t139.5 204.5t182 222.5t211.5 243q-32 42 -56 75t-46 63.5t-43 63.5t-46 76.5t-55.5 100.5t-71.5 136
q-26 50 -22.5 81t24.5 46.5t54 16t66.5 -9.5t61 -30t37.5 -46q16 -41 37 -88t49 -101t63.5 -115.5t81.5 -131.5q157 152 328.5 292.5t342.5 260.5z" />
    <glyph glyph-name="Y" unicode="Y" horiz-adv-x="891" 
d="M-318 -556q69 116 147 259t158 298t159 314.5t152 308.5q-13 -1 -25 -1.5t-24 -0.5q-76 0 -127 20t-81.5 55t-43.5 82.5t-13 102.5q0 64 14 134t34.5 137.5t43 128t39.5 105.5q10 28 18.5 50t18 37t21 22.5t29.5 7.5q22 0 63 -15q70 -27 113 -75.5t43 -121.5
q0 -32 -9 -68t-29 -77q-7 -15 -24 -50.5t-35 -80t-31.5 -91t-13.5 -83.5q0 -34 14.5 -55t49.5 -21q1 0 6.5 -0.5t11.5 -1.5t11 -1.5t7 -0.5q81 112 148 225t133 225.5t135.5 224t154.5 221.5q39 -30 65.5 -53t44.5 -47t28.5 -54t16.5 -73q6 -29 -9.5 -83.5t-44.5 -123.5
t-67.5 -147t-78 -154t-76.5 -145.5t-64 -120.5q-75 -144 -153 -291.5t-160.5 -284.5t-170.5 -256t-183.5 -205.5t-199 -134t-216.5 -41.5z" />
    <glyph glyph-name="Z" unicode="Z" horiz-adv-x="1605" 
d="M1737 -74q-6 -24 -18 -43t-39 -19q-13 0 -26 4q-68 20 -142.5 50t-153 62.5t-159 64.5t-159 57.5t-154.5 41.5t-145 16q-62 0 -131 -12.5t-141 -34t-144.5 -50.5t-140 -63t-128.5 -71t-110 -74q-17 -13 -29.5 -18.5t-24.5 -5.5q-6 0 -30 12t-50 32.5t-47 46.5t-21 54
q0 14 6 29t20 29q150 150 313.5 286t331.5 267.5t337 261.5t329 267q-82 -9 -158 -30.5t-148.5 -42.5t-142 -36.5t-138.5 -13.5q-30 1 -68 31t-74.5 73.5t-67 92t-43.5 86.5q124 8 242 17q50 4 104 8t106 8.5t100.5 8.5t87.5 9q29 3 74 10t99 15t113.5 18t116.5 19
q135 22 287 48q3 -22 8 -50t8.5 -58.5t5 -62t-3 -60t-16 -52t-32.5 -38.5q-74 -51 -146.5 -100.5t-150.5 -90.5q-85 -47 -181 -111.5t-188.5 -132.5t-173 -134t-135.5 -116q95 5 174 11.5t155 6.5q72 0 150 -25.5t156.5 -67.5t155.5 -96.5t146.5 -112.5t129 -115.5
t104.5 -105.5z" />
    <glyph glyph-name="exclam" unicode="!" horiz-adv-x="817" 
d="M894 1257q-59 -144 -112.5 -273t-113 -248.5t-130.5 -232t-165 -223.5q-14 11 -34.5 23.5t-39.5 24.5t-32.5 23t-13.5 19q0 17 12 65t33 116t49.5 150.5t60.5 167.5t66 167.5t67 151.5t63 118t54 68q12 10 44.5 8t69 -16.5t71 -41.5t51.5 -67zM43 114q35 60 67.5 94
t75.5 34q5 0 14 -1.5t19 -4.5t20 -6.5t16 -7.5q13 -21 25.5 -38.5t22.5 -35.5t15.5 -37.5t5.5 -44.5q0 -9 -10.5 -29t-28 -43t-39.5 -45.5t-45 -38.5q-41 8 -81 24t-65.5 41t-31.5 59.5t20 79.5z" />
    <glyph glyph-name="question" unicode="?" horiz-adv-x="957" 
d="M318 913q-17 0 -27.5 16.5t-16.5 41t-8 52.5t-2 51q0 47 17 95t46 92t68 82t83 66.5t90.5 44.5t91.5 16q88 0 162.5 -25t128.5 -72.5t84 -117t30 -157.5q0 -46 -23 -90.5t-62 -89t-89.5 -89t-105.5 -89.5t-110.5 -91t-103.5 -93.5t-86 -97t-57 -101.5q-33 6 -56 22
t-37 34t-20.5 33.5t-6.5 18.5q2 27 27.5 76t68.5 111t100.5 132t122.5 137.5t135 127.5t138 103q8 5 8 8q0 8 -18.5 16t-40.5 14t-40 10t-17 4q-73 0 -117 -21.5t-73 -54t-50.5 -70t-49.5 -70t-70.5 -54t-113.5 -21.5zM90 152q0 22 15 53t42 58.5t64 47t81 19.5
q31 0 54 -14.5t38.5 -39t23.5 -56t8 -64.5q0 -36 -9.5 -71.5t-28.5 -63.5t-48 -45.5t-68 -17.5q-24 0 -54 21t-56 51.5t-44 64t-18 57.5z" />
    <glyph glyph-name="germandbls" unicode="&#xdf;" horiz-adv-x="1183" 
d="M253 150q-29 -73 -57.5 -139t-63 -138.5t-79.5 -159.5t-107 -202q-6 0 -21 6t-35 16t-42.5 21.5t-42.5 23t-35 21t-20 14.5q25 76 44 126t36.5 92t35 85.5t39.5 106.5t50.5 155t68.5 230q1 2 -12 3.5t-29.5 3.5t-30 4.5t-13.5 7.5q0 27 4 46.5t24 39.5q29 30 60.5 61.5
t60 62t50.5 60.5t32 59q40 112 103 237t140.5 247.5t166 233t179.5 192.5q25 0 46 3.5t46 3.5h11q-44 -91 -82 -174t-73 -162q52 16 102 16q55 0 100.5 -18t78.5 -49t51 -72.5t18 -87.5q0 -48 -18 -88t-48 -73t-68.5 -60t-80 -50t-83.5 -42.5t-77 -36.5q63 15 115 15
q102 0 156 -53t54 -142q0 -77 -35 -147.5t-91 -129t-125 -101.5t-137 -64q39 2 87 21.5t101 52t109 76t111 94.5t107.5 107.5t97.5 115.5q30 -4 48.5 -24t18.5 -55q0 -27 -12.5 -62t-40.5 -78t-73 -93.5t-110 -108.5q-59 -53 -126.5 -97.5t-140 -77.5t-149.5 -51.5
t-155 -18.5q-50 0 -101 9l-141 168q41 14 89.5 37t96.5 53.5t93 67.5t79.5 78.5t55 86.5t20.5 93q0 43 -26 74.5t-85 36.5q-34 3 -48 15t-14 31q0 30 18.5 62t46 65t60 66.5t60 67t46 65.5t18.5 63t-17.5 47.5t-40.5 16.5q-10 0 -21.5 -4.5t-23.5 -10t-23 -11t-20 -8.5
q-44 -106 -86 -213.5t-85.5 -225t-90 -249.5t-99.5 -286z" />
    <glyph glyph-name="Thorn" unicode="&#xde;" horiz-adv-x="1204" 
d="M28 -126q-5 -15 -17 -31.5t-27.5 -31t-32.5 -24t-33 -9.5q-50 24 -89 47q-17 10 -33 20.5t-28.5 21t-20 20t-7.5 17.5q0 35 17 84.5t41 101.5t48.5 100.5t39.5 80.5q52 112 106.5 263t110.5 328t114 373t117 399q15 51 52.5 83.5t88.5 32.5q18 0 37.5 -4t36 -13
t27.5 -22.5t11 -32.5q0 -40 -9.5 -84.5t-22 -91.5t-26 -96t-22.5 -98q44 8 116.5 14t154.5 6q59 0 117 -4t111 -15q73 -15 124 -51t83.5 -84.5t47 -105.5t14.5 -114q0 -89 -39.5 -163.5t-106 -136.5t-153.5 -111.5t-180.5 -88t-188 -67t-176.5 -47.5t-145.5 -29.5
t-94.5 -14.5q-35 -100 -61.5 -168.5t-46 -116t-33 -79t-22.5 -58.5zM278 515q40 3 105.5 18.5t140.5 41t152 60.5t139 76.5t101 89.5t39 100q0 18 -6 35t-17 30.5t-26 22t-33 8.5q-58 0 -111 -1.5t-104.5 -4t-103.5 -5.5t-108 -6z" />
    <glyph glyph-name="dotlessi" unicode="&#x131;" horiz-adv-x="646" 
d="M694 593q14 -20 29 -36t27 -27t19.5 -18t7.5 -9q-15 -33 -47.5 -84t-75 -109t-91 -116.5t-95.5 -106t-89.5 -77t-72.5 -29.5q-19 0 -48.5 8.5t-63.5 22t-68.5 30t-64 33t-51 31.5t-27.5 24q-18 26 -26 60t-8 74q0 52 15 121.5t40.5 142.5t58.5 144t68 127t70 90.5
t64 34.5q16 0 34 -12q27 -20 46.5 -42.5t33.5 -47.5t24 -53t19 -59q-17 -19 -36.5 -50.5t-39.5 -70.5t-38.5 -82.5t-33 -87t-23 -85t-8.5 -74.5q0 -27 6 -46q50 25 110 71.5t120 100.5t116 109.5t99 97.5z" />
    <glyph glyph-name="Aacute" unicode="&#xc1;" horiz-adv-x="1269" 
d="M1036 -69q-67 7 -112.5 26t-74.5 48t-44 65.5t-22 77.5t-8.5 85t-2.5 88q-51 13 -108 23t-115.5 18t-115.5 14t-108 9q-28 -39 -67.5 -92t-81.5 -110.5t-81.5 -115.5t-68.5 -106q-9 -1 -36.5 13t-61.5 36t-68.5 47t-57.5 45q34 52 87 124t122.5 158.5t152 184t175 200.5
t192 208.5t202.5 207.5t207 198t205 179q27 0 61 -6t63 -15t47.5 -19t16.5 -17q-40 -134 -79.5 -283t-70.5 -301t-50.5 -302.5t-19.5 -287.5q0 -47 3.5 -96t6 -94.5t2 -85t-9 -68.5t-27.5 -44t-52 -12zM778 489q5 21 15.5 66.5t24 102.5t29 120t30 118t27 96.5t21.5 55.5
q-23 -18 -56.5 -52t-73.5 -77.5t-85.5 -93.5t-91.5 -101t-92 -100t-88 -90zM1225 1686q-10 6 -18.5 13t-13 14.5t-4 16.5t9.5 20q25 34 50 58.5t48 46.5t45 45.5t43 55.5q30 -13 55 -25t47.5 -24.5t44 -26t44.5 -28.5q12 -8 11.5 -23t-9 -31t-22.5 -30t-28 -21
q-27 -14 -69 -30.5t-85.5 -28.5t-84 -14.5t-64.5 12.5z" />
    <glyph glyph-name="Abreve" unicode="&#x102;" horiz-adv-x="1269" 
d="M1036 -69q-67 7 -112.5 26t-74.5 48t-44 65.5t-22 77.5t-8.5 85t-2.5 88q-51 13 -108 23t-115.5 18t-115.5 14t-108 9q-28 -39 -67.5 -92t-81.5 -110.5t-81.5 -115.5t-68.5 -106q-9 -1 -36.5 13t-61.5 36t-68.5 47t-57.5 45q34 52 87 124t122.5 158.5t152 184t175 200.5
t192 208.5t202.5 207.5t207 198t205 179q27 0 61 -6t63 -15t47.5 -19t16.5 -17q-40 -134 -79.5 -283t-70.5 -301t-50.5 -302.5t-19.5 -287.5q0 -47 3.5 -96t6 -94.5t2 -85t-9 -68.5t-27.5 -44t-52 -12zM778 489q5 21 15.5 66.5t24 102.5t29 120t30 118t27 96.5t21.5 55.5
q-23 -18 -56.5 -52t-73.5 -77.5t-85.5 -93.5t-91.5 -101t-92 -100t-88 -90zM1318 1673q-35 1 -62.5 12.5t-50.5 30.5t-43.5 43t-40.5 50q-17 22 -27 44t-10.5 42.5t9.5 39t33 35.5q-1 -1 3.5 -14.5t14 -32.5t24.5 -39.5t34.5 -35t43.5 -19t52 7.5t60 45t67 94
q26 -13 46 -28.5t37.5 -32t34.5 -33t37 -31.5q11 -8 10 -21.5t-9 -29t-20 -30.5t-23 -26q-38 -36 -97.5 -54.5t-122.5 -16.5z" />
    <glyph glyph-name="Acircumflex" unicode="&#xc2;" horiz-adv-x="1269" 
d="M1036 -69q-67 7 -112.5 26t-74.5 48t-44 65.5t-22 77.5t-8.5 85t-2.5 88q-51 13 -108 23t-115.5 18t-115.5 14t-108 9q-28 -39 -67.5 -92t-81.5 -110.5t-81.5 -115.5t-68.5 -106q-9 -1 -36.5 13t-61.5 36t-68.5 47t-57.5 45q34 52 87 124t122.5 158.5t152 184t175 200.5
t192 208.5t202.5 207.5t207 198t205 179q27 0 61 -6t63 -15t47.5 -19t16.5 -17q-40 -134 -79.5 -283t-70.5 -301t-50.5 -302.5t-19.5 -287.5q0 -47 3.5 -96t6 -94.5t2 -85t-9 -68.5t-27.5 -44t-52 -12zM778 489q5 21 15.5 66.5t24 102.5t29 120t30 118t27 96.5t21.5 55.5
q-23 -18 -56.5 -52t-73.5 -77.5t-85.5 -93.5t-91.5 -101t-92 -100t-88 -90zM954 1715q0 11 10 24q6 8 36.5 32.5t72 55.5t88.5 65t87 62.5t66.5 47t27.5 18.5q22 0 35.5 -31.5t24.5 -75.5t22.5 -91.5t29.5 -80.5q7 -12 13.5 -27.5t6.5 -37.5q0 -16 -9 -26q-34 6 -52.5 17
t-31.5 27t-24.5 35.5t-30.5 41.5q-27 -22 -61.5 -41.5t-72 -34.5t-75 -24t-71.5 -9q-12 0 -27.5 3.5t-30 10t-24.5 16.5t-10 23z" />
    <glyph glyph-name="Agrave" unicode="&#xc0;" horiz-adv-x="1269" 
d="M1036 -69q-67 7 -112.5 26t-74.5 48t-44 65.5t-22 77.5t-8.5 85t-2.5 88q-51 13 -108 23t-115.5 18t-115.5 14t-108 9q-28 -39 -67.5 -92t-81.5 -110.5t-81.5 -115.5t-68.5 -106q-9 -1 -36.5 13t-61.5 36t-68.5 47t-57.5 45q34 52 87 124t122.5 158.5t152 184t175 200.5
t192 208.5t202.5 207.5t207 198t205 179q27 0 61 -6t63 -15t47.5 -19t16.5 -17q-40 -134 -79.5 -283t-70.5 -301t-50.5 -302.5t-19.5 -287.5q0 -47 3.5 -96t6 -94.5t2 -85t-9 -68.5t-27.5 -44t-52 -12zM778 489q5 21 15.5 66.5t24 102.5t29 120t30 118t27 96.5t21.5 55.5
q-23 -18 -56.5 -52t-73.5 -77.5t-85.5 -93.5t-91.5 -101t-92 -100t-88 -90zM1331 1752q7 -6 17.5 -16.5t17.5 -24t8 -28t-9 -27.5q-80 29 -152 69t-144 79q-26 14 -45.5 41t-27.5 57.5t-3 59.5t29 49q26 21 50 16.5t47.5 -25t47.5 -53.5t50 -69t54 -70.5t60 -57.5z" />
    <glyph glyph-name="Adieresis" unicode="&#xc4;" horiz-adv-x="1269" 
d="M1036 -69q-67 7 -112.5 26t-74.5 48t-44 65.5t-22 77.5t-8.5 85t-2.5 88q-51 13 -108 23t-115.5 18t-115.5 14t-108 9q-28 -39 -67.5 -92t-81.5 -110.5t-81.5 -115.5t-68.5 -106q-9 -1 -36.5 13t-61.5 36t-68.5 47t-57.5 45q34 52 87 124t122.5 158.5t152 184t175 200.5
t192 208.5t202.5 207.5t207 198t205 179q27 0 61 -6t63 -15t47.5 -19t16.5 -17q-40 -134 -79.5 -283t-70.5 -301t-50.5 -302.5t-19.5 -287.5q0 -47 3.5 -96t6 -94.5t2 -85t-9 -68.5t-27.5 -44t-52 -12zM778 489q5 21 15.5 66.5t24 102.5t29 120t30 118t27 96.5t21.5 55.5
q-23 -18 -56.5 -52t-73.5 -77.5t-85.5 -93.5t-91.5 -101t-92 -100t-88 -90zM1328 1887q30 2 56 4q22 1 43.5 1t30.5 -5q13 -6 27.5 -26.5t27.5 -46.5t21.5 -55.5t8.5 -53.5q0 -9 -3.5 -19.5t-11.5 -19.5t-20.5 -15t-30.5 -6q-24 0 -51.5 7.5t-52.5 20t-44 28t-25 31.5
q-10 27 -10 55q0 26 9 51t25 49zM1183 1883q13 -6 26.5 -21.5t24.5 -36t18.5 -45t7.5 -48.5q0 -9 -11 -24t-28.5 -28.5t-37.5 -23.5t-38 -10q-24 0 -43.5 8.5t-34.5 22t-26 30t-17 32.5q-10 27 -10 55q0 29 12 54t34 39t53 14.5t70 -18.5z" />
    <glyph glyph-name="Amacron" unicode="&#x100;" horiz-adv-x="1269" 
d="M1036 -69q-67 7 -112.5 26t-74.5 48t-44 65.5t-22 77.5t-8.5 85t-2.5 88q-51 13 -108 23t-115.5 18t-115.5 14t-108 9q-28 -39 -67.5 -92t-81.5 -110.5t-81.5 -115.5t-68.5 -106q-9 -1 -36.5 13t-61.5 36t-68.5 47t-57.5 45q34 52 87 124t122.5 158.5t152 184t175 200.5
t192 208.5t202.5 207.5t207 198t205 179q27 0 61 -6t63 -15t47.5 -19t16.5 -17q-40 -134 -79.5 -283t-70.5 -301t-50.5 -302.5t-19.5 -287.5q0 -47 3.5 -96t6 -94.5t2 -85t-9 -68.5t-27.5 -44t-52 -12zM778 489q5 21 15.5 66.5t24 102.5t29 120t30 118t27 96.5t21.5 55.5
q-23 -18 -56.5 -52t-73.5 -77.5t-85.5 -93.5t-91.5 -101t-92 -100t-88 -90zM1525 1668q-78 -8 -158 -10.5t-158.5 1t-153.5 14.5t-142 31q-13 21 -27 35.5t-28 37.5q85 12 171 15t173 3.5t175.5 3t178.5 14.5z" />
    <glyph glyph-name="Aogonek" unicode="&#x104;" horiz-adv-x="1269" 
d="M1036 -69q-67 7 -112.5 26t-74.5 48t-44 65.5t-22 77.5t-8.5 85t-2.5 88q-51 13 -108 23t-115.5 18t-115.5 14t-108 9q-28 -39 -67.5 -92t-81.5 -110.5t-81.5 -115.5t-68.5 -106q-9 -1 -36.5 13t-61.5 36t-68.5 47t-57.5 45q34 52 87 124t122.5 158.5t152 184t175 200.5
t192 208.5t202.5 207.5t207 198t205 179q27 0 61 -6t63 -15t47.5 -19t16.5 -17q-40 -134 -79.5 -283t-70.5 -301t-50.5 -302.5t-19.5 -287.5q0 -47 3.5 -96t6 -94.5t2 -85t-9 -68.5t-27.5 -44t-52 -12zM778 489q5 21 15.5 66.5t24 102.5t29 120t30 118t27 96.5t21.5 55.5
q-23 -18 -56.5 -52t-73.5 -77.5t-85.5 -93.5t-91.5 -101t-92 -100t-88 -90zM942 -67q0 24 5.5 41t16 28.5t25.5 18.5t35 13q1 0 2 0.5t2 0.5q9 0 9.5 -15.5t-5 -41.5t-15 -60.5t-20.5 -72.5t-21.5 -76.5t-18.5 -73.5q19 -5 46.5 5t53.5 30.5t46 48.5t25 60q20 -2 41.5 -1.5
t39 -3.5t29 -15t11.5 -34q0 -51 -24 -97t-64 -80t-92.5 -53.5t-108.5 -18.5q-73 1 -102.5 23.5t-31.5 58t15.5 79.5t40 88t41.5 83t19 65z" />
    <glyph glyph-name="Aring" unicode="&#xc5;" horiz-adv-x="1269" 
d="M1036 -69q-67 7 -112.5 26t-74.5 48t-44 65.5t-22 77.5t-8.5 85t-2.5 88q-51 13 -108 23t-115.5 18t-115.5 14t-108 9q-28 -39 -67.5 -92t-81.5 -110.5t-81.5 -115.5t-68.5 -106q-9 -1 -36.5 13t-61.5 36t-68.5 47t-57.5 45q34 52 87 124t122.5 158.5t152 184t175 200.5
t192 208.5t202.5 207.5t207 198t205 179q27 0 61 -6t63 -15t47.5 -19t16.5 -17q-40 -134 -79.5 -283t-70.5 -301t-50.5 -302.5t-19.5 -287.5q0 -47 3.5 -96t6 -94.5t2 -85t-9 -68.5t-27.5 -44t-52 -12zM778 489q5 21 15.5 66.5t24 102.5t29 120t30 118t27 96.5t21.5 55.5
q-23 -18 -56.5 -52t-73.5 -77.5t-85.5 -93.5t-91.5 -101t-92 -100t-88 -90zM1402 2053q39 1 67.5 -20t46.5 -49.5t25 -57.5t2 -44q-20 -56 -47 -101.5t-64.5 -78.5t-87.5 -52t-116 -22q-6 0 -19.5 10t-30.5 26t-35.5 35.5t-32.5 39t-22 36.5t-5 28q22 72 59 119.5t80.5 76.5
t90 41t89.5 13zM1374 1929q-24 4 -46.5 -17.5t-36.5 -51.5q-6 -12 -13 -24.5t-10 -23t0 -20t17 -15.5q10 -4 24 4.5t28 22t25.5 28t14.5 22.5q3 4 5 13.5t2.5 20.5t-2 22t-8.5 19z" />
    <glyph glyph-name="Atilde" unicode="&#xc3;" horiz-adv-x="1269" 
d="M1036 -69q-67 7 -112.5 26t-74.5 48t-44 65.5t-22 77.5t-8.5 85t-2.5 88q-51 13 -108 23t-115.5 18t-115.5 14t-108 9q-28 -39 -67.5 -92t-81.5 -110.5t-81.5 -115.5t-68.5 -106q-9 -1 -36.5 13t-61.5 36t-68.5 47t-57.5 45q34 52 87 124t122.5 158.5t152 184t175 200.5
t192 208.5t202.5 207.5t207 198t205 179q27 0 61 -6t63 -15t47.5 -19t16.5 -17q-40 -134 -79.5 -283t-70.5 -301t-50.5 -302.5t-19.5 -287.5q0 -47 3.5 -96t6 -94.5t2 -85t-9 -68.5t-27.5 -44t-52 -12zM778 489q5 21 15.5 66.5t24 102.5t29 120t30 118t27 96.5t21.5 55.5
q-23 -18 -56.5 -52t-73.5 -77.5t-85.5 -93.5t-91.5 -101t-92 -100t-88 -90zM1023 1674q-16 14 -25 28t5 37q20 35 40 69t42.5 64t49.5 53.5t62 36.5q0 -1 2 -1q8 7 23.5 -3.5t36 -32.5t46 -52.5t52.5 -64.5q31 41 60.5 76.5t53.5 82.5q24 -13 39 -25t28 -24t26 -24.5
t31 -27.5q10 -8 8 -22t-9.5 -29.5t-18 -30.5t-18.5 -25q-21 -24 -51.5 -46t-62.5 -36t-61.5 -16.5t-49.5 12.5q-19 12 -31.5 21t-21.5 17.5t-16.5 16t-14.5 16.5q-23 -14 -53.5 -32.5t-62 -32t-61 -17t-48.5 11.5z" />
    <glyph glyph-name="AE" unicode="&#xc6;" horiz-adv-x="1845" 
d="M737 140l13 254q-34 8 -77 9t-90.5 -3.5t-97 -12.5t-97 -17t-90 -17.5t-76.5 -13.5q-36 -33 -69 -76t-62 -91.5t-55 -102t-48 -108.5q-6 -1 -25.5 6.5t-46.5 19.5t-58.5 28t-61.5 33t-56 34t-41 30q22 82 63.5 150.5t94.5 130.5t113 121.5t119 122.5q67 72 129.5 133
t123 117.5t120.5 110.5t122.5 111.5t129 121.5t139.5 140q32 33 60 56.5t58.5 39t67.5 23.5t88 11q66 4 143.5 14t159 20.5t163.5 18.5t158 8q59 0 96.5 -25.5t39.5 -86.5q-86 -24 -158 -45t-142 -39.5t-143 -35t-161 -30.5q-21 -3 -33 -9.5t-18 -16.5t-9.5 -25t-7.5 -35
q-8 -39 -15.5 -68t-14.5 -56.5t-13.5 -56.5t-12.5 -68q28 2 72 9t91 14.5t92 13.5t76 6q44 0 73 -12.5t46.5 -33.5t25 -49t9.5 -59q-62 -20 -114 -32.5t-102 -21.5t-101.5 -16.5t-112.5 -19.5q-35 -7 -55 -10t-31.5 -8t-17.5 -14t-12 -27q-14 -127 -20.5 -242t0.5 -228
q101 13 199.5 43t196.5 61t197.5 54.5t202.5 23.5q40 0 54 -19.5t14 -47.5q0 -14 -2 -27t-5 -27q-80 -27 -162.5 -60.5t-168 -69t-174.5 -70t-180 -64.5q-27 -9 -66 -21t-87.5 -24t-106 -22t-120.5 -16zM756 562q5 21 14.5 61t21 89t25 102.5t26 100.5t24 82.5t20.5 50.5
q-23 -18 -61 -53t-85 -80.5t-100 -98t-106 -105.5t-103.5 -103t-92.5 -91z" />
    <glyph glyph-name="AEacute" unicode="&#x1fc;" horiz-adv-x="1845" 
d="M737 140l13 254q-34 8 -77 9t-90.5 -3.5t-97 -12.5t-97 -17t-90 -17.5t-76.5 -13.5q-36 -33 -69 -76t-62 -91.5t-55 -102t-48 -108.5q-6 -1 -25.5 6.5t-46.5 19.5t-58.5 28t-61.5 33t-56 34t-41 30q22 82 63.5 150.5t94.5 130.5t113 121.5t119 122.5q67 72 129.5 133
t123 117.5t120.5 110.5t122.5 111.5t129 121.5t139.5 140q32 33 60 56.5t58.5 39t67.5 23.5t88 11q66 4 143.5 14t159 20.5t163.5 18.5t158 8q59 0 96.5 -25.5t39.5 -86.5q-86 -24 -158 -45t-142 -39.5t-143 -35t-161 -30.5q-21 -3 -33 -9.5t-18 -16.5t-9.5 -25t-7.5 -35
q-8 -39 -15.5 -68t-14.5 -56.5t-13.5 -56.5t-12.5 -68q28 2 72 9t91 14.5t92 13.5t76 6q44 0 73 -12.5t46.5 -33.5t25 -49t9.5 -59q-62 -20 -114 -32.5t-102 -21.5t-101.5 -16.5t-112.5 -19.5q-35 -7 -55 -10t-31.5 -8t-17.5 -14t-12 -27q-14 -127 -20.5 -242t0.5 -228
q101 13 199.5 43t196.5 61t197.5 54.5t202.5 23.5q40 0 54 -19.5t14 -47.5q0 -14 -2 -27t-5 -27q-80 -27 -162.5 -60.5t-168 -69t-174.5 -70t-180 -64.5q-27 -9 -66 -21t-87.5 -24t-106 -22t-120.5 -16zM756 562q5 21 14.5 61t21 89t25 102.5t26 100.5t24 82.5t20.5 50.5
q-23 -18 -61 -53t-85 -80.5t-100 -98t-106 -105.5t-103.5 -103t-92.5 -91zM1165 1634q-10 6 -18.5 13t-13 14.5t-4 16.5t9.5 20q25 34 50 58.5t48 46.5t45 45.5t43 55.5q30 -13 55 -25t47.5 -24.5t44 -26t44.5 -28.5q12 -8 11.5 -23t-9 -31t-22.5 -30t-28 -21
q-27 -14 -69 -30.5t-85.5 -28.5t-84 -14.5t-64.5 12.5z" />
    <glyph glyph-name="Cacute" unicode="&#x106;" horiz-adv-x="1356" 
d="M662 -29q-27 0 -71 14.5t-97 40.5t-112 60.5t-116.5 74.5t-109.5 83.5t-92 86.5t-63.5 83.5t-23.5 75.5q0 106 40.5 218.5t112 219t170 201t215 165.5t247 112.5t264.5 41.5q58 0 102.5 -19t75 -52.5t46 -79.5t15.5 -100q0 -27 -9.5 -51t-25 -44.5t-35 -38t-39.5 -31.5
q-48 -33 -109 -57l-172 211q-60 -16 -123 -54.5t-122.5 -92.5t-112.5 -119.5t-92.5 -137t-62.5 -144.5t-23 -141q0 -25 18.5 -59.5t48 -71.5t68 -73t79 -65t79 -46.5t69.5 -17.5q18 0 55.5 18.5t88 48.5t110 68t120 78.5t119 78.5t108 68t85.5 48.5t51 18.5q22 0 22 -23
q0 -8 -5 -26q-11 -39 -42 -84t-75.5 -92.5t-100 -95t-116.5 -91.5t-124.5 -82t-123.5 -66t-114 -44t-97 -16zM1010 1549q-10 6 -18.5 13t-13 14.5t-4 16.5t9.5 20q25 34 50 58.5t48 46.5t45 45.5t43 55.5q30 -13 55 -25t47.5 -24.5t44 -26t44.5 -28.5q12 -8 11.5 -23t-9 -31
t-22.5 -30t-28 -21q-27 -14 -69 -30.5t-85.5 -28.5t-84 -14.5t-64.5 12.5z" />
    <glyph glyph-name="Ccaron" unicode="&#x10c;" horiz-adv-x="1356" 
d="M662 -29q-27 0 -71 14.5t-97 40.5t-112 60.5t-116.5 74.5t-109.5 83.5t-92 86.5t-63.5 83.5t-23.5 75.5q0 106 40.5 218.5t112 219t170 201t215 165.5t247 112.5t264.5 41.5q58 0 102.5 -19t75 -52.5t46 -79.5t15.5 -100q0 -27 -9.5 -51t-25 -44.5t-35 -38t-39.5 -31.5
q-48 -33 -109 -57l-172 211q-60 -16 -123 -54.5t-122.5 -92.5t-112.5 -119.5t-92.5 -137t-62.5 -144.5t-23 -141q0 -25 18.5 -59.5t48 -71.5t68 -73t79 -65t79 -46.5t69.5 -17.5q18 0 55.5 18.5t88 48.5t110 68t120 78.5t119 78.5t108 68t85.5 48.5t51 18.5q22 0 22 -23
q0 -8 -5 -26q-11 -39 -42 -84t-75.5 -92.5t-100 -95t-116.5 -91.5t-124.5 -82t-123.5 -66t-114 -44t-97 -16zM1065 1514q-33 19 -55.5 34.5t-42 31t-40 33.5t-49.5 42q-21 18 -31.5 39t-10 43t12 42t34.5 37q9 7 25.5 -8t39 -43.5t50 -66t58.5 -75.5q20 28 41 52t41 47
t39 47t35 53q26 -13 46 -28.5t37.5 -32t34.5 -33t37 -31.5q11 -8 10 -23t-8.5 -31.5t-19.5 -31t-24 -21.5q-23 -13 -56.5 -29.5t-69.5 -28.5t-70.5 -17t-58.5 5z" />
    <glyph glyph-name="Ccircumflex" unicode="&#x108;" horiz-adv-x="1356" 
d="M662 -29q-27 0 -71 14.5t-97 40.5t-112 60.5t-116.5 74.5t-109.5 83.5t-92 86.5t-63.5 83.5t-23.5 75.5q0 106 40.5 218.5t112 219t170 201t215 165.5t247 112.5t264.5 41.5q58 0 102.5 -19t75 -52.5t46 -79.5t15.5 -100q0 -27 -9.5 -51t-25 -44.5t-35 -38t-39.5 -31.5
q-48 -33 -109 -57l-172 211q-60 -16 -123 -54.5t-122.5 -92.5t-112.5 -119.5t-92.5 -137t-62.5 -144.5t-23 -141q0 -25 18.5 -59.5t48 -71.5t68 -73t79 -65t79 -46.5t69.5 -17.5q18 0 55.5 18.5t88 48.5t110 68t120 78.5t119 78.5t108 68t85.5 48.5t51 18.5q22 0 22 -23
q0 -8 -5 -26q-11 -39 -42 -84t-75.5 -92.5t-100 -95t-116.5 -91.5t-124.5 -82t-123.5 -66t-114 -44t-97 -16zM786 1580q0 11 10 24q6 8 36.5 32.5t72 55.5t88.5 65t87 62.5t66.5 47t27.5 18.5q22 0 35.5 -31.5t24.5 -75.5t22.5 -91.5t29.5 -80.5q7 -12 13.5 -27.5t6.5 -37.5
q0 -16 -9 -26q-34 6 -52.5 17t-31.5 27t-24.5 35.5t-30.5 41.5q-27 -22 -61.5 -41.5t-72 -34.5t-75 -24t-71.5 -9q-12 0 -27.5 3.5t-30 10t-24.5 16.5t-10 23z" />
    <glyph glyph-name="Ccedilla" unicode="&#xc7;" horiz-adv-x="1356" 
d="M662 -29q-27 0 -71 14.5t-97 40.5t-112 60.5t-116.5 74.5t-109.5 83.5t-92 86.5t-63.5 83.5t-23.5 75.5q0 106 40.5 218.5t112 219t170 201t215 165.5t247 112.5t264.5 41.5q58 0 102.5 -19t75 -52.5t46 -79.5t15.5 -100q0 -27 -9.5 -51t-25 -44.5t-35 -38t-39.5 -31.5
q-48 -33 -109 -57l-172 211q-60 -16 -123 -54.5t-122.5 -92.5t-112.5 -119.5t-92.5 -137t-62.5 -144.5t-23 -141q0 -25 18.5 -59.5t48 -71.5t68 -73t79 -65t79 -46.5t69.5 -17.5q18 0 55.5 18.5t88 48.5t110 68t120 78.5t119 78.5t108 68t85.5 48.5t51 18.5q22 0 22 -23
q0 -8 -5 -26q-11 -39 -42 -84t-75.5 -92.5t-100 -95t-116.5 -91.5t-124.5 -82t-123.5 -66t-114 -44t-97 -16zM263 -189q18 28 43 34t52.5 3t55.5 -10t53.5 -5.5t45.5 17t31 57.5q12 46 27.5 85t25.5 74q2 7 10 10t18.5 3.5t23.5 0t25 -0.5q2 1 8 -3q11 -7 12 -39.5t-3 -77
t-11 -95t-12 -93.5q-2 -18 -22 -36.5t-45.5 -33.5t-51.5 -25.5t-39 -13.5q-48 -11 -100.5 2.5t-96.5 42.5q-11 7 -23.5 19.5t-21.5 27t-11.5 29.5t6.5 28z" />
    <glyph glyph-name="Cdotaccent" unicode="&#x10a;" horiz-adv-x="1356" 
d="M662 -29q-27 0 -71 14.5t-97 40.5t-112 60.5t-116.5 74.5t-109.5 83.5t-92 86.5t-63.5 83.5t-23.5 75.5q0 106 40.5 218.5t112 219t170 201t215 165.5t247 112.5t264.5 41.5q58 0 102.5 -19t75 -52.5t46 -79.5t15.5 -100q0 -27 -9.5 -51t-25 -44.5t-35 -38t-39.5 -31.5
q-48 -33 -109 -57l-172 211q-60 -16 -123 -54.5t-122.5 -92.5t-112.5 -119.5t-92.5 -137t-62.5 -144.5t-23 -141q0 -25 18.5 -59.5t48 -71.5t68 -73t79 -65t79 -46.5t69.5 -17.5q18 0 55.5 18.5t88 48.5t110 68t120 78.5t119 78.5t108 68t85.5 48.5t51 18.5q22 0 22 -23
q0 -8 -5 -26q-11 -39 -42 -84t-75.5 -92.5t-100 -95t-116.5 -91.5t-124.5 -82t-123.5 -66t-114 -44t-97 -16zM1030 1778q35 3 66 5q26 2 51.5 1t36.5 -6q15 -8 32 -25t31 -40.5t23.5 -51.5t9.5 -57q0 -11 -9 -29t-24 -35t-35 -29.5t-41 -12.5q-28 0 -55 8t-50 21.5t-40 31
t-24 36.5q-12 33 -12 65q0 31 10.5 60t29.5 58z" />
    <glyph glyph-name="Dcaron" unicode="&#x10e;" horiz-adv-x="1207" 
d="M128 1082q-25 7 -41 20t-25.5 30.5t-13.5 38.5t-4 42t4.5 42.5t16 40.5t32 34.5t52.5 26.5q18 6 24 21t10 32t11 31t25 18q45 9 91.5 16t93.5 7q19 0 37.5 -1t37.5 -5l3 -68q77 8 157 15q34 3 71.5 5.5t76.5 5t78 3.5t75 1q84 0 160 -14.5t134 -49t91.5 -93t32.5 -147.5
q-2 -126 -49.5 -244t-127.5 -225.5t-185.5 -202.5t-223.5 -174.5t-242 -143t-240.5 -108t-218.5 -68t-176 -23.5q-24 0 -40.5 9t-28.5 26.5t-21.5 43t-19.5 57.5q29 12 36.5 14.5t10.5 2.5t10 1.5t35 10.5q10 10 25.5 54t34 109t38.5 146t40 165t38.5 166.5t34 150.5
t26 116.5t14.5 64.5zM193 195q111 55 210 109.5t185 114.5t158.5 128.5t132 151t105 182.5t76.5 222q-45 23 -108.5 33.5t-134.5 10.5q-56 0 -112 -5.5t-108 -14.5t-96 -21.5t-74 -25.5q-11 -48 -29 -118t-40 -152.5t-46 -170.5l-46.5 -170.5t-41.5 -153.5t-31 -120z
M843 1489q-33 19 -55.5 34.5t-42 31t-40 33.5t-49.5 42q-21 18 -31.5 39t-10 43t12 42t34.5 37q9 7 25.5 -8t39 -43.5t50 -66t58.5 -75.5q20 28 41 52t41 47t39 47t35 53q26 -13 46 -28.5t37.5 -32t34.5 -33t37 -31.5q11 -8 10 -23t-8.5 -31.5t-19.5 -31t-24 -21.5
q-23 -13 -56.5 -29.5t-69.5 -28.5t-70.5 -17t-58.5 5z" />
    <glyph glyph-name="Dcroat" unicode="&#x110;" horiz-adv-x="1248" 
d="M128 1082q-25 7 -41 20t-25.5 30.5t-13.5 38.5t-4 42t4.5 42.5t16 40.5t32 34.5t52.5 26.5q18 6 24 21t10 32t11 31t25 18q45 9 91.5 16t93.5 7q19 0 37.5 -1t37.5 -5l3 -68q77 8 157 15q34 3 71.5 5.5t76.5 5t78 3.5t75 1q84 0 160 -14.5t134 -49t91.5 -93t32.5 -147.5
q-2 -126 -49.5 -244t-127.5 -225.5t-185.5 -202.5t-223.5 -174.5t-242 -143t-240.5 -108t-218.5 -68t-176 -23.5q-24 0 -40.5 9t-28.5 26.5t-21.5 43t-19.5 57.5q29 12 36.5 14.5t10.5 2.5t10 1.5t35 10.5q10 10 25.5 54t34 109t38.5 146t40 165t38.5 166.5t34 150.5
t26 116.5t14.5 64.5zM193 195q111 55 210 109.5t185 114.5t158.5 128.5t132 151t105 182.5t76.5 222q-45 23 -108.5 33.5t-134.5 10.5q-56 0 -112 -5.5t-108 -14.5t-96 -21.5t-74 -25.5q-11 -48 -29 -118t-40 -152.5t-46 -170.5l-46.5 -170.5t-41.5 -153.5t-31 -120z
M497 627q-78 -8 -158 -10.5t-158.5 1t-153.5 14.5t-142 31q-13 21 -27 35.5t-28 37.5q85 12 171 15t173 3.5t175.5 3t178.5 14.5z" />
    <glyph glyph-name="Eacute" unicode="&#xc9;" horiz-adv-x="1220" 
d="M-121 139q18 69 40 151.5t47 172t52.5 183.5t55.5 185.5t55.5 178t53.5 161.5t49.5 136.5t43.5 102.5q9 18 48 35t99 32.5t134.5 29t154 24.5t158.5 20t147 15t120 9.5t77 3.5q57 0 91.5 -23.5t34.5 -79.5v-9q-177 -48 -349.5 -93t-351.5 -74q-22 -3 -34.5 -9.5
t-20 -16.5t-12 -24.5t-9.5 -35.5q-9 -39 -19 -68.5t-19.5 -56.5t-19.5 -56t-20 -68q28 2 72.5 9t92.5 14.5t93.5 13.5t76.5 6q42 0 69 -11t43 -30t22 -45t6 -55v-13q-64 -20 -117 -32.5t-104 -21.5t-103 -16.5t-114 -19.5q-41 -8 -62.5 -11.5t-33 -10.5t-18.5 -21.5
t-19 -45.5q-23 -56 -45.5 -116t-43.5 -118t-38.5 -111.5t-30.5 -96.5q70 7 145.5 23.5t154.5 37t159 42.5t159 40t155 29.5t146 11.5q35 0 49 -16t14 -39q0 -17 -4 -33t-9 -33q-82 -27 -167.5 -60.5t-174 -69t-180.5 -70t-186 -64.5q-27 -9 -84.5 -21t-128 -24t-146 -22.5
t-138.5 -16.5zM717 1633q-10 6 -18.5 13t-13 14.5t-4 16.5t9.5 20q25 34 50 58.5t48 46.5t45 45.5t43 55.5q30 -13 55 -25t47.5 -24.5t44 -26t44.5 -28.5q12 -8 11.5 -23t-9 -31t-22.5 -30t-28 -21q-27 -14 -69 -30.5t-85.5 -28.5t-84 -14.5t-64.5 12.5z" />
    <glyph glyph-name="Ebreve" unicode="&#x114;" horiz-adv-x="1220" 
d="M-121 139q18 69 40 151.5t47 172t52.5 183.5t55.5 185.5t55.5 178t53.5 161.5t49.5 136.5t43.5 102.5q9 18 48 35t99 32.5t134.5 29t154 24.5t158.5 20t147 15t120 9.5t77 3.5q57 0 91.5 -23.5t34.5 -79.5v-9q-177 -48 -349.5 -93t-351.5 -74q-22 -3 -34.5 -9.5
t-20 -16.5t-12 -24.5t-9.5 -35.5q-9 -39 -19 -68.5t-19.5 -56.5t-19.5 -56t-20 -68q28 2 72.5 9t92.5 14.5t93.5 13.5t76.5 6q42 0 69 -11t43 -30t22 -45t6 -55v-13q-64 -20 -117 -32.5t-104 -21.5t-103 -16.5t-114 -19.5q-41 -8 -62.5 -11.5t-33 -10.5t-18.5 -21.5
t-19 -45.5q-23 -56 -45.5 -116t-43.5 -118t-38.5 -111.5t-30.5 -96.5q70 7 145.5 23.5t154.5 37t159 42.5t159 40t155 29.5t146 11.5q35 0 49 -16t14 -39q0 -17 -4 -33t-9 -33q-82 -27 -167.5 -60.5t-174 -69t-180.5 -70t-186 -64.5q-27 -9 -84.5 -21t-128 -24t-146 -22.5
t-138.5 -16.5zM827 1630q-35 1 -62.5 12.5t-50.5 30.5t-43.5 43t-40.5 50q-17 22 -27 44t-10.5 42.5t9.5 39t33 35.5q-1 -1 3.5 -14.5t14 -32.5t24.5 -39.5t34.5 -35t43.5 -19t52 7.5t60 45t67 94q26 -13 46 -28.5t37.5 -32t34.5 -33t37 -31.5q11 -8 10 -21.5t-9 -29
t-20 -30.5t-23 -26q-38 -36 -97.5 -54.5t-122.5 -16.5z" />
    <glyph glyph-name="aacute" unicode="&#xe1;" horiz-adv-x="1295" 
d="M27 108q-47 91 -62.5 171.5t-5.5 151t42 131.5t80 113q73 78 147.5 123.5t151.5 53t159 -27.5t170 -117q11 12 27.5 21t35 10.5t38.5 -6.5t38 -29q32 -38 49 -61.5t18.5 -46t-13 -50t-44.5 -73.5q-55 -82 -90.5 -156.5t-52.5 -156.5q-8 -37 20.5 -34t79.5 33t117 80.5
t134 108t130.5 115.5t106.5 104q30 -31 43 -61.5t14 -58.5t-6.5 -51t-17.5 -38q-80 -120 -187.5 -214t-234.5 -160q-53 -28 -108.5 -42.5t-108.5 -14.5t-101.5 14t-88.5 43q-24 18 -33.5 37t-9.5 39t6 40t13 40q-71 -47 -147.5 -65t-142 -16.5t-111 16.5t-55.5 34zM499 669
q-18 -4 -43.5 -23.5t-53.5 -49t-55.5 -65.5t-50.5 -73.5t-39.5 -73.5t-21 -64.5t5 -47t37.5 -20.5q62 -5 117.5 26t102.5 82t85.5 114t65.5 121q5 11 -8 26.5t-35.5 28t-51.5 19t-55 0.5zM578 927q-10 6 -18.5 13t-13 14.5t-4 16.5t9.5 20q25 34 50 58.5t48 46.5t45 45.5
t43 55.5q30 -13 55 -25t47.5 -24.5t44 -26t44.5 -28.5q12 -8 11.5 -23t-9 -31t-22.5 -30t-28 -21q-27 -14 -69 -30.5t-85.5 -28.5t-84 -14.5t-64.5 12.5z" />
    <glyph glyph-name="abreve" unicode="&#x103;" horiz-adv-x="1295" 
d="M27 108q-47 91 -62.5 171.5t-5.5 151t42 131.5t80 113q73 78 147.5 123.5t151.5 53t159 -27.5t170 -117q11 12 27.5 21t35 10.5t38.5 -6.5t38 -29q32 -38 49 -61.5t18.5 -46t-13 -50t-44.5 -73.5q-55 -82 -90.5 -156.5t-52.5 -156.5q-8 -37 20.5 -34t79.5 33t117 80.5
t134 108t130.5 115.5t106.5 104q30 -31 43 -61.5t14 -58.5t-6.5 -51t-17.5 -38q-80 -120 -187.5 -214t-234.5 -160q-53 -28 -108.5 -42.5t-108.5 -14.5t-101.5 14t-88.5 43q-24 18 -33.5 37t-9.5 39t6 40t13 40q-71 -47 -147.5 -65t-142 -16.5t-111 16.5t-55.5 34zM499 669
q-18 -4 -43.5 -23.5t-53.5 -49t-55.5 -65.5t-50.5 -73.5t-39.5 -73.5t-21 -64.5t5 -47t37.5 -20.5q62 -5 117.5 26t102.5 82t85.5 114t65.5 121q5 11 -8 26.5t-35.5 28t-51.5 19t-55 0.5zM695 910q-35 1 -62.5 12.5t-50.5 30.5t-43.5 43t-40.5 50q-17 22 -27 44t-10.5 42.5
t9.5 39t33 35.5q-1 -1 3.5 -14.5t14 -32.5t24.5 -39.5t34.5 -35t43.5 -19t52 7.5t60 45t67 94q26 -13 46 -28.5t37.5 -32t34.5 -33t37 -31.5q11 -8 10 -21.5t-9 -29t-20 -30.5t-23 -26q-38 -36 -97.5 -54.5t-122.5 -16.5z" />
    <glyph glyph-name="cacute" unicode="&#x107;" horiz-adv-x="928" 
d="M1006 404q-36 -39 -81 -76t-89.5 -69t-84 -57t-63.5 -40q-19 -12 -47.5 -32t-64 -42t-75 -44.5t-78.5 -38.5t-76.5 -23t-68.5 0q-39 9 -85.5 31.5t-84.5 48.5q-42 29 -72.5 53t-49.5 49.5t-28 55.5t-9 71q0 86 17 160.5t50 142t81.5 128.5t111.5 120q30 28 70 60
t84.5 59.5t90.5 45.5t88 18q49 0 88.5 -18.5t67 -50t42 -72.5t14.5 -86q0 -44 -12 -77.5t-32.5 -62t-47 -54.5t-55.5 -56q-14 2 -20.5 11.5t-13.5 19.5l-101 143q-41 -21 -78.5 -57.5t-66.5 -80t-46.5 -91.5t-17.5 -92q0 -23 2.5 -48t8.5 -49t16 -45.5t25 -37.5
q54 16 111 37.5t128 58.5t162.5 95t213.5 148q14 5 29 6t28.5 -1t23.5 -6t14 -10q10 -14 14 -32t2 -37.5t-10.5 -39t-24.5 -36.5zM516 1131q-10 6 -18.5 13t-13 14.5t-4 16.5t9.5 20q25 34 50 58.5t48 46.5t45 45.5t43 55.5q30 -13 55 -25t47.5 -24.5t44 -26t44.5 -28.5
q12 -8 11.5 -23t-9 -31t-22.5 -30t-28 -21q-27 -14 -69 -30.5t-85.5 -28.5t-84 -14.5t-64.5 12.5z" />
    <glyph glyph-name="acircumflex" unicode="&#xe2;" horiz-adv-x="1295" 
d="M27 108q-47 91 -62.5 171.5t-5.5 151t42 131.5t80 113q73 78 147.5 123.5t151.5 53t159 -27.5t170 -117q11 12 27.5 21t35 10.5t38.5 -6.5t38 -29q32 -38 49 -61.5t18.5 -46t-13 -50t-44.5 -73.5q-55 -82 -90.5 -156.5t-52.5 -156.5q-8 -37 20.5 -34t79.5 33t117 80.5
t134 108t130.5 115.5t106.5 104q30 -31 43 -61.5t14 -58.5t-6.5 -51t-17.5 -38q-80 -120 -187.5 -214t-234.5 -160q-53 -28 -108.5 -42.5t-108.5 -14.5t-101.5 14t-88.5 43q-24 18 -33.5 37t-9.5 39t6 40t13 40q-71 -47 -147.5 -65t-142 -16.5t-111 16.5t-55.5 34zM499 669
q-18 -4 -43.5 -23.5t-53.5 -49t-55.5 -65.5t-50.5 -73.5t-39.5 -73.5t-21 -64.5t5 -47t37.5 -20.5q62 -5 117.5 26t102.5 82t85.5 114t65.5 121q5 11 -8 26.5t-35.5 28t-51.5 19t-55 0.5zM447 995q0 11 10 24q6 8 36.5 32.5t72 55.5t88.5 65t87 62.5t66.5 47t27.5 18.5
q22 0 35.5 -31.5t24.5 -75.5t22.5 -91.5t29.5 -80.5q7 -12 13.5 -27.5t6.5 -37.5q0 -16 -9 -26q-34 6 -52.5 17t-31.5 27t-24.5 35.5t-30.5 41.5q-27 -22 -61.5 -41.5t-72 -34.5t-75 -24t-71.5 -9q-12 0 -27.5 3.5t-30 10t-24.5 16.5t-10 23z" />
    <glyph glyph-name="adieresis" unicode="&#xe4;" horiz-adv-x="1295" 
d="M27 108q-47 91 -62.5 171.5t-5.5 151t42 131.5t80 113q73 78 147.5 123.5t151.5 53t159 -27.5t170 -117q11 12 27.5 21t35 10.5t38.5 -6.5t38 -29q32 -38 49 -61.5t18.5 -46t-13 -50t-44.5 -73.5q-55 -82 -90.5 -156.5t-52.5 -156.5q-8 -37 20.5 -34t79.5 33t117 80.5
t134 108t130.5 115.5t106.5 104q30 -31 43 -61.5t14 -58.5t-6.5 -51t-17.5 -38q-80 -120 -187.5 -214t-234.5 -160q-53 -28 -108.5 -42.5t-108.5 -14.5t-101.5 14t-88.5 43q-24 18 -33.5 37t-9.5 39t6 40t13 40q-71 -47 -147.5 -65t-142 -16.5t-111 16.5t-55.5 34zM499 669
q-18 -4 -43.5 -23.5t-53.5 -49t-55.5 -65.5t-50.5 -73.5t-39.5 -73.5t-21 -64.5t5 -47t37.5 -20.5q62 -5 117.5 26t102.5 82t85.5 114t65.5 121q5 11 -8 26.5t-35.5 28t-51.5 19t-55 0.5zM793 1203q30 2 56 4q22 1 43.5 1t30.5 -5q13 -6 27.5 -26.5t27.5 -46.5t21.5 -55.5
t8.5 -53.5q0 -9 -3.5 -19.5t-11.5 -19.5t-20.5 -15t-30.5 -6q-24 0 -51.5 7.5t-52.5 20t-44 28t-25 31.5q-10 27 -10 55q0 26 9 51t25 49zM648 1199q13 -6 26.5 -21.5t24.5 -36t18.5 -45t7.5 -48.5q0 -9 -11 -24t-28.5 -28.5t-37.5 -23.5t-38 -10q-24 0 -43.5 8.5t-34.5 22
t-26 30t-17 32.5q-10 27 -10 55q0 29 12 54t34 39t53 14.5t70 -18.5z" />
    <glyph glyph-name="agrave" unicode="&#xe0;" horiz-adv-x="1295" 
d="M27 108q-47 91 -62.5 171.5t-5.5 151t42 131.5t80 113q73 78 147.5 123.5t151.5 53t159 -27.5t170 -117q11 12 27.5 21t35 10.5t38.5 -6.5t38 -29q32 -38 49 -61.5t18.5 -46t-13 -50t-44.5 -73.5q-55 -82 -90.5 -156.5t-52.5 -156.5q-8 -37 20.5 -34t79.5 33t117 80.5
t134 108t130.5 115.5t106.5 104q30 -31 43 -61.5t14 -58.5t-6.5 -51t-17.5 -38q-80 -120 -187.5 -214t-234.5 -160q-53 -28 -108.5 -42.5t-108.5 -14.5t-101.5 14t-88.5 43q-24 18 -33.5 37t-9.5 39t6 40t13 40q-71 -47 -147.5 -65t-142 -16.5t-111 16.5t-55.5 34zM499 669
q-18 -4 -43.5 -23.5t-53.5 -49t-55.5 -65.5t-50.5 -73.5t-39.5 -73.5t-21 -64.5t5 -47t37.5 -20.5q62 -5 117.5 26t102.5 82t85.5 114t65.5 121q5 11 -8 26.5t-35.5 28t-51.5 19t-55 0.5zM826 994q7 -6 17.5 -16.5t17.5 -24t8 -28t-9 -27.5q-80 29 -152 69t-144 79
q-26 14 -45.5 41t-27.5 57.5t-3 59.5t29 49q26 21 50 16.5t47.5 -25t47.5 -53.5t50 -69t54 -70.5t60 -57.5z" />
    <glyph glyph-name="amacron" unicode="&#x101;" horiz-adv-x="1295" 
d="M27 108q-47 91 -62.5 171.5t-5.5 151t42 131.5t80 113q73 78 147.5 123.5t151.5 53t159 -27.5t170 -117q11 12 27.5 21t35 10.5t38.5 -6.5t38 -29q32 -38 49 -61.5t18.5 -46t-13 -50t-44.5 -73.5q-55 -82 -90.5 -156.5t-52.5 -156.5q-8 -37 20.5 -34t79.5 33t117 80.5
t134 108t130.5 115.5t106.5 104q30 -31 43 -61.5t14 -58.5t-6.5 -51t-17.5 -38q-80 -120 -187.5 -214t-234.5 -160q-53 -28 -108.5 -42.5t-108.5 -14.5t-101.5 14t-88.5 43q-24 18 -33.5 37t-9.5 39t6 40t13 40q-71 -47 -147.5 -65t-142 -16.5t-111 16.5t-55.5 34zM499 669
q-18 -4 -43.5 -23.5t-53.5 -49t-55.5 -65.5t-50.5 -73.5t-39.5 -73.5t-21 -64.5t5 -47t37.5 -20.5q62 -5 117.5 26t102.5 82t85.5 114t65.5 121q5 11 -8 26.5t-35.5 28t-51.5 19t-55 0.5zM1026 982q-78 -8 -158 -10.5t-158.5 1t-153.5 14.5t-142 31q-13 21 -27 35.5
t-28 37.5q85 12 171 15t173 3.5t175.5 3t178.5 14.5z" />
    <glyph glyph-name="aogonek" unicode="&#x105;" horiz-adv-x="1295" 
d="M27 108q-47 91 -62.5 171.5t-5.5 151t42 131.5t80 113q73 78 147.5 123.5t151.5 53t159 -27.5t170 -117q11 12 27.5 21t35 10.5t38.5 -6.5t38 -29q32 -38 49 -61.5t18.5 -46t-13 -50t-44.5 -73.5q-55 -82 -90.5 -156.5t-52.5 -156.5q-8 -37 20.5 -34t79.5 33t117 80.5
t134 108t130.5 115.5t106.5 104q30 -31 43 -61.5t14 -58.5t-6.5 -51t-17.5 -38q-80 -120 -187.5 -214t-234.5 -160q-53 -28 -108.5 -42.5t-108.5 -14.5t-101.5 14t-88.5 43q-24 18 -33.5 37t-9.5 39t6 40t13 40q-71 -47 -147.5 -65t-142 -16.5t-111 16.5t-55.5 34zM499 669
q-18 -4 -43.5 -23.5t-53.5 -49t-55.5 -65.5t-50.5 -73.5t-39.5 -73.5t-21 -64.5t5 -47t37.5 -20.5q62 -5 117.5 26t102.5 82t85.5 114t65.5 121q5 11 -8 26.5t-35.5 28t-51.5 19t-55 0.5zM474 -52q0 24 5.5 41t16 28.5t25.5 18.5t35 13q1 0 2 0.5t2 0.5q9 0 9.5 -15.5
t-5 -41.5t-15 -60.5t-20.5 -72.5t-21.5 -76.5t-18.5 -73.5q19 -5 46.5 5t53.5 30.5t46 48.5t25 60q20 -2 41.5 -1.5t39 -3.5t29 -15t11.5 -34q0 -51 -24 -97t-64 -80t-92.5 -53.5t-108.5 -18.5q-73 1 -102.5 23.5t-31.5 58t15.5 79.5t40 88t41.5 83t19 65z" />
    <glyph glyph-name="aring" unicode="&#xe5;" horiz-adv-x="1295" 
d="M27 108q-47 91 -62.5 171.5t-5.5 151t42 131.5t80 113q73 78 147.5 123.5t151.5 53t159 -27.5t170 -117q11 12 27.5 21t35 10.5t38.5 -6.5t38 -29q32 -38 49 -61.5t18.5 -46t-13 -50t-44.5 -73.5q-55 -82 -90.5 -156.5t-52.5 -156.5q-8 -37 20.5 -34t79.5 33t117 80.5
t134 108t130.5 115.5t106.5 104q30 -31 43 -61.5t14 -58.5t-6.5 -51t-17.5 -38q-80 -120 -187.5 -214t-234.5 -160q-53 -28 -108.5 -42.5t-108.5 -14.5t-101.5 14t-88.5 43q-24 18 -33.5 37t-9.5 39t6 40t13 40q-71 -47 -147.5 -65t-142 -16.5t-111 16.5t-55.5 34zM499 669
q-18 -4 -43.5 -23.5t-53.5 -49t-55.5 -65.5t-50.5 -73.5t-39.5 -73.5t-21 -64.5t5 -47t37.5 -20.5q62 -5 117.5 26t102.5 82t85.5 114t65.5 121q5 11 -8 26.5t-35.5 28t-51.5 19t-55 0.5zM833 1288q39 1 67.5 -20t46.5 -49.5t25 -57.5t2 -44q-20 -56 -47 -101.5t-64.5 -78.5
t-87.5 -52t-116 -22q-6 0 -19.5 10t-30.5 26t-35.5 35.5t-32.5 39t-22 36.5t-5 28q22 72 59 119.5t80.5 76.5t90 41t89.5 13zM805 1164q-24 4 -46.5 -17.5t-36.5 -51.5q-6 -12 -13 -24.5t-10 -23t0 -20t17 -15.5q10 -4 24 4.5t28 22t25.5 28t14.5 22.5q3 4 5 13.5t2.5 20.5
t-2 22t-8.5 19z" />
    <glyph glyph-name="atilde" unicode="&#xe3;" horiz-adv-x="1295" 
d="M27 108q-47 91 -62.5 171.5t-5.5 151t42 131.5t80 113q73 78 147.5 123.5t151.5 53t159 -27.5t170 -117q11 12 27.5 21t35 10.5t38.5 -6.5t38 -29q32 -38 49 -61.5t18.5 -46t-13 -50t-44.5 -73.5q-55 -82 -90.5 -156.5t-52.5 -156.5q-8 -37 20.5 -34t79.5 33t117 80.5
t134 108t130.5 115.5t106.5 104q30 -31 43 -61.5t14 -58.5t-6.5 -51t-17.5 -38q-80 -120 -187.5 -214t-234.5 -160q-53 -28 -108.5 -42.5t-108.5 -14.5t-101.5 14t-88.5 43q-24 18 -33.5 37t-9.5 39t6 40t13 40q-71 -47 -147.5 -65t-142 -16.5t-111 16.5t-55.5 34zM499 669
q-18 -4 -43.5 -23.5t-53.5 -49t-55.5 -65.5t-50.5 -73.5t-39.5 -73.5t-21 -64.5t5 -47t37.5 -20.5q62 -5 117.5 26t102.5 82t85.5 114t65.5 121q5 11 -8 26.5t-35.5 28t-51.5 19t-55 0.5zM421 915q-16 14 -25 28t5 37q20 35 40 69t42.5 64t49.5 53.5t62 36.5q0 -1 2 -1
q8 7 23.5 -3.5t36 -32.5t46 -52.5t52.5 -64.5q31 41 60.5 76.5t53.5 82.5q24 -13 39 -25t28 -24t26 -24.5t31 -27.5q10 -8 8 -22t-9.5 -29.5t-18 -30.5t-18.5 -25q-21 -24 -51.5 -46t-62.5 -36t-61.5 -16.5t-49.5 12.5q-19 12 -31.5 21t-21.5 17.5t-16.5 16t-14.5 16.5
q-23 -14 -53.5 -32.5t-62 -32t-61 -17t-48.5 11.5z" />
    <glyph glyph-name="ae" unicode="&#xe6;" horiz-adv-x="1496" 
d="M463 52q1 23 9 48.5t15 45.5q-71 -47 -147.5 -65t-142 -16.5t-111 16.5t-55.5 34q-47 91 -62.5 171.5t-5.5 151t42 131.5t80 113q73 78 147.5 123.5t151.5 53t159 -27.5t170 -117l4 5q39 50 84 92.5t94.5 74t101.5 49.5t105 18q103 0 156.5 -48t53.5 -142
q0 -56 -19.5 -102t-52.5 -84.5t-76.5 -69t-91 -56t-96.5 -46t-92 -38.5q-16 -27 -24 -49t-8 -59q0 -39 18 -61.5t75 -22.5t120 30.5t123.5 75.5t115.5 95.5t96 91.5q11 11 29.5 31t41.5 39.5t49 34t52 14.5q9 0 19.5 1t19.5 -2t14.5 -11.5t5.5 -27.5q0 -48 -16.5 -89.5
t-41.5 -76.5q-22 -31 -61 -74t-88.5 -90t-105.5 -93t-111.5 -82.5t-106.5 -59t-90 -22.5q-9 0 -28.5 6t-45 15.5t-54 21.5t-55.5 24t-49 23t-35 18t-24.5 15t-22.5 16q-23 -62 -42.5 -88.5t-44.5 -31.5zM503 676q-18 -4 -43.5 -23.5t-53.5 -49t-55.5 -65.5t-50.5 -73.5
t-39.5 -73.5t-21 -64.5t5 -47t37.5 -20.5q49 -4 93.5 15t84.5 52.5t74.5 78.5t63.5 93q11 31 23.5 61t29.5 59q-6 12 -21.5 24t-36.5 21.5t-44.5 13.5t-45.5 -1zM969 614q31 3 60 20t54.5 42t46 55t34.5 58q-5 2 -9 5t-8 3q-33 -4 -62 -24t-52 -47t-39.5 -57t-24.5 -55z" />
    <glyph glyph-name="aeacute" unicode="&#x1fd;" horiz-adv-x="1496" 
d="M463 52q1 23 9 48.5t15 45.5q-71 -47 -147.5 -65t-142 -16.5t-111 16.5t-55.5 34q-47 91 -62.5 171.5t-5.5 151t42 131.5t80 113q73 78 147.5 123.5t151.5 53t159 -27.5t170 -117l4 5q39 50 84 92.5t94.5 74t101.5 49.5t105 18q103 0 156.5 -48t53.5 -142
q0 -56 -19.5 -102t-52.5 -84.5t-76.5 -69t-91 -56t-96.5 -46t-92 -38.5q-16 -27 -24 -49t-8 -59q0 -39 18 -61.5t75 -22.5t120 30.5t123.5 75.5t115.5 95.5t96 91.5q11 11 29.5 31t41.5 39.5t49 34t52 14.5q9 0 19.5 1t19.5 -2t14.5 -11.5t5.5 -27.5q0 -48 -16.5 -89.5
t-41.5 -76.5q-22 -31 -61 -74t-88.5 -90t-105.5 -93t-111.5 -82.5t-106.5 -59t-90 -22.5q-9 0 -28.5 6t-45 15.5t-54 21.5t-55.5 24t-49 23t-35 18t-24.5 15t-22.5 16q-23 -62 -42.5 -88.5t-44.5 -31.5zM503 676q-18 -4 -43.5 -23.5t-53.5 -49t-55.5 -65.5t-50.5 -73.5
t-39.5 -73.5t-21 -64.5t5 -47t37.5 -20.5q49 -4 93.5 15t84.5 52.5t74.5 78.5t63.5 93q11 31 23.5 61t29.5 59q-6 12 -21.5 24t-36.5 21.5t-44.5 13.5t-45.5 -1zM969 614q31 3 60 20t54.5 42t46 55t34.5 58q-5 2 -9 5t-8 3q-33 -4 -62 -24t-52 -47t-39.5 -57t-24.5 -55z
M781 991q-10 6 -18.5 13t-13 14.5t-4 16.5t9.5 20q25 34 50 58.5t48 46.5t45 45.5t43 55.5q30 -13 55 -25t47.5 -24.5t44 -26t44.5 -28.5q12 -8 11.5 -23t-9 -31t-22.5 -30t-28 -21q-27 -14 -69 -30.5t-85.5 -28.5t-84 -14.5t-64.5 12.5z" />
    <glyph glyph-name="ccaron" unicode="&#x10d;" horiz-adv-x="928" 
d="M1006 404q-36 -39 -81 -76t-89.5 -69t-84 -57t-63.5 -40q-19 -12 -47.5 -32t-64 -42t-75 -44.5t-78.5 -38.5t-76.5 -23t-68.5 0q-39 9 -85.5 31.5t-84.5 48.5q-42 29 -72.5 53t-49.5 49.5t-28 55.5t-9 71q0 86 17 160.5t50 142t81.5 128.5t111.5 120q30 28 70 60
t84.5 59.5t90.5 45.5t88 18q49 0 88.5 -18.5t67 -50t42 -72.5t14.5 -86q0 -44 -12 -77.5t-32.5 -62t-47 -54.5t-55.5 -56q-14 2 -20.5 11.5t-13.5 19.5l-101 143q-41 -21 -78.5 -57.5t-66.5 -80t-46.5 -91.5t-17.5 -92q0 -23 2.5 -48t8.5 -49t16 -45.5t25 -37.5
q54 16 111 37.5t128 58.5t162.5 95t213.5 148q14 5 29 6t28.5 -1t23.5 -6t14 -10q10 -14 14 -32t2 -37.5t-10.5 -39t-24.5 -36.5zM620 1100q-33 19 -55.5 34.5t-42 31t-40 33.5t-49.5 42q-21 18 -31.5 39t-10 43t12 42t34.5 37q9 7 25.5 -8t39 -43.5t50 -66t58.5 -75.5
q20 28 41 52t41 47t39 47t35 53q26 -13 46 -28.5t37.5 -32t34.5 -33t37 -31.5q11 -8 10 -23t-8.5 -31.5t-19.5 -31t-24 -21.5q-23 -13 -56.5 -29.5t-69.5 -28.5t-70.5 -17t-58.5 5z" />
    <glyph glyph-name="ccedilla" unicode="&#xe7;" horiz-adv-x="928" 
d="M1029 404q-36 -39 -81 -76t-89.5 -69t-84 -57t-63.5 -40q-19 -12 -47.5 -32t-64 -42t-75 -44.5t-78.5 -38.5t-76.5 -23t-68.5 0q-39 9 -85.5 31.5t-84.5 48.5q-42 29 -72.5 53t-49.5 49.5t-28 55.5t-9 71q0 86 17 160.5t50 142t81.5 128.5t111.5 120q30 28 70 60
t84.5 59.5t90.5 45.5t88 18q49 0 88.5 -18.5t67 -50t42 -72.5t14.5 -86q0 -44 -12 -77.5t-32.5 -62t-47 -54.5t-55.5 -56q-14 2 -20.5 11.5t-13.5 19.5l-101 143q-41 -21 -78.5 -57.5t-66.5 -80t-46.5 -91.5t-17.5 -92q0 -23 2.5 -48t8.5 -49t16 -45.5t25 -37.5
q54 16 111 37.5t128 58.5t162.5 95t213.5 148q14 5 29 6t28.5 -1t23.5 -6t14 -10q10 -14 14 -32t2 -37.5t-10.5 -39t-24.5 -36.5zM-44 -192q18 28 43 34t52.5 3t55.5 -10t53.5 -5.5t45.5 17t31 57.5q12 46 27.5 85t25.5 74q2 7 10 10t18.5 3.5t23.5 0t25 -0.5q2 1 8 -3
q11 -7 12 -39.5t-3 -77t-11 -95t-12 -93.5q-2 -18 -22 -36.5t-45.5 -33.5t-51.5 -25.5t-39 -13.5q-48 -11 -100.5 2.5t-96.5 42.5q-11 7 -23.5 19.5t-21.5 27t-11.5 29.5t6.5 28z" />
    <glyph glyph-name="ccircumflex" unicode="&#x109;" horiz-adv-x="928" 
d="M1006 404q-36 -39 -81 -76t-89.5 -69t-84 -57t-63.5 -40q-19 -12 -47.5 -32t-64 -42t-75 -44.5t-78.5 -38.5t-76.5 -23t-68.5 0q-39 9 -85.5 31.5t-84.5 48.5q-42 29 -72.5 53t-49.5 49.5t-28 55.5t-9 71q0 86 17 160.5t50 142t81.5 128.5t111.5 120q30 28 70 60
t84.5 59.5t90.5 45.5t88 18q49 0 88.5 -18.5t67 -50t42 -72.5t14.5 -86q0 -44 -12 -77.5t-32.5 -62t-47 -54.5t-55.5 -56q-14 2 -20.5 11.5t-13.5 19.5l-101 143q-41 -21 -78.5 -57.5t-66.5 -80t-46.5 -91.5t-17.5 -92q0 -23 2.5 -48t8.5 -49t16 -45.5t25 -37.5
q54 16 111 37.5t128 58.5t162.5 95t213.5 148q14 5 29 6t28.5 -1t23.5 -6t14 -10q10 -14 14 -32t2 -37.5t-10.5 -39t-24.5 -36.5zM335.888 1104.44q0 9.51367 8.63477 20.7568q5.18066 6.91895 31.5166 28.1084q26.335 21.1895 62.1689 48q35.834 26.8115 76.417 56.2168
t75.1211 54.0537q34.5391 24.6494 57.4209 40.6494t23.7451 16q18.9961 0 30.6523 -27.2432q11.6572 -27.2441 21.1553 -65.2979q9.49805 -38.0547 19.4277 -79.1357t25.4727 -69.6221q6.04395 -10.3779 11.6562 -23.7832t5.6123 -32.4326q0 -13.8379 -7.77051 -22.4863
q-29.3584 5.18848 -45.332 14.7021q-15.9746 9.51367 -27.1992 23.3516t-21.1553 30.7031q-9.92969 16.8643 -26.335 35.8916q-23.3135 -19.0273 -53.1035 -35.8916q-29.7891 -16.8652 -62.1689 -29.8379q-32.3799 -12.9736 -64.7598 -20.7568
q-32.3799 -7.78418 -61.7383 -7.78418q-10.3613 0 -23.7451 3.02734q-13.3838 3.02637 -25.9043 8.64844q-12.5195 5.62207 -21.1543 14.2705t-8.63477 19.8916z" />
    <glyph glyph-name="cdotaccent" unicode="&#x10b;" horiz-adv-x="928" 
d="M1006 404q-36 -39 -81 -76t-89.5 -69t-84 -57t-63.5 -40q-19 -12 -47.5 -32t-64 -42t-75 -44.5t-78.5 -38.5t-76.5 -23t-68.5 0q-39 9 -85.5 31.5t-84.5 48.5q-42 29 -72.5 53t-49.5 49.5t-28 55.5t-9 71q0 86 17 160.5t50 142t81.5 128.5t111.5 120q30 28 70 60
t84.5 59.5t90.5 45.5t88 18q49 0 88.5 -18.5t67 -50t42 -72.5t14.5 -86q0 -44 -12 -77.5t-32.5 -62t-47 -54.5t-55.5 -56q-14 2 -20.5 11.5t-13.5 19.5l-101 143q-41 -21 -78.5 -57.5t-66.5 -80t-46.5 -91.5t-17.5 -92q0 -23 2.5 -48t8.5 -49t16 -45.5t25 -37.5
q54 16 111 37.5t128 58.5t162.5 95t213.5 148q14 5 29 6t28.5 -1t23.5 -6t14 -10q10 -14 14 -32t2 -37.5t-10.5 -39t-24.5 -36.5zM589 1344q35 3 66 5q26 2 51.5 1t36.5 -6q15 -8 32 -25t31 -40.5t23.5 -51.5t9.5 -57q0 -11 -9 -29t-24 -35t-35 -29.5t-41 -12.5q-28 0 -55 8
t-50 21.5t-40 31t-24 36.5q-12 33 -12 65q0 31 10.5 60t29.5 58z" />
    <glyph glyph-name="Ecaron" unicode="&#x11a;" horiz-adv-x="1220" 
d="M-121 139q18 69 40 151.5t47 172t52.5 183.5t55.5 185.5t55.5 178t53.5 161.5t49.5 136.5t43.5 102.5q9 18 48 35t99 32.5t134.5 29t154 24.5t158.5 20t147 15t120 9.5t77 3.5q57 0 91.5 -23.5t34.5 -79.5v-9q-177 -48 -349.5 -93t-351.5 -74q-22 -3 -34.5 -9.5
t-20 -16.5t-12 -24.5t-9.5 -35.5q-9 -39 -19 -68.5t-19.5 -56.5t-19.5 -56t-20 -68q28 2 72.5 9t92.5 14.5t93.5 13.5t76.5 6q42 0 69 -11t43 -30t22 -45t6 -55v-13q-64 -20 -117 -32.5t-104 -21.5t-103 -16.5t-114 -19.5q-41 -8 -62.5 -11.5t-33 -10.5t-18.5 -21.5
t-19 -45.5q-23 -56 -45.5 -116t-43.5 -118t-38.5 -111.5t-30.5 -96.5q70 7 145.5 23.5t154.5 37t159 42.5t159 40t155 29.5t146 11.5q35 0 49 -16t14 -39q0 -17 -4 -33t-9 -33q-82 -27 -167.5 -60.5t-174 -69t-180.5 -70t-186 -64.5q-27 -9 -84.5 -21t-128 -24t-146 -22.5
t-138.5 -16.5zM802 1613q-33 19 -55.5 34.5t-42 31t-40 33.5t-49.5 42q-21 18 -31.5 39t-10 43t12 42t34.5 37q9 7 25.5 -8t39 -43.5t50 -66t58.5 -75.5q20 28 41 52t41 47t39 47t35 53q26 -13 46 -28.5t37.5 -32t34.5 -33t37 -31.5q11 -8 10 -23t-8.5 -31.5t-19.5 -31
t-24 -21.5q-23 -13 -56.5 -29.5t-69.5 -28.5t-70.5 -17t-58.5 5z" />
    <glyph glyph-name="Ecircumflex" unicode="&#xca;" horiz-adv-x="1220" 
d="M-121 139q18 69 40 151.5t47 172t52.5 183.5t55.5 185.5t55.5 178t53.5 161.5t49.5 136.5t43.5 102.5q9 18 48 35t99 32.5t134.5 29t154 24.5t158.5 20t147 15t120 9.5t77 3.5q57 0 91.5 -23.5t34.5 -79.5v-9q-177 -48 -349.5 -93t-351.5 -74q-22 -3 -34.5 -9.5
t-20 -16.5t-12 -24.5t-9.5 -35.5q-9 -39 -19 -68.5t-19.5 -56.5t-19.5 -56t-20 -68q28 2 72.5 9t92.5 14.5t93.5 13.5t76.5 6q42 0 69 -11t43 -30t22 -45t6 -55v-13q-64 -20 -117 -32.5t-104 -21.5t-103 -16.5t-114 -19.5q-41 -8 -62.5 -11.5t-33 -10.5t-18.5 -21.5
t-19 -45.5q-23 -56 -45.5 -116t-43.5 -118t-38.5 -111.5t-30.5 -96.5q70 7 145.5 23.5t154.5 37t159 42.5t159 40t155 29.5t146 11.5q35 0 49 -16t14 -39q0 -17 -4 -33t-9 -33q-82 -27 -167.5 -60.5t-174 -69t-180.5 -70t-186 -64.5q-27 -9 -84.5 -21t-128 -24t-146 -22.5
t-138.5 -16.5zM528 1681q0 11 10 24q6 8 36.5 32.5t72 55.5t88.5 65t87 62.5t66.5 47t27.5 18.5q22 0 35.5 -31.5t24.5 -75.5t22.5 -91.5t29.5 -80.5q7 -12 13.5 -27.5t6.5 -37.5q0 -16 -9 -26q-34 6 -52.5 17t-31.5 27t-24.5 35.5t-30.5 41.5q-27 -22 -61.5 -41.5
t-72 -34.5t-75 -24t-71.5 -9q-12 0 -27.5 3.5t-30 10t-24.5 16.5t-10 23z" />
    <glyph glyph-name="Edieresis" unicode="&#xcb;" horiz-adv-x="1220" 
d="M-121 139q18 69 40 151.5t47 172t52.5 183.5t55.5 185.5t55.5 178t53.5 161.5t49.5 136.5t43.5 102.5q9 18 48 35t99 32.5t134.5 29t154 24.5t158.5 20t147 15t120 9.5t77 3.5q57 0 91.5 -23.5t34.5 -79.5v-9q-177 -48 -349.5 -93t-351.5 -74q-22 -3 -34.5 -9.5
t-20 -16.5t-12 -24.5t-9.5 -35.5q-9 -39 -19 -68.5t-19.5 -56.5t-19.5 -56t-20 -68q28 2 72.5 9t92.5 14.5t93.5 13.5t76.5 6q42 0 69 -11t43 -30t22 -45t6 -55v-13q-64 -20 -117 -32.5t-104 -21.5t-103 -16.5t-114 -19.5q-41 -8 -62.5 -11.5t-33 -10.5t-18.5 -21.5
t-19 -45.5q-23 -56 -45.5 -116t-43.5 -118t-38.5 -111.5t-30.5 -96.5q70 7 145.5 23.5t154.5 37t159 42.5t159 40t155 29.5t146 11.5q35 0 49 -16t14 -39q0 -17 -4 -33t-9 -33q-82 -27 -167.5 -60.5t-174 -69t-180.5 -70t-186 -64.5q-27 -9 -84.5 -21t-128 -24t-146 -22.5
t-138.5 -16.5zM864 1851q30 2 56 4q22 1 43.5 1t30.5 -5q13 -6 27.5 -26.5t27.5 -46.5t21.5 -55.5t8.5 -53.5q0 -9 -3.5 -19.5t-11.5 -19.5t-20.5 -15t-30.5 -6q-24 0 -51.5 7.5t-52.5 20t-44 28t-25 31.5q-10 27 -10 55q0 26 9 51t25 49zM719 1847q13 -6 26.5 -21.5
t24.5 -36t18.5 -45t7.5 -48.5q0 -9 -11 -24t-28.5 -28.5t-37.5 -23.5t-38 -10q-24 0 -43.5 8.5t-34.5 22t-26 30t-17 32.5q-10 27 -10 55q0 29 12 54t34 39t53 14.5t70 -18.5z" />
    <glyph glyph-name="Edotaccent" unicode="&#x116;" horiz-adv-x="1220" 
d="M-121 139q18 69 40 151.5t47 172t52.5 183.5t55.5 185.5t55.5 178t53.5 161.5t49.5 136.5t43.5 102.5q9 18 48 35t99 32.5t134.5 29t154 24.5t158.5 20t147 15t120 9.5t77 3.5q57 0 91.5 -23.5t34.5 -79.5v-9q-177 -48 -349.5 -93t-351.5 -74q-22 -3 -34.5 -9.5
t-20 -16.5t-12 -24.5t-9.5 -35.5q-9 -39 -19 -68.5t-19.5 -56.5t-19.5 -56t-20 -68q28 2 72.5 9t92.5 14.5t93.5 13.5t76.5 6q42 0 69 -11t43 -30t22 -45t6 -55v-13q-64 -20 -117 -32.5t-104 -21.5t-103 -16.5t-114 -19.5q-41 -8 -62.5 -11.5t-33 -10.5t-18.5 -21.5
t-19 -45.5q-23 -56 -45.5 -116t-43.5 -118t-38.5 -111.5t-30.5 -96.5q70 7 145.5 23.5t154.5 37t159 42.5t159 40t155 29.5t146 11.5q35 0 49 -16t14 -39q0 -17 -4 -33t-9 -33q-82 -27 -167.5 -60.5t-174 -69t-180.5 -70t-186 -64.5q-27 -9 -84.5 -21t-128 -24t-146 -22.5
t-138.5 -16.5zM752 1898q35 3 66 5q26 2 51.5 1t36.5 -6q15 -8 32 -25t31 -40.5t23.5 -51.5t9.5 -57q0 -11 -9 -29t-24 -35t-35 -29.5t-41 -12.5q-28 0 -55 8t-50 21.5t-40 31t-24 36.5q-12 33 -12 65q0 31 10.5 60t29.5 58z" />
    <glyph glyph-name="Egrave" unicode="&#xc8;" horiz-adv-x="1220" 
d="M-121 139q18 69 40 151.5t47 172t52.5 183.5t55.5 185.5t55.5 178t53.5 161.5t49.5 136.5t43.5 102.5q9 18 48 35t99 32.5t134.5 29t154 24.5t158.5 20t147 15t120 9.5t77 3.5q57 0 91.5 -23.5t34.5 -79.5v-9q-177 -48 -349.5 -93t-351.5 -74q-22 -3 -34.5 -9.5
t-20 -16.5t-12 -24.5t-9.5 -35.5q-9 -39 -19 -68.5t-19.5 -56.5t-19.5 -56t-20 -68q28 2 72.5 9t92.5 14.5t93.5 13.5t76.5 6q42 0 69 -11t43 -30t22 -45t6 -55v-13q-64 -20 -117 -32.5t-104 -21.5t-103 -16.5t-114 -19.5q-41 -8 -62.5 -11.5t-33 -10.5t-18.5 -21.5
t-19 -45.5q-23 -56 -45.5 -116t-43.5 -118t-38.5 -111.5t-30.5 -96.5q70 7 145.5 23.5t154.5 37t159 42.5t159 40t155 29.5t146 11.5q35 0 49 -16t14 -39q0 -17 -4 -33t-9 -33q-82 -27 -167.5 -60.5t-174 -69t-180.5 -70t-186 -64.5q-27 -9 -84.5 -21t-128 -24t-146 -22.5
t-138.5 -16.5zM891 1722q7 -6 17.5 -16.5t17.5 -24t8 -28t-9 -27.5q-80 29 -152 69t-144 79q-26 14 -45.5 41t-27.5 57.5t-3 59.5t29 49q26 21 50 16.5t47.5 -25t47.5 -53.5t50 -69t54 -70.5t60 -57.5z" />
    <glyph glyph-name="Emacron" unicode="&#x112;" horiz-adv-x="1220" 
d="M-121 139q18 69 40 151.5t47 172t52.5 183.5t55.5 185.5t55.5 178t53.5 161.5t49.5 136.5t43.5 102.5q9 18 48 35t99 32.5t134.5 29t154 24.5t158.5 20t147 15t120 9.5t77 3.5q57 0 91.5 -23.5t34.5 -79.5v-9q-177 -48 -349.5 -93t-351.5 -74q-22 -3 -34.5 -9.5
t-20 -16.5t-12 -24.5t-9.5 -35.5q-9 -39 -19 -68.5t-19.5 -56.5t-19.5 -56t-20 -68q28 2 72.5 9t92.5 14.5t93.5 13.5t76.5 6q42 0 69 -11t43 -30t22 -45t6 -55v-13q-64 -20 -117 -32.5t-104 -21.5t-103 -16.5t-114 -19.5q-41 -8 -62.5 -11.5t-33 -10.5t-18.5 -21.5
t-19 -45.5q-23 -56 -45.5 -116t-43.5 -118t-38.5 -111.5t-30.5 -96.5q70 7 145.5 23.5t154.5 37t159 42.5t159 40t155 29.5t146 11.5q35 0 49 -16t14 -39q0 -17 -4 -33t-9 -33q-82 -27 -167.5 -60.5t-174 -69t-180.5 -70t-186 -64.5q-27 -9 -84.5 -21t-128 -24t-146 -22.5
t-138.5 -16.5zM1146 1676q-78 -8 -158 -10.5t-158.5 1t-153.5 14.5t-142 31q-13 21 -27 35.5t-28 37.5q85 12 171 15t173 3.5t175.5 3t178.5 14.5z" />
    <glyph glyph-name="Eogonek" unicode="&#x118;" horiz-adv-x="1220" 
d="M-121 139q18 69 40 151.5t47 172t52.5 183.5t55.5 185.5t55.5 178t53.5 161.5t49.5 136.5t43.5 102.5q9 18 48 35t99 32.5t134.5 29t154 24.5t158.5 20t147 15t120 9.5t77 3.5q57 0 91.5 -23.5t34.5 -79.5v-9q-177 -48 -349.5 -93t-351.5 -74q-22 -3 -34.5 -9.5
t-20 -16.5t-12 -24.5t-9.5 -35.5q-9 -39 -19 -68.5t-19.5 -56.5t-19.5 -56t-20 -68q28 2 72.5 9t92.5 14.5t93.5 13.5t76.5 6q42 0 69 -11t43 -30t22 -45t6 -55v-13q-64 -20 -117 -32.5t-104 -21.5t-103 -16.5t-114 -19.5q-41 -8 -62.5 -11.5t-33 -10.5t-18.5 -21.5
t-19 -45.5q-23 -56 -45.5 -116t-43.5 -118t-38.5 -111.5t-30.5 -96.5q70 7 145.5 23.5t154.5 37t159 42.5t159 40t155 29.5t146 11.5q35 0 49 -16t14 -39q0 -17 -4 -33t-9 -33q-82 -27 -167.5 -60.5t-174 -69t-180.5 -70t-186 -64.5q-27 -9 -84.5 -21t-128 -24t-146 -22.5
t-138.5 -16.5zM440 11q0 24 5.5 41t16 28.5t25.5 18.5t35 13q1 0 2 0.5t2 0.5q9 0 9.5 -15.5t-5 -41.5t-15 -60.5t-20.5 -72.5t-21.5 -76.5t-18.5 -73.5q19 -5 46.5 5t53.5 30.5t46 48.5t25 60q20 -2 41.5 -1.5t39 -3.5t29 -15t11.5 -34q0 -51 -24 -97t-64 -80t-92.5 -53.5
t-108.5 -18.5q-73 1 -102.5 23.5t-31.5 58t15.5 79.5t40 88t41.5 83t19 65z" />
    <glyph glyph-name="Gbreve" unicode="&#x11e;" horiz-adv-x="1445" 
d="M567 775q104 32 202 63.5t193.5 56.5t189.5 40.5t191 15.5q40 0 62.5 -9t24.5 -35q2 -21 4 -48t4 -55t3.5 -55t2.5 -49l-101 -13q14 -21 23 -36.5t14.5 -29t7.5 -26.5t2 -29q0 -49 -34.5 -101t-93 -103.5t-135 -101.5t-160.5 -94.5t-170.5 -82t-164 -64.5t-141.5 -42.5
t-103 -15.5q-33 0 -70 19.5t-75.5 50t-76 69t-70.5 76t-60 71t-44 54.5q-26 31 -37 73t-11 93q0 68 13 155.5t40 174t67.5 162t95.5 120.5q58 47 138.5 96.5t175 96t198 87t209 71t208 48t193.5 17.5q24 0 47 -9t45 -30t44 -56t45 -87q-89 -35 -177.5 -62.5t-177 -52.5
t-175 -50.5t-170.5 -57.5t-165 -73t-157 -96q-18 -13 -38.5 -40t-40.5 -63.5t-39 -80t-33.5 -89t-23 -90t-8.5 -83.5q0 -31 16.5 -65t41 -67.5t54.5 -64t58.5 -54t52 -37.5t35.5 -14q23 2 65 15.5t96 34.5t115 48t121.5 57.5t116 62t97.5 62t67.5 57t25.5 47.5q0 12 -3 29.5
t-9 34t-15 28.5t-20 12q-62 0 -109.5 -8.5t-95.5 -22.5t-105 -32t-138 -38q-14 -3 -26 -3q-26 0 -47.5 19t-38 50t-28.5 70t-18 79zM772 1483q-35 1 -62.5 12.5t-50.5 30.5t-43.5 43t-40.5 50q-17 22 -27 44t-10.5 42.5t9.5 39t33 35.5q-1 -1 3.5 -14.5t14 -32.5t24.5 -39.5
t34.5 -35t43.5 -19t52 7.5t60 45t67 94q26 -13 46 -28.5t37.5 -32t34.5 -33t37 -31.5q11 -8 10 -21.5t-9 -29t-20 -30.5t-23 -26q-38 -36 -97.5 -54.5t-122.5 -16.5z" />
    <glyph glyph-name="Gcircumflex" unicode="&#x11c;" horiz-adv-x="1445" 
d="M567 775q104 32 202 63.5t193.5 56.5t189.5 40.5t191 15.5q40 0 62.5 -9t24.5 -35q2 -21 4 -48t4 -55t3.5 -55t2.5 -49l-101 -13q14 -21 23 -36.5t14.5 -29t7.5 -26.5t2 -29q0 -49 -34.5 -101t-93 -103.5t-135 -101.5t-160.5 -94.5t-170.5 -82t-164 -64.5t-141.5 -42.5
t-103 -15.5q-33 0 -70 19.5t-75.5 50t-76 69t-70.5 76t-60 71t-44 54.5q-26 31 -37 73t-11 93q0 68 13 155.5t40 174t67.5 162t95.5 120.5q58 47 138.5 96.5t175 96t198 87t209 71t208 48t193.5 17.5q24 0 47 -9t45 -30t44 -56t45 -87q-89 -35 -177.5 -62.5t-177 -52.5
t-175 -50.5t-170.5 -57.5t-165 -73t-157 -96q-18 -13 -38.5 -40t-40.5 -63.5t-39 -80t-33.5 -89t-23 -90t-8.5 -83.5q0 -31 16.5 -65t41 -67.5t54.5 -64t58.5 -54t52 -37.5t35.5 -14q23 2 65 15.5t96 34.5t115 48t121.5 57.5t116 62t97.5 62t67.5 57t25.5 47.5q0 12 -3 29.5
t-9 34t-15 28.5t-20 12q-62 0 -109.5 -8.5t-95.5 -22.5t-105 -32t-138 -38q-14 -3 -26 -3q-26 0 -47.5 19t-38 50t-28.5 70t-18 79zM528 1573q0 11 10 24q6 8 36.5 32.5t72 55.5t88.5 65t87 62.5t66.5 47t27.5 18.5q22 0 35.5 -31.5t24.5 -75.5t22.5 -91.5t29.5 -80.5
q7 -12 13.5 -27.5t6.5 -37.5q0 -16 -9 -26q-34 6 -52.5 17t-31.5 27t-24.5 35.5t-30.5 41.5q-27 -22 -61.5 -41.5t-72 -34.5t-75 -24t-71.5 -9q-12 0 -27.5 3.5t-30 10t-24.5 16.5t-10 23z" />
    <glyph glyph-name="Gdotaccent" unicode="&#x120;" horiz-adv-x="1445" 
d="M567 775q104 32 202 63.5t193.5 56.5t189.5 40.5t191 15.5q40 0 62.5 -9t24.5 -35q2 -21 4 -48t4 -55t3.5 -55t2.5 -49l-101 -13q14 -21 23 -36.5t14.5 -29t7.5 -26.5t2 -29q0 -49 -34.5 -101t-93 -103.5t-135 -101.5t-160.5 -94.5t-170.5 -82t-164 -64.5t-141.5 -42.5
t-103 -15.5q-33 0 -70 19.5t-75.5 50t-76 69t-70.5 76t-60 71t-44 54.5q-26 31 -37 73t-11 93q0 68 13 155.5t40 174t67.5 162t95.5 120.5q58 47 138.5 96.5t175 96t198 87t209 71t208 48t193.5 17.5q24 0 47 -9t45 -30t44 -56t45 -87q-89 -35 -177.5 -62.5t-177 -52.5
t-175 -50.5t-170.5 -57.5t-165 -73t-157 -96q-18 -13 -38.5 -40t-40.5 -63.5t-39 -80t-33.5 -89t-23 -90t-8.5 -83.5q0 -31 16.5 -65t41 -67.5t54.5 -64t58.5 -54t52 -37.5t35.5 -14q23 2 65 15.5t96 34.5t115 48t121.5 57.5t116 62t97.5 62t67.5 57t25.5 47.5q0 12 -3 29.5
t-9 34t-15 28.5t-20 12q-62 0 -109.5 -8.5t-95.5 -22.5t-105 -32t-138 -38q-14 -3 -26 -3q-26 0 -47.5 19t-38 50t-28.5 70t-18 79zM694 1797q35 3 66 5q26 2 51.5 1t36.5 -6q15 -8 32 -25t31 -40.5t23.5 -51.5t9.5 -57q0 -11 -9 -29t-24 -35t-35 -29.5t-41 -12.5
q-28 0 -55 8t-50 21.5t-40 31t-24 36.5q-12 33 -12 65q0 31 10.5 60t29.5 58z" />
    <glyph glyph-name="Hcircumflex" unicode="&#x124;" horiz-adv-x="1353" 
d="M443 1568q17 35 34 52t39 17q13 0 42.5 -4t64 -11.5t67 -19t52.5 -25.5q-14 -39 -35.5 -94t-46.5 -119.5t-52.5 -134.5t-52.5 -139.5t-46.5 -134t-35.5 -116.5q95 11 173.5 23.5t153.5 27t154.5 31.5t176.5 37q27 59 63.5 140.5t74.5 169.5t74.5 172.5t62.5 149.5
q24 60 48 89t54 29q9 0 29 -4.5t44 -12.5t50.5 -19.5t47.5 -26t35 -32t14 -36.5q-36 -121 -82 -249t-99 -260t-109.5 -266t-112 -267t-108 -262.5t-96.5 -251.5q-50 0 -88.5 8t-72.5 22.5t-65 35.5t-66 48l234 627q-68 -7 -149 -18.5t-166.5 -26t-170 -30t-159.5 -30.5
l-283 -651q-19 -3 -44.5 1.5t-53.5 14t-56 22.5t-51 28t-38 30t-17 27q-4 20 10.5 76t42 137t65.5 182t83 211.5t93.5 226t97 224.5t93.5 207t83 175zM819 1717q0 11 10 24q6 8 36.5 32.5t72 55.5t88.5 65t87 62.5t66.5 47t27.5 18.5q22 0 35.5 -31.5t24.5 -75.5t22.5 -91.5
t29.5 -80.5q7 -12 13.5 -27.5t6.5 -37.5q0 -16 -9 -26q-34 6 -52.5 17t-31.5 27t-24.5 35.5t-30.5 41.5q-27 -22 -61.5 -41.5t-72 -34.5t-75 -24t-71.5 -9q-12 0 -27.5 3.5t-30 10t-24.5 16.5t-10 23z" />
    <glyph glyph-name="Hbar" unicode="&#x126;" horiz-adv-x="1457" 
d="M443 1568q17 35 34 52t39 17q13 0 42.5 -4t64 -11.5t67 -19t52.5 -25.5q-12 -33 -29.5 -78.5t-38.5 -98.5t-44 -112t-45 -119q172 22 339 47t343 49q39 88 75.5 173.5t63.5 151.5q24 60 48 89t54 29q9 0 29 -4.5t44 -12.5t50.5 -19.5t47.5 -26t35 -32t14 -36.5
q-20 -66 -42 -132.5t-47 -135.5l106 9l-71 -147q-23 -2 -45.5 -4.5t-45.5 -5.5q-55 -143 -116 -289t-122 -290.5t-118.5 -286t-105.5 -274.5q-50 0 -88.5 8t-72.5 22.5t-65 35.5t-66 48l234 627q-68 -7 -149 -18.5t-166.5 -26t-170 -30t-159.5 -30.5l-283 -651
q-19 -3 -44.5 1.5t-53.5 14t-56 22.5t-51 28t-38 30t-17 27q-3 17 7 60.5t30.5 107t49.5 144t64.5 170.5t75 187t80.5 194q-23 1 -45.5 2.5t-44.5 4.5q-2 7 0 22t6 33.5t9.5 38t10.5 34.5q32 2 63 4t63 4q54 125 105 236t94 197zM524 1003q-15 -45 -28.5 -87t-22.5 -77
q95 11 173.5 23.5t153.5 27t154.5 31.5t176.5 37l64 144q-171 -29 -340 -56.5t-331 -42.5z" />
    <glyph glyph-name="Iacute" unicode="&#xcd;" horiz-adv-x="513" 
d="M452 1525q29 -21 62.5 -39t67 -35t63.5 -33.5t53 -34.5q6 -6 -8.5 -53t-42.5 -122t-67.5 -172t-83.5 -202t-90.5 -211.5t-89 -201t-78 -171.5t-57.5 -122q-11 -23 -29 -47t-40.5 -43.5t-49 -32.5t-55.5 -13q-47 0 -63 19t-16 57q0 32 11 92t30 138.5t45.5 171.5
t57.5 191.5t65 199.5t69.5 194.5t70 176t66.5 145.5t60 102t49 46zM529 1623q-10 6 -18.5 13t-13 14.5t-4 16.5t9.5 20q25 34 50 58.5t48 46.5t45 45.5t43 55.5q30 -13 55 -25t47.5 -24.5t44 -26t44.5 -28.5q12 -8 11.5 -23t-9 -31t-22.5 -30t-28 -21q-27 -14 -69 -30.5
t-85.5 -28.5t-84 -14.5t-64.5 12.5z" />
    <glyph glyph-name="Ibreve" unicode="&#x12c;" horiz-adv-x="513" 
d="M452 1525q29 -21 62.5 -39t67 -35t63.5 -33.5t53 -34.5q6 -6 -8.5 -53t-42.5 -122t-67.5 -172t-83.5 -202t-90.5 -211.5t-89 -201t-78 -171.5t-57.5 -122q-11 -23 -29 -47t-40.5 -43.5t-49 -32.5t-55.5 -13q-47 0 -63 19t-16 57q0 32 11 92t30 138.5t45.5 171.5
t57.5 191.5t65 199.5t69.5 194.5t70 176t66.5 145.5t60 102t49 46zM635 1621q-35 1 -62.5 12.5t-50.5 30.5t-43.5 43t-40.5 50q-17 22 -27 44t-10.5 42.5t9.5 39t33 35.5q-1 -1 3.5 -14.5t14 -32.5t24.5 -39.5t34.5 -35t43.5 -19t52 7.5t60 45t67 94q26 -13 46 -28.5
t37.5 -32t34.5 -33t37 -31.5q11 -8 10 -21.5t-9 -29t-20 -30.5t-23 -26q-38 -36 -97.5 -54.5t-122.5 -16.5z" />
    <glyph glyph-name="Icircumflex" unicode="&#xce;" horiz-adv-x="513" 
d="M452 1525q29 -21 62.5 -39t67 -35t63.5 -33.5t53 -34.5q6 -6 -8.5 -53t-42.5 -122t-67.5 -172t-83.5 -202t-90.5 -211.5t-89 -201t-78 -171.5t-57.5 -122q-11 -23 -29 -47t-40.5 -43.5t-49 -32.5t-55.5 -13q-47 0 -63 19t-16 57q0 32 11 92t30 138.5t45.5 171.5
t57.5 191.5t65 199.5t69.5 194.5t70 176t66.5 145.5t60 102t49 46zM334 1656q0 11 10 24q6 8 36.5 32.5t72 55.5t88.5 65t87 62.5t66.5 47t27.5 18.5q22 0 35.5 -31.5t24.5 -75.5t22.5 -91.5t29.5 -80.5q7 -12 13.5 -27.5t6.5 -37.5q0 -16 -9 -26q-34 6 -52.5 17t-31.5 27
t-24.5 35.5t-30.5 41.5q-27 -22 -61.5 -41.5t-72 -34.5t-75 -24t-71.5 -9q-12 0 -27.5 3.5t-30 10t-24.5 16.5t-10 23z" />
    <glyph glyph-name="Idieresis" unicode="&#xcf;" horiz-adv-x="513" 
d="M452 1525q29 -21 62.5 -39t67 -35t63.5 -33.5t53 -34.5q6 -6 -8.5 -53t-42.5 -122t-67.5 -172t-83.5 -202t-90.5 -211.5t-89 -201t-78 -171.5t-57.5 -122q-11 -23 -29 -47t-40.5 -43.5t-49 -32.5t-55.5 -13q-47 0 -63 19t-16 57q0 32 11 92t30 138.5t45.5 171.5
t57.5 191.5t65 199.5t69.5 194.5t70 176t66.5 145.5t60 102t49 46zM665 1787q30 2 56 4q22 1 43.5 1t30.5 -5q13 -6 27.5 -26.5t27.5 -46.5t21.5 -55.5t8.5 -53.5q0 -9 -3.5 -19.5t-11.5 -19.5t-20.5 -15t-30.5 -6q-24 0 -51.5 7.5t-52.5 20t-44 28t-25 31.5q-10 27 -10 55
q0 26 9 51t25 49zM520 1783q13 -6 26.5 -21.5t24.5 -36t18.5 -45t7.5 -48.5q0 -9 -11 -24t-28.5 -28.5t-37.5 -23.5t-38 -10q-24 0 -43.5 8.5t-34.5 22t-26 30t-17 32.5q-10 27 -10 55q0 29 12 54t34 39t53 14.5t70 -18.5z" />
    <glyph glyph-name="Idotaccent" unicode="&#x130;" horiz-adv-x="513" 
d="M452 1525q29 -21 62.5 -39t67 -35t63.5 -33.5t53 -34.5q6 -6 -8.5 -53t-42.5 -122t-67.5 -172t-83.5 -202t-90.5 -211.5t-89 -201t-78 -171.5t-57.5 -122q-11 -23 -29 -47t-40.5 -43.5t-49 -32.5t-55.5 -13q-47 0 -63 19t-16 57q0 32 11 92t30 138.5t45.5 171.5
t57.5 191.5t65 199.5t69.5 194.5t70 176t66.5 145.5t60 102t49 46zM538 1832q35 3 66 5q26 2 51.5 1t36.5 -6q15 -8 32 -25t31 -40.5t23.5 -51.5t9.5 -57q0 -11 -9 -29t-24 -35t-35 -29.5t-41 -12.5q-28 0 -55 8t-50 21.5t-40 31t-24 36.5q-12 33 -12 65q0 31 10.5 60
t29.5 58z" />
    <glyph glyph-name="Igrave" unicode="&#xcc;" horiz-adv-x="513" 
d="M452 1525q29 -21 62.5 -39t67 -35t63.5 -33.5t53 -34.5q6 -6 -8.5 -53t-42.5 -122t-67.5 -172t-83.5 -202t-90.5 -211.5t-89 -201t-78 -171.5t-57.5 -122q-11 -23 -29 -47t-40.5 -43.5t-49 -32.5t-55.5 -13q-47 0 -63 19t-16 57q0 32 11 92t30 138.5t45.5 171.5
t57.5 191.5t65 199.5t69.5 194.5t70 176t66.5 145.5t60 102t49 46zM697 1607q7 -6 17.5 -16.5t17.5 -24t8 -28t-9 -27.5q-80 29 -152 69t-144 79q-26 14 -45.5 41t-27.5 57.5t-3 59.5t29 49q26 21 50 16.5t47.5 -25t47.5 -53.5t50 -69t54 -70.5t60 -57.5z" />
    <glyph glyph-name="Imacron" unicode="&#x12a;" horiz-adv-x="513" 
d="M452 1525q29 -21 62.5 -39t67 -35t63.5 -33.5t53 -34.5q6 -6 -8.5 -53t-42.5 -122t-67.5 -172t-83.5 -202t-90.5 -211.5t-89 -201t-78 -171.5t-57.5 -122q-11 -23 -29 -47t-40.5 -43.5t-49 -32.5t-55.5 -13q-47 0 -63 19t-16 57q0 32 11 92t30 138.5t45.5 171.5
t57.5 191.5t65 199.5t69.5 194.5t70 176t66.5 145.5t60 102t49 46zM910 1608q-78 -8 -158 -10.5t-158.5 1t-153.5 14.5t-142 31q-13 21 -27 35.5t-28 37.5q85 12 171 15t173 3.5t175.5 3t178.5 14.5z" />
    <glyph glyph-name="Iogonek" unicode="&#x12e;" horiz-adv-x="513" 
d="M452 1525q29 -21 62.5 -39t67 -35t63.5 -33.5t53 -34.5q6 -6 -8.5 -53t-42.5 -122t-67.5 -172t-83.5 -202t-90.5 -211.5t-89 -201t-78 -171.5t-57.5 -122q-11 -23 -29 -47t-40.5 -43.5t-49 -32.5t-55.5 -13q-47 0 -63 19t-16 57q0 32 11 92t30 138.5t45.5 171.5
t57.5 191.5t65 199.5t69.5 194.5t70 176t66.5 145.5t60 102t49 46zM-42 24q0 24 5.5 41t16 28.5t25.5 18.5t35 13q1 0 2 0.5t2 0.5q9 0 9.5 -15.5t-5 -41.5t-15 -60.5t-20.5 -72.5t-21.5 -76.5t-18.5 -73.5q19 -5 46.5 5t53.5 30.5t46 48.5t25 60q20 -2 41.5 -1.5t39 -3.5
t29 -15t11.5 -34q0 -51 -24 -97t-64 -80t-92.5 -53.5t-108.5 -18.5q-73 1 -102.5 23.5t-31.5 58t15.5 79.5t40 88t41.5 83t19 65z" />
    <glyph glyph-name="Itilde" unicode="&#x128;" horiz-adv-x="513" 
d="M452 1525q29 -21 62.5 -39t67 -35t63.5 -33.5t53 -34.5q6 -6 -8.5 -53t-42.5 -122t-67.5 -172t-83.5 -202t-90.5 -211.5t-89 -201t-78 -171.5t-57.5 -122q-11 -23 -29 -47t-40.5 -43.5t-49 -32.5t-55.5 -13q-47 0 -63 19t-16 57q0 32 11 92t30 138.5t45.5 171.5
t57.5 191.5t65 199.5t69.5 194.5t70 176t66.5 145.5t60 102t49 46zM354 1597q-16 14 -25 28t5 37q20 35 40 69t42.5 64t49.5 53.5t62 36.5q0 -1 2 -1q8 7 23.5 -3.5t36 -32.5t46 -52.5t52.5 -64.5q31 41 60.5 76.5t53.5 82.5q24 -13 39 -25t28 -24t26 -24.5t31 -27.5
q10 -8 8 -22t-9.5 -29.5t-18 -30.5t-18.5 -25q-21 -24 -51.5 -46t-62.5 -36t-61.5 -16.5t-49.5 12.5q-19 12 -31.5 21t-21.5 17.5t-16.5 16t-14.5 16.5q-23 -14 -53.5 -32.5t-62 -32t-61 -17t-48.5 11.5z" />
    <glyph glyph-name="Jcircumflex" unicode="&#x134;" horiz-adv-x="549" 
d="M279 1256q-24 -14 -48.5 -21t-47.5 -9t-44 -1.5t-40 1.5q-27 1 -47.5 7.5t-35.5 16.5t-24.5 22.5t-15.5 25.5q-14 30 -15 66q154 67 318 121.5t337 78.5q37 5 71.5 9.5t60 1.5t40 -16t13.5 -42q-2 -61 -15 -91t-36 -45t-55.5 -22.5t-73.5 -23.5q-14 -46 -34.5 -122.5
t-49 -174t-64.5 -211.5t-82 -235.5t-102 -246t-123 -243t-146.5 -227t-172 -197.5t-199 -154.5t-228.5 -98.5q-32 -9 -73.5 -9t-77.5 10.5t-59 32t-19 57.5q1 10 22 22.5t48.5 25t55 23.5t42.5 18q68 33 117 68.5t89.5 75.5t77.5 84.5t81 96.5q53 63 101.5 143.5t92 172
t82.5 189.5t73.5 195.5t64.5 190.5t55.5 175t47 149t38.5 111zM235 1691q0 11 10 24q6 8 36.5 32.5t72 55.5t88.5 65t87 62.5t66.5 47t27.5 18.5q22 0 35.5 -31.5t24.5 -75.5t22.5 -91.5t29.5 -80.5q7 -12 13.5 -27.5t6.5 -37.5q0 -16 -9 -26q-34 6 -52.5 17t-31.5 27
t-24.5 35.5t-30.5 41.5q-27 -22 -61.5 -41.5t-72 -34.5t-75 -24t-71.5 -9q-12 0 -27.5 3.5t-30 10t-24.5 16.5t-10 23z" />
    <glyph glyph-name="Lacute" unicode="&#x139;" horiz-adv-x="1177" 
d="M266 266q-2 -3 42.5 1.5t118.5 15t170 25t198 31t200.5 34t178.5 33.5q24 5 45 3t37.5 -12t26 -28.5t9.5 -46.5q0 -20 -7.5 -28t-28.5 -14q-80 -23 -166.5 -51.5t-175 -57t-177 -56.5t-171 -50.5t-157.5 -37.5t-137 -18q-5 0 -11 1.5t-19.5 8.5t-36 21.5t-61 41t-94.5 67
t-136 98.5q12 58 40 138.5t66.5 173t83.5 192.5t91 197.5t89 187.5t77 163.5t56 124.5t26 71q10 55 36 77t60 21.5t72 -19t73 -44t63 -52.5t42 -45q-7 -65 -29 -142.5t-54 -161t-71 -170.5t-81 -171.5t-84.5 -163.5t-81 -147t-70.5 -122.5t-52 -88.5zM710 1623
q-10 6 -18.5 13t-13 14.5t-4 16.5t9.5 20q25 34 50 58.5t48 46.5t45 45.5t43 55.5q30 -13 55 -25t47.5 -24.5t44 -26t44.5 -28.5q12 -8 11.5 -23t-9 -31t-22.5 -30t-28 -21q-27 -14 -69 -30.5t-85.5 -28.5t-84 -14.5t-64.5 12.5z" />
    <glyph glyph-name="Lcaron" unicode="&#x13d;" horiz-adv-x="1177" 
d="M266 266q-2 -3 42.5 1.5t118.5 15t170 25t198 31t200.5 34t178.5 33.5q24 5 45 3t37.5 -12t26 -28.5t9.5 -46.5q0 -20 -7.5 -28t-28.5 -14q-80 -23 -166.5 -51.5t-175 -57t-177 -56.5t-171 -50.5t-157.5 -37.5t-137 -18q-5 0 -11 1.5t-19.5 8.5t-36 21.5t-61 41t-94.5 67
t-136 98.5q12 58 40 138.5t66.5 173t83.5 192.5t91 197.5t89 187.5t77 163.5t56 124.5t26 71q10 55 36 77t60 21.5t72 -19t73 -44t63 -52.5t42 -45q-7 -65 -29 -142.5t-54 -161t-71 -170.5t-81 -171.5t-84.5 -163.5t-81 -147t-70.5 -122.5t-52 -88.5zM696 1644
q-33 19 -55.5 34.5t-42 31t-40 33.5t-49.5 42q-21 18 -31.5 39t-10 43t12 42t34.5 37q9 7 25.5 -8t39 -43.5t50 -66t58.5 -75.5q20 28 41 52t41 47t39 47t35 53q26 -13 46 -28.5t37.5 -32t34.5 -33t37 -31.5q11 -8 10 -23t-8.5 -31.5t-19.5 -31t-24 -21.5
q-23 -13 -56.5 -29.5t-69.5 -28.5t-70.5 -17t-58.5 5z" />
    <glyph glyph-name="Ldot" unicode="&#x13f;" horiz-adv-x="1177" 
d="M266 266q-2 -3 42.5 1.5t118.5 15t170 25t198 31t200.5 34t178.5 33.5q24 5 45 3t37.5 -12t26 -28.5t9.5 -46.5q0 -20 -7.5 -28t-28.5 -14q-80 -23 -166.5 -51.5t-175 -57t-177 -56.5t-171 -50.5t-157.5 -37.5t-137 -18q-5 0 -11 1.5t-19.5 8.5t-36 21.5t-61 41t-94.5 67
t-136 98.5q12 58 40 138.5t66.5 173t83.5 192.5t91 197.5t89 187.5t77 163.5t56 124.5t26 71q10 55 36 77t60 21.5t72 -19t73 -44t63 -52.5t42 -45q-7 -65 -29 -142.5t-54 -161t-71 -170.5t-81 -171.5t-84.5 -163.5t-81 -147t-70.5 -122.5t-52 -88.5zM857 895q0 35 17.5 70
t46 63t63 45.5t69.5 17.5q30 0 60 -21t54 -49t39 -56t15 -42q0 -35 -17.5 -69.5t-46 -62t-64 -45t-70.5 -17.5q-19 0 -47 16t-54.5 40t-45.5 53.5t-19 56.5z" />
    <glyph glyph-name="Nacute" unicode="&#x143;" horiz-adv-x="1353" 
d="M1641 1542q-44 -74 -92.5 -167t-98.5 -198t-100 -218t-96.5 -227t-88 -224.5t-74 -210.5t-55 -185.5t-30.5 -149.5q-2 -11 -10.5 -23t-23 -22t-33 -16.5t-40.5 -6.5q-26 0 -55.5 12t-58.5 44q-29 50 -58 135t-56.5 187t-53.5 213.5t-49.5 215t-45.5 190.5t-40 141
q-13 -42 -34 -104t-47.5 -137t-56.5 -157.5t-60.5 -166t-60 -162.5t-55.5 -146.5t-46.5 -119t-32.5 -79.5q-35 9 -62 26.5t-52 39.5t-49 46t-52 46q51 171 116 346t139 348t154.5 342t161.5 327q20 32 45 32q24 0 44 -30q69 -110 120 -228.5t89.5 -241.5t67 -248.5
t52.5 -249.5q32 97 73.5 198.5t88 203t97.5 199t102 187.5q27 48 61.5 96t78 86.5t97 63t118.5 24.5q4 0 13 -4.5t18 -10.5t17.5 -11t13.5 -5zM923 1551q-10 6 -18.5 13t-13 14.5t-4 16.5t9.5 20q25 34 50 58.5t48 46.5t45 45.5t43 55.5q30 -13 55 -25t47.5 -24.5t44 -26
t44.5 -28.5q12 -8 11.5 -23t-9 -31t-22.5 -30t-28 -21q-27 -14 -69 -30.5t-85.5 -28.5t-84 -14.5t-64.5 12.5z" />
    <glyph glyph-name="Ncaron" unicode="&#x147;" horiz-adv-x="1353" 
d="M1641 1542q-44 -74 -92.5 -167t-98.5 -198t-100 -218t-96.5 -227t-88 -224.5t-74 -210.5t-55 -185.5t-30.5 -149.5q-2 -11 -10.5 -23t-23 -22t-33 -16.5t-40.5 -6.5q-26 0 -55.5 12t-58.5 44q-29 50 -58 135t-56.5 187t-53.5 213.5t-49.5 215t-45.5 190.5t-40 141
q-13 -42 -34 -104t-47.5 -137t-56.5 -157.5t-60.5 -166t-60 -162.5t-55.5 -146.5t-46.5 -119t-32.5 -79.5q-35 9 -62 26.5t-52 39.5t-49 46t-52 46q51 171 116 346t139 348t154.5 342t161.5 327q20 32 45 32q24 0 44 -30q69 -110 120 -228.5t89.5 -241.5t67 -248.5
t52.5 -249.5q32 97 73.5 198.5t88 203t97.5 199t102 187.5q27 48 61.5 96t78 86.5t97 63t118.5 24.5q4 0 13 -4.5t18 -10.5t17.5 -11t13.5 -5zM976 1592q-33 19 -55.5 34.5t-42 31t-40 33.5t-49.5 42q-21 18 -31.5 39t-10 43t12 42t34.5 37q9 7 25.5 -8t39 -43.5t50 -66
t58.5 -75.5q20 28 41 52t41 47t39 47t35 53q26 -13 46 -28.5t37.5 -32t34.5 -33t37 -31.5q11 -8 10 -23t-8.5 -31.5t-19.5 -31t-24 -21.5q-23 -13 -56.5 -29.5t-69.5 -28.5t-70.5 -17t-58.5 5z" />
    <glyph glyph-name="Ntilde" unicode="&#xd1;" horiz-adv-x="1353" 
d="M1641 1542q-44 -74 -92.5 -167t-98.5 -198t-100 -218t-96.5 -227t-88 -224.5t-74 -210.5t-55 -185.5t-30.5 -149.5q-2 -11 -10.5 -23t-23 -22t-33 -16.5t-40.5 -6.5q-26 0 -55.5 12t-58.5 44q-29 50 -58 135t-56.5 187t-53.5 213.5t-49.5 215t-45.5 190.5t-40 141
q-13 -42 -34 -104t-47.5 -137t-56.5 -157.5t-60.5 -166t-60 -162.5t-55.5 -146.5t-46.5 -119t-32.5 -79.5q-35 9 -62 26.5t-52 39.5t-49 46t-52 46q51 171 116 346t139 348t154.5 342t161.5 327q20 32 45 32q24 0 44 -30q69 -110 120 -228.5t89.5 -241.5t67 -248.5
t52.5 -249.5q32 97 73.5 198.5t88 203t97.5 199t102 187.5q27 48 61.5 96t78 86.5t97 63t118.5 24.5q4 0 13 -4.5t18 -10.5t17.5 -11t13.5 -5zM761 1591q-16 14 -25 28t5 37q20 35 40 69t42.5 64t49.5 53.5t62 36.5q0 -1 2 -1q8 7 23.5 -3.5t36 -32.5t46 -52.5t52.5 -64.5
q31 41 60.5 76.5t53.5 82.5q24 -13 39 -25t28 -24t26 -24.5t31 -27.5q10 -8 8 -22t-9.5 -29.5t-18 -30.5t-18.5 -25q-21 -24 -51.5 -46t-62.5 -36t-61.5 -16.5t-49.5 12.5q-19 12 -31.5 21t-21.5 17.5t-16.5 16t-14.5 16.5q-23 -14 -53.5 -32.5t-62 -32t-61 -17t-48.5 11.5z
" />
    <glyph glyph-name="hyphen" unicode="-" horiz-adv-x="1034" 
d="M858 352q-78 -8 -167 -10.5t-176.5 -1t-168.5 7t-142 15.5l-13 138q85 12 171 15t173 3.5t175.5 3t178.5 14.5z" />
    <glyph glyph-name="endash" unicode="&#x2013;" horiz-adv-x="1214" 
d="M1043 392q-52 -5 -123 -8t-150.5 -4t-162.5 0t-159 4t-139.5 7.5t-104.5 11.5l-13 138q57 8 127.5 11.5t148.5 5t160 2t161.5 1.5t152.5 4.5t133 11.5z" />
    <glyph glyph-name="emdash" unicode="&#x2014;" horiz-adv-x="1283" 
d="M1161 392q-52 -5 -131.5 -8t-172.5 -4t-191 0t-187 4t-161.5 7.5t-113.5 11.5l-13 138q57 8 136.5 11.5t170.5 5t188.5 2t189.5 1.5t174 4.5t142 11.5z" />
    <glyph glyph-name="bullet" unicode="&#x2022;" horiz-adv-x="934" 
d="M263 546q6 49 24 97.5t50.5 87.5t81 63t115.5 24q47 0 89.5 -20t74.5 -53t50.5 -75t18.5 -85q0 -48 -22.5 -96t-60.5 -86.5t-87.5 -62.5t-103.5 -24q-44 0 -87 21.5t-76.5 54.5t-52.5 74t-14 80z" />
    <glyph glyph-name="minus" unicode="&#x2212;" horiz-adv-x="1006" 
d="M857 367q-78 -8 -171.5 -9t-184.5 1t-170 6t-128 7q-27 5 -42 14.5t-21 22t-4.5 27t7.5 28.5q13 33 48 72q72 2 154 3t170 2.5t179.5 4.5t181.5 9z" />
    <glyph glyph-name="plus" unicode="+" horiz-adv-x="1006" 
d="M539 789q13 1 40 -4.5t57.5 -14t58 -17t41.5 -14.5q-14 -61 -26.5 -113.5t-24.5 -100.5q48 2 95.5 4t95.5 6l-19 -148q-49 -5 -103.5 -7t-112.5 -3q-20 -60 -44 -121.5t-56 -133.5l-219 73q1 5 9 25t18.5 47.5t22.5 58t22 56.5q-59 2 -108 5t-83 5l-12 124
q57 2 118.5 2.5t128.5 1.5q19 59 43 123.5t58 145.5z" />
    <glyph glyph-name="undercommaaccent" horiz-adv-x="480" 
d="M289 -221q22 -22 36.5 -58t12.5 -90q0 -4 -0.5 -8t-3.5 -8q-20 -25 -53.5 -59.5t-73.5 -70.5t-81.5 -68.5t-77.5 -51.5l-33 36q8 13 24 32t32 42t28 48.5t12 50.5q0 15 1.5 19.5t1 6t-4 4t-13.5 12.5q-6 6 -6 18.5t2 27t6.5 27.5t7.5 20q14 31 35 56t45 36.5t50.5 7.5
t52.5 -30z" />
    <glyph glyph-name="commaaccent" unicode="&#xf6c3;" horiz-adv-x="480" 
d="M359 1525q22 -21 37 -57t13 -90q0 -10 -5 -16q-20 -25 -53 -59.5t-73 -70.5t-81.5 -68t-77.5 -52l-33 36q8 13 24 32t32 42t28 48.5t12 50.5q0 14 1.5 18.5t1 6.5t-4 4.5t-13.5 12.5q-6 6 -6 18.5t2.5 26.5t6.5 27.5t7 20.5q14 31 35 55.5t45 36t50 7.5t52 -30z" />
    <glyph glyph-name="Lcommaaccent" unicode="&#x13b;" horiz-adv-x="1177" 
d="M266 266q-2 -3 42.5 1.5t118.5 15t170 25t198 31t200.5 34t178.5 33.5q24 5 45 3t37.5 -12t26 -28.5t9.5 -46.5q0 -20 -7.5 -28t-28.5 -14q-80 -23 -166.5 -51.5t-175 -57t-177 -56.5t-171 -50.5t-157.5 -37.5t-137 -18q-5 0 -11 1.5t-19.5 8.5t-36 21.5t-61 41t-94.5 67
t-136 98.5q12 58 40 138.5t66.5 173t83.5 192.5t91 197.5t89 187.5t77 163.5t56 124.5t26 71q10 55 36 77t60 21.5t72 -19t73 -44t63 -52.5t42 -45q-7 -65 -29 -142.5t-54 -161t-71 -170.5t-81 -171.5t-84.5 -163.5t-81 -147t-70.5 -122.5t-52 -88.5zM653 -125
q22 -21 37 -57t13 -90q0 -10 -5 -16q-20 -25 -53 -59.5t-73 -70.5t-81.5 -68t-77.5 -52l-33 36q8 13 24 32t32 42t28 48.5t12 50.5q0 14 1.5 18.5t1 6.5t-4 4.5t-13.5 12.5q-6 6 -6 18.5t2.5 26.5t6.5 27.5t7 20.5q14 31 35 55.5t45 36t50 7.5t52 -30z" />
    <glyph glyph-name="Kcommaaccent" unicode="&#x136;" horiz-adv-x="1542" 
d="M928 971q30 -75 71 -153t91 -154.5t108 -148.5t123.5 -134t137 -112t147.5 -82q24 -10 38 -20t24 -22t17.5 -28.5t16.5 -39.5q-17 -2 -34.5 -3t-34.5 -1q-129 0 -251.5 58t-236 159t-218 237t-197.5 292l-286 -214q-24 -68 -45.5 -144t-42.5 -150t-44.5 -141.5
t-50.5 -118.5t-60.5 -81.5t-75.5 -30.5q-28 0 -64.5 9t-69.5 24.5t-56 37t-23 46.5q0 42 14.5 113t40 162t59.5 198.5t73.5 222.5t81.5 233.5t83.5 231.5t79.5 217.5t70 190.5q27 74 65.5 105t82.5 31q38 0 70 -22t55.5 -50.5t36.5 -56.5t13 -40q0 -25 -10.5 -66.5
t-27.5 -93t-38 -108.5t-42 -112t-39.5 -105t-30.5 -88q36 24 86.5 63.5t110 88t125 102.5t132 107t131 101t122.5 84.5t106.5 58t82.5 21.5q21 0 46.5 -7.5t48 -21.5t38 -33.5t15.5 -42.5q0 -11 -8.5 -23t-22 -24.5t-29 -25t-30.5 -24.5q-146 -117 -290.5 -231t-284.5 -241z
M576 -170q22 -21 37 -57t13 -90q0 -10 -5 -16q-20 -25 -53 -59.5t-73 -70.5t-81.5 -68t-77.5 -52l-33 36q8 13 24 32t32 42t28 48.5t12 50.5q0 14 1.5 18.5t1 6.5t-4 4.5t-13.5 12.5q-6 6 -6 18.5t2.5 26.5t6.5 27.5t7 20.5q14 31 35 55.5t45 36t50 7.5t52 -30z" />
    <glyph glyph-name="Gcommaaccent" unicode="&#x122;" horiz-adv-x="1445" 
d="M567 775q104 32 202 63.5t193.5 56.5t189.5 40.5t191 15.5q40 0 62.5 -9t24.5 -35q2 -21 4 -48t4 -55t3.5 -55t2.5 -49l-101 -13q14 -21 23 -36.5t14.5 -29t7.5 -26.5t2 -29q0 -49 -34.5 -101t-93 -103.5t-135 -101.5t-160.5 -94.5t-170.5 -82t-164 -64.5t-141.5 -42.5
t-103 -15.5q-33 0 -70 19.5t-75.5 50t-76 69t-70.5 76t-60 71t-44 54.5q-26 31 -37 73t-11 93q0 68 13 155.5t40 174t67.5 162t95.5 120.5q58 47 138.5 96.5t175 96t198 87t209 71t208 48t193.5 17.5q24 0 47 -9t45 -30t44 -56t45 -87q-89 -35 -177.5 -62.5t-177 -52.5
t-175 -50.5t-170.5 -57.5t-165 -73t-157 -96q-18 -13 -38.5 -40t-40.5 -63.5t-39 -80t-33.5 -89t-23 -90t-8.5 -83.5q0 -31 16.5 -65t41 -67.5t54.5 -64t58.5 -54t52 -37.5t35.5 -14q23 2 65 15.5t96 34.5t115 48t121.5 57.5t116 62t97.5 62t67.5 57t25.5 47.5q0 12 -3 29.5
t-9 34t-15 28.5t-20 12q-62 0 -109.5 -8.5t-95.5 -22.5t-105 -32t-138 -38q-14 -3 -26 -3q-26 0 -47.5 19t-38 50t-28.5 70t-18 79zM699 -188q22 -21 37 -57t13 -90q0 -10 -5 -16q-20 -25 -53 -59.5t-73 -70.5t-81.5 -68t-77.5 -52l-33 36q8 13 24 32t32 42t28 48.5t12 50.5
q0 14 1.5 18.5t1 6.5t-4 4.5t-13.5 12.5q-6 6 -6 18.5t2.5 26.5t6.5 27.5t7 20.5q14 31 35 55.5t45 36t50 7.5t52 -30z" />
    <glyph glyph-name="Lslash" unicode="&#x141;" horiz-adv-x="1177" 
d="M889 911q-52 -5 -125 -14.5t-155 -20.5t-168 -21.5t-164.5 -18t-144 -9t-106.5 4.5l-13 98q57 8 129.5 18.5t153 21.5t165.5 23t167 23.5t157 21.5l135 18zM266 266q-2 -3 42.5 1.5t118.5 15t170 25t198 31t200.5 34t178.5 33.5q24 5 45 3t37.5 -12t26 -28.5t9.5 -46.5
q0 -20 -7.5 -28t-28.5 -14q-80 -23 -166.5 -51.5t-175 -57t-177 -56.5t-171 -50.5t-157.5 -37.5t-137 -18q-5 0 -11 1.5t-19.5 8.5t-36 21.5t-61 41t-94.5 67t-136 98.5q12 58 40 138.5t66.5 173t83.5 192.5t91 197.5t89 187.5t77 163.5t56 124.5t26 71q10 55 36 77t60 21.5
t72 -19t73 -44t63 -52.5t42 -45q-7 -65 -29 -142.5t-54 -161t-71 -170.5t-81 -171.5t-84.5 -163.5t-81 -147t-70.5 -122.5t-52 -88.5z" />
    <glyph glyph-name="Ncommaaccent" unicode="&#x145;" horiz-adv-x="1353" 
d="M1641 1542q-44 -74 -92.5 -167t-98.5 -198t-100 -218t-96.5 -227t-88 -224.5t-74 -210.5t-55 -185.5t-30.5 -149.5q-2 -11 -10.5 -23t-23 -22t-33 -16.5t-40.5 -6.5q-26 0 -55.5 12t-58.5 44q-29 50 -58 135t-56.5 187t-53.5 213.5t-49.5 215t-45.5 190.5t-40 141
q-13 -42 -34 -104t-47.5 -137t-56.5 -157.5t-60.5 -166t-60 -162.5t-55.5 -146.5t-46.5 -119t-32.5 -79.5q-35 9 -62 26.5t-52 39.5t-49 46t-52 46q51 171 116 346t139 348t154.5 342t161.5 327q20 32 45 32q24 0 44 -30q69 -110 120 -228.5t89.5 -241.5t67 -248.5
t52.5 -249.5q32 97 73.5 198.5t88 203t97.5 199t102 187.5q27 48 61.5 96t78 86.5t97 63t118.5 24.5q4 0 13 -4.5t18 -10.5t17.5 -11t13.5 -5zM493 -139q22 -21 37 -57t13 -90q0 -10 -5 -16q-20 -25 -53 -59.5t-73 -70.5t-81.5 -68t-77.5 -52l-33 36q8 13 24 32t32 42
t28 48.5t12 50.5q0 14 1.5 18.5t1 6.5t-4 4.5t-13.5 12.5q-6 6 -6 18.5t2.5 26.5t6.5 27.5t7 20.5q14 31 35 55.5t45 36t50 7.5t52 -30z" />
    <glyph glyph-name="Ocircumflex" unicode="&#xd4;" horiz-adv-x="1447" 
d="M468 -7q-29 0 -66.5 22t-79.5 59t-86 84t-86 98t-79 100.5t-65 91t-44 71t-16 39.5q0 124 28.5 228t79.5 190.5t121.5 156t153 123t174.5 91.5t187 63t190 36.5t183 11.5q51 0 102.5 -26.5t98 -70t86.5 -99t69.5 -113.5t46.5 -113t17 -98q0 -123 -40.5 -240.5
t-111.5 -222.5t-167.5 -193.5t-209.5 -152.5t-236.5 -100t-249.5 -36zM504 200q85 0 176.5 37.5t179 100.5t166.5 144t138.5 167.5t94.5 172.5t35 158q0 29 -25.5 62.5t-61.5 62t-74 47.5t-62 19q-82 -1 -172 -23.5t-176.5 -65t-165.5 -102t-138.5 -134t-94.5 -162.5
t-35 -186q0 -8 14.5 -33t37 -58.5t49.5 -69.5t51 -66.5t41.5 -50.5t21.5 -20zM867 1621q0 11 10 24q6 8 36.5 32.5t72 55.5t88.5 65t87 62.5t66.5 47t27.5 18.5q22 0 35.5 -31.5t24.5 -75.5t22.5 -91.5t29.5 -80.5q7 -12 13.5 -27.5t6.5 -37.5q0 -16 -9 -26q-34 6 -52.5 17
t-31.5 27t-24.5 35.5t-30.5 41.5q-27 -22 -61.5 -41.5t-72 -34.5t-75 -24t-71.5 -9q-12 0 -27.5 3.5t-30 10t-24.5 16.5t-10 23z" />
    <glyph glyph-name="Odieresis" unicode="&#xd6;" horiz-adv-x="1447" 
d="M468 -7q-29 0 -66.5 22t-79.5 59t-86 84t-86 98t-79 100.5t-65 91t-44 71t-16 39.5q0 124 28.5 228t79.5 190.5t121.5 156t153 123t174.5 91.5t187 63t190 36.5t183 11.5q51 0 102.5 -26.5t98 -70t86.5 -99t69.5 -113.5t46.5 -113t17 -98q0 -123 -40.5 -240.5
t-111.5 -222.5t-167.5 -193.5t-209.5 -152.5t-236.5 -100t-249.5 -36zM504 200q85 0 176.5 37.5t179 100.5t166.5 144t138.5 167.5t94.5 172.5t35 158q0 29 -25.5 62.5t-61.5 62t-74 47.5t-62 19q-82 -1 -172 -23.5t-176.5 -65t-165.5 -102t-138.5 -134t-94.5 -162.5
t-35 -186q0 -8 14.5 -33t37 -58.5t49.5 -69.5t51 -66.5t41.5 -50.5t21.5 -20zM1152 1760q30 2 56 4q22 1 43.5 1t30.5 -5q13 -6 27.5 -26.5t27.5 -46.5t21.5 -55.5t8.5 -53.5q0 -9 -3.5 -19.5t-11.5 -19.5t-20.5 -15t-30.5 -6q-24 0 -51.5 7.5t-52.5 20t-44 28t-25 31.5
q-10 27 -10 55q0 26 9 51t25 49zM1007 1756q13 -6 26.5 -21.5t24.5 -36t18.5 -45t7.5 -48.5q0 -9 -11 -24t-28.5 -28.5t-37.5 -23.5t-38 -10q-24 0 -43.5 8.5t-34.5 22t-26 30t-17 32.5q-10 27 -10 55q0 29 12 54t34 39t53 14.5t70 -18.5z" />
    <glyph glyph-name="Ograve" unicode="&#xd2;" horiz-adv-x="1447" 
d="M468 -7q-29 0 -66.5 22t-79.5 59t-86 84t-86 98t-79 100.5t-65 91t-44 71t-16 39.5q0 124 28.5 228t79.5 190.5t121.5 156t153 123t174.5 91.5t187 63t190 36.5t183 11.5q51 0 102.5 -26.5t98 -70t86.5 -99t69.5 -113.5t46.5 -113t17 -98q0 -123 -40.5 -240.5
t-111.5 -222.5t-167.5 -193.5t-209.5 -152.5t-236.5 -100t-249.5 -36zM504 200q85 0 176.5 37.5t179 100.5t166.5 144t138.5 167.5t94.5 172.5t35 158q0 29 -25.5 62.5t-61.5 62t-74 47.5t-62 19q-82 -1 -172 -23.5t-176.5 -65t-165.5 -102t-138.5 -134t-94.5 -162.5
t-35 -186q0 -8 14.5 -33t37 -58.5t49.5 -69.5t51 -66.5t41.5 -50.5t21.5 -20zM1187 1604q7 -6 17.5 -16.5t17.5 -24t8 -28t-9 -27.5q-80 29 -152 69t-144 79q-26 14 -45.5 41t-27.5 57.5t-3 59.5t29 49q26 21 50 16.5t47.5 -25t47.5 -53.5t50 -69t54 -70.5t60 -57.5z" />
    <glyph glyph-name="Ohungarumlaut" unicode="&#x150;" horiz-adv-x="1447" 
d="M468 -7q-29 0 -66.5 22t-79.5 59t-86 84t-86 98t-79 100.5t-65 91t-44 71t-16 39.5q0 124 28.5 228t79.5 190.5t121.5 156t153 123t174.5 91.5t187 63t190 36.5t183 11.5q51 0 102.5 -26.5t98 -70t86.5 -99t69.5 -113.5t46.5 -113t17 -98q0 -123 -40.5 -240.5
t-111.5 -222.5t-167.5 -193.5t-209.5 -152.5t-236.5 -100t-249.5 -36zM504 200q85 0 176.5 37.5t179 100.5t166.5 144t138.5 167.5t94.5 172.5t35 158q0 29 -25.5 62.5t-61.5 62t-74 47.5t-62 19q-82 -1 -172 -23.5t-176.5 -65t-165.5 -102t-138.5 -134t-94.5 -162.5
t-35 -186q0 -8 14.5 -33t37 -58.5t49.5 -69.5t51 -66.5t41.5 -50.5t21.5 -20zM1222 1601q32 23 58.5 54t49.5 61.5t44 57.5t42 42.5t43 16.5t48 -20q24 -20 29.5 -47t-3 -54.5t-27.5 -52t-45 -38.5q-36 -20 -61 -35t-48.5 -28.5t-50.5 -26.5t-67 -27q-11 13 -17 27.5
t-7.5 28t1.5 24.5t11 17zM957 1601q32 23 58.5 54t49.5 61.5t44 57.5t42 42.5t43 16.5t48 -20q24 -20 29.5 -47t-3 -54.5t-27.5 -52t-45 -38.5q-36 -20 -61 -35t-48.5 -28.5t-50.5 -26.5t-67 -27q-11 13 -17 27.5t-7.5 28t1.5 24.5t11 17z" />
    <glyph glyph-name="Omacron" unicode="&#x14c;" horiz-adv-x="1447" 
d="M468 -7q-29 0 -66.5 22t-79.5 59t-86 84t-86 98t-79 100.5t-65 91t-44 71t-16 39.5q0 124 28.5 228t79.5 190.5t121.5 156t153 123t174.5 91.5t187 63t190 36.5t183 11.5q51 0 102.5 -26.5t98 -70t86.5 -99t69.5 -113.5t46.5 -113t17 -98q0 -123 -40.5 -240.5
t-111.5 -222.5t-167.5 -193.5t-209.5 -152.5t-236.5 -100t-249.5 -36zM504 200q85 0 176.5 37.5t179 100.5t166.5 144t138.5 167.5t94.5 172.5t35 158q0 29 -25.5 62.5t-61.5 62t-74 47.5t-62 19q-82 -1 -172 -23.5t-176.5 -65t-165.5 -102t-138.5 -134t-94.5 -162.5
t-35 -186q0 -8 14.5 -33t37 -58.5t49.5 -69.5t51 -66.5t41.5 -50.5t21.5 -20zM1444 1542q-78 -8 -158 -10.5t-158.5 1t-153.5 14.5t-142 31q-13 21 -27 35.5t-28 37.5q85 12 171 15t173 3.5t175.5 3t178.5 14.5z" />
    <glyph glyph-name="Otilde" unicode="&#xd5;" horiz-adv-x="1447" 
d="M468 -7q-29 0 -66.5 22t-79.5 59t-86 84t-86 98t-79 100.5t-65 91t-44 71t-16 39.5q0 124 28.5 228t79.5 190.5t121.5 156t153 123t174.5 91.5t187 63t190 36.5t183 11.5q51 0 102.5 -26.5t98 -70t86.5 -99t69.5 -113.5t46.5 -113t17 -98q0 -123 -40.5 -240.5
t-111.5 -222.5t-167.5 -193.5t-209.5 -152.5t-236.5 -100t-249.5 -36zM504 200q85 0 176.5 37.5t179 100.5t166.5 144t138.5 167.5t94.5 172.5t35 158q0 29 -25.5 62.5t-61.5 62t-74 47.5t-62 19q-82 -1 -172 -23.5t-176.5 -65t-165.5 -102t-138.5 -134t-94.5 -162.5
t-35 -186q0 -8 14.5 -33t37 -58.5t49.5 -69.5t51 -66.5t41.5 -50.5t21.5 -20zM894 1527q-16 14 -25 28t5 37q20 35 40 69t42.5 64t49.5 53.5t62 36.5q0 -1 2 -1q8 7 23.5 -3.5t36 -32.5t46 -52.5t52.5 -64.5q31 41 60.5 76.5t53.5 82.5q24 -13 39 -25t28 -24t26 -24.5
t31 -27.5q10 -8 8 -22t-9.5 -29.5t-18 -30.5t-18.5 -25q-21 -24 -51.5 -46t-62.5 -36t-61.5 -16.5t-49.5 12.5q-19 12 -31.5 21t-21.5 17.5t-16.5 16t-14.5 16.5q-23 -14 -53.5 -32.5t-62 -32t-61 -17t-48.5 11.5z" />
    <glyph glyph-name="Racute" unicode="&#x154;" horiz-adv-x="1180" 
d="M1132 -235q-108 0 -187 28.5t-136 77t-96 113t-67.5 136t-49.5 146.5t-43 145t-48 130t-63 102q-32 0 -56 -1t-56 -3q-21 -77 -39.5 -157.5t-38.5 -163t-43.5 -166t-54.5 -165.5q-41 0 -83 6.5t-76.5 24t-56.5 47t-22 74.5q0 26 7.5 70.5t20 101.5t30.5 125t38.5 142.5
t43.5 152t46 154.5q82 270 186 588q98 33 195 59q41 11 86 22t89.5 19.5t87 13.5t79.5 5q107 0 190.5 -22.5t140.5 -68.5t86.5 -115.5t29.5 -163.5q0 -96 -32 -171t-83 -133t-115 -99.5t-127.5 -70t-121 -45.5t-95.5 -24q43 -74 86 -168t91 -191t102.5 -188.5t119.5 -160.5
q12 -12 38.5 -31t54.5 -40t49 -41t21 -34q0 -15 -15 -26.5t-36 -19t-42.5 -11t-34.5 -3.5zM516 1252q-13 -49 -33 -111.5t-39.5 -123t-33.5 -111t-14 -75.5q69 -6 145.5 5.5t150 35.5t140.5 58.5t118 73.5t81 80t30 79q0 37 -25 62t-65.5 40.5t-92.5 22.5t-106 7
q-39 0 -77 -3t-71.5 -9t-61.5 -14t-46 -17zM886 1687q-10 6 -18.5 13t-13 14.5t-4 16.5t9.5 20q25 34 50 58.5t48 46.5t45 45.5t43 55.5q30 -13 55 -25t47.5 -24.5t44 -26t44.5 -28.5q12 -8 11.5 -23t-9 -31t-22.5 -30t-28 -21q-27 -14 -69 -30.5t-85.5 -28.5t-84 -14.5
t-64.5 12.5z" />
    <glyph glyph-name="Rcaron" unicode="&#x158;" horiz-adv-x="1180" 
d="M1132 -235q-108 0 -187 28.5t-136 77t-96 113t-67.5 136t-49.5 146.5t-43 145t-48 130t-63 102q-32 0 -56 -1t-56 -3q-21 -77 -39.5 -157.5t-38.5 -163t-43.5 -166t-54.5 -165.5q-41 0 -83 6.5t-76.5 24t-56.5 47t-22 74.5q0 26 7.5 70.5t20 101.5t30.5 125t38.5 142.5
t43.5 152t46 154.5q82 270 186 588q98 33 195 59q41 11 86 22t89.5 19.5t87 13.5t79.5 5q107 0 190.5 -22.5t140.5 -68.5t86.5 -115.5t29.5 -163.5q0 -96 -32 -171t-83 -133t-115 -99.5t-127.5 -70t-121 -45.5t-95.5 -24q43 -74 86 -168t91 -191t102.5 -188.5t119.5 -160.5
q12 -12 38.5 -31t54.5 -40t49 -41t21 -34q0 -15 -15 -26.5t-36 -19t-42.5 -11t-34.5 -3.5zM516 1252q-13 -49 -33 -111.5t-39.5 -123t-33.5 -111t-14 -75.5q69 -6 145.5 5.5t150 35.5t140.5 58.5t118 73.5t81 80t30 79q0 37 -25 62t-65.5 40.5t-92.5 22.5t-106 7
q-39 0 -77 -3t-71.5 -9t-61.5 -14t-46 -17zM936 1655q-33 19 -55.5 34.5t-42 31t-40 33.5t-49.5 42q-21 18 -31.5 39t-10 43t12 42t34.5 37q9 7 25.5 -8t39 -43.5t50 -66t58.5 -75.5q20 28 41 52t41 47t39 47t35 53q26 -13 46 -28.5t37.5 -32t34.5 -33t37 -31.5
q11 -8 10 -23t-8.5 -31.5t-19.5 -31t-24 -21.5q-23 -13 -56.5 -29.5t-69.5 -28.5t-70.5 -17t-58.5 5z" />
    <glyph glyph-name="Rcommaaccent" unicode="&#x156;" horiz-adv-x="1180" 
d="M1132 -235q-108 0 -187 28.5t-136 77t-96 113t-67.5 136t-49.5 146.5t-43 145t-48 130t-63 102q-32 0 -56 -1t-56 -3q-21 -77 -39.5 -157.5t-38.5 -163t-43.5 -166t-54.5 -165.5q-41 0 -83 6.5t-76.5 24t-56.5 47t-22 74.5q0 26 7.5 70.5t20 101.5t30.5 125t38.5 142.5
t43.5 152t46 154.5q82 270 186 588q98 33 195 59q41 11 86 22t89.5 19.5t87 13.5t79.5 5q107 0 190.5 -22.5t140.5 -68.5t86.5 -115.5t29.5 -163.5q0 -96 -32 -171t-83 -133t-115 -99.5t-127.5 -70t-121 -45.5t-95.5 -24q43 -74 86 -168t91 -191t102.5 -188.5t119.5 -160.5
q12 -12 38.5 -31t54.5 -40t49 -41t21 -34q0 -15 -15 -26.5t-36 -19t-42.5 -11t-34.5 -3.5zM516 1252q-13 -49 -33 -111.5t-39.5 -123t-33.5 -111t-14 -75.5q69 -6 145.5 5.5t150 35.5t140.5 58.5t118 73.5t81 80t30 79q0 37 -25 62t-65.5 40.5t-92.5 22.5t-106 7
q-39 0 -77 -3t-71.5 -9t-61.5 -14t-46 -17zM426 -157q22 -21 37 -57t13 -90q0 -10 -5 -16q-20 -25 -53 -59.5t-73 -70.5t-81.5 -68t-77.5 -52l-33 36q8 13 24 32t32 42t28 48.5t12 50.5q0 14 1.5 18.5t1 6.5t-4 4.5t-13.5 12.5q-6 6 -6 18.5t2.5 26.5t6.5 27.5t7 20.5
q14 31 35 55.5t45 36t50 7.5t52 -30z" />
    <glyph glyph-name="OE" unicode="&#x152;" horiz-adv-x="2092" 
d="M1035 145v2q-125 -81 -268.5 -117.5t-298.5 -36.5q-58 0 -118 30t-117.5 80t-108 116t-88.5 138t-60 145t-22 138q0 131 49.5 242.5t133.5 202t195 160.5t234.5 117t251.5 71.5t245 24.5q62 0 121.5 -29.5t110.5 -76.5q6 18 12 34t11 30q7 18 42 35t88.5 32.5t121 29
t140 24.5t144.5 20t135 15t111.5 9.5t73.5 3.5q59 0 96.5 -25.5t39.5 -86.5q-173 -48 -342.5 -86.5t-343.5 -80.5q-46 -11 -75.5 -25.5t-48.5 -36t-30 -52.5t-19 -76q16 -54 16 -102l-3 -49q51 8 107.5 16.5t107.5 16t91.5 12t60.5 4.5q44 0 73 -12.5t46.5 -33.5t25 -49
t9.5 -59q-62 -20 -106.5 -34t-85 -24t-85 -17.5t-106.5 -14.5q-57 -7 -99 -12.5t-72 -11.5q-22 -94 -54 -174t-74 -149q11 -29 27.5 -67t37.5 -92q104 11 209.5 37t212 53t213.5 48t212 21q40 0 54 -19.5t14 -47.5q0 -14 -2 -27t-5 -27q-80 -27 -162.5 -60.5t-168 -69
t-174.5 -70t-180 -64.5q-27 -9 -72.5 -21t-102.5 -24t-121 -22.5t-127 -16.5zM504 200q109 0 206.5 26.5t180 91t148.5 171.5t111 268q19 92 30 143t15.5 76t5.5 30.5t1 7.5q0 28 -12 56t-31 50.5t-42.5 36.5t-45.5 14q-82 -1 -172 -23.5t-176.5 -65t-165.5 -102
t-138.5 -134t-94.5 -162.5t-35 -186q0 -24 14.5 -55t37 -64t49.5 -65t51 -57.5t41.5 -41t21.5 -15.5z" />
    <glyph glyph-name="Sacute" unicode="&#x15a;" horiz-adv-x="1304" 
d="M394 167q41 0 94.5 11t109.5 32t110.5 52t99.5 71t75.5 89t38.5 106v8q0 29 -26.5 58.5t-69.5 60.5t-98 63t-113 66.5t-113 72t-98 78t-69.5 84.5t-26.5 93q0 57 32.5 106t85.5 90t119 72t133.5 53t129 33t105.5 11q55 0 101 -11t79 -35t51.5 -61.5t18.5 -90.5v-19.5
t-2 -20.5q-77 -8 -159 -9.5t-156 -7.5t-133.5 -21.5t-90.5 -52.5q64 -36 136.5 -73.5t143 -77.5t135 -84t113.5 -93t78 -104t29 -117v-19.5t-2 -19.5q-13 -102 -52 -186.5t-97 -151.5t-131.5 -116.5t-154.5 -82.5t-166.5 -49t-168.5 -16q-128 0 -232 26.5t-178 64t-114 79
t-40 71.5q0 12 4.5 26.5t17.5 27t37 21t62 8.5q36 0 70 -18t74 -39.5t90 -39.5t118 -18zM752 1552q-10 6 -18.5 13t-13 14.5t-4 16.5t9.5 20q25 34 50 58.5t48 46.5t45 45.5t43 55.5q30 -13 55 -25t47.5 -24.5t44 -26t44.5 -28.5q12 -8 11.5 -23t-9 -31t-22.5 -30t-28 -21
q-27 -14 -69 -30.5t-85.5 -28.5t-84 -14.5t-64.5 12.5z" />
    <glyph glyph-name="Scaron" unicode="&#x160;" horiz-adv-x="1304" 
d="M394 167q41 0 94.5 11t109.5 32t110.5 52t99.5 71t75.5 89t38.5 106v8q0 29 -26.5 58.5t-69.5 60.5t-98 63t-113 66.5t-113 72t-98 78t-69.5 84.5t-26.5 93q0 57 32.5 106t85.5 90t119 72t133.5 53t129 33t105.5 11q55 0 101 -11t79 -35t51.5 -61.5t18.5 -90.5v-19.5
t-2 -20.5q-77 -8 -159 -9.5t-156 -7.5t-133.5 -21.5t-90.5 -52.5q64 -36 136.5 -73.5t143 -77.5t135 -84t113.5 -93t78 -104t29 -117v-19.5t-2 -19.5q-13 -102 -52 -186.5t-97 -151.5t-131.5 -116.5t-154.5 -82.5t-166.5 -49t-168.5 -16q-128 0 -232 26.5t-178 64t-114 79
t-40 71.5q0 12 4.5 26.5t17.5 27t37 21t62 8.5q36 0 70 -18t74 -39.5t90 -39.5t118 -18zM840 1528q-33 19 -55.5 34.5t-42 31t-40 33.5t-49.5 42q-21 18 -31.5 39t-10 43t12 42t34.5 37q9 7 25.5 -8t39 -43.5t50 -66t58.5 -75.5q20 28 41 52t41 47t39 47t35 53
q26 -13 46 -28.5t37.5 -32t34.5 -33t37 -31.5q11 -8 10 -23t-8.5 -31.5t-19.5 -31t-24 -21.5q-23 -13 -56.5 -29.5t-69.5 -28.5t-70.5 -17t-58.5 5z" />
    <glyph glyph-name="Scedilla" unicode="&#x15e;" horiz-adv-x="1304" 
d="M394 167q41 0 94.5 11t109.5 32t110.5 52t99.5 71t75.5 89t38.5 106v8q0 29 -26.5 58.5t-69.5 60.5t-98 63t-113 66.5t-113 72t-98 78t-69.5 84.5t-26.5 93q0 57 32.5 106t85.5 90t119 72t133.5 53t129 33t105.5 11q55 0 101 -11t79 -35t51.5 -61.5t18.5 -90.5v-19.5
t-2 -20.5q-77 -8 -159 -9.5t-156 -7.5t-133.5 -21.5t-90.5 -52.5q64 -36 136.5 -73.5t143 -77.5t135 -84t113.5 -93t78 -104t29 -117v-19.5t-2 -19.5q-13 -102 -52 -186.5t-97 -151.5t-131.5 -116.5t-154.5 -82.5t-166.5 -49t-168.5 -16q-128 0 -232 26.5t-178 64t-114 79
t-40 71.5q0 12 4.5 26.5t17.5 27t37 21t62 8.5q36 0 70 -18t74 -39.5t90 -39.5t118 -18zM241 -189q18 28 43 34t52.5 3t55.5 -10t53.5 -5.5t45.5 17t31 57.5q12 46 27.5 85t25.5 74q2 7 10 10t18.5 3.5t23.5 0t25 -0.5q2 1 8 -3q11 -7 12 -39.5t-3 -77t-11 -95t-12 -93.5
q-2 -18 -22 -36.5t-45.5 -33.5t-51.5 -25.5t-39 -13.5q-48 -11 -100.5 2.5t-96.5 42.5q-11 7 -23.5 19.5t-21.5 27t-11.5 29.5t6.5 28z" />
    <glyph glyph-name="Scircumflex" unicode="&#x15c;" horiz-adv-x="1304" 
d="M394 167q41 0 94.5 11t109.5 32t110.5 52t99.5 71t75.5 89t38.5 106v8q0 29 -26.5 58.5t-69.5 60.5t-98 63t-113 66.5t-113 72t-98 78t-69.5 84.5t-26.5 93q0 57 32.5 106t85.5 90t119 72t133.5 53t129 33t105.5 11q55 0 101 -11t79 -35t51.5 -61.5t18.5 -90.5v-19.5
t-2 -20.5q-77 -8 -159 -9.5t-156 -7.5t-133.5 -21.5t-90.5 -52.5q64 -36 136.5 -73.5t143 -77.5t135 -84t113.5 -93t78 -104t29 -117v-19.5t-2 -19.5q-13 -102 -52 -186.5t-97 -151.5t-131.5 -116.5t-154.5 -82.5t-166.5 -49t-168.5 -16q-128 0 -232 26.5t-178 64t-114 79
t-40 71.5q0 12 4.5 26.5t17.5 27t37 21t62 8.5q36 0 70 -18t74 -39.5t90 -39.5t118 -18zM511 1586q0 11 10 24q6 8 36.5 32.5t72 55.5t88.5 65t87 62.5t66.5 47t27.5 18.5q22 0 35.5 -31.5t24.5 -75.5t22.5 -91.5t29.5 -80.5q7 -12 13.5 -27.5t6.5 -37.5q0 -16 -9 -26
q-34 6 -52.5 17t-31.5 27t-24.5 35.5t-30.5 41.5q-27 -22 -61.5 -41.5t-72 -34.5t-75 -24t-71.5 -9q-12 0 -27.5 3.5t-30 10t-24.5 16.5t-10 23z" />
    <glyph glyph-name="Scommaaccent" unicode="&#x218;" horiz-adv-x="1304" 
d="M394 167q41 0 94.5 11t109.5 32t110.5 52t99.5 71t75.5 89t38.5 106v8q0 29 -26.5 58.5t-69.5 60.5t-98 63t-113 66.5t-113 72t-98 78t-69.5 84.5t-26.5 93q0 57 32.5 106t85.5 90t119 72t133.5 53t129 33t105.5 11q55 0 101 -11t79 -35t51.5 -61.5t18.5 -90.5v-19.5
t-2 -20.5q-77 -8 -159 -9.5t-156 -7.5t-133.5 -21.5t-90.5 -52.5q64 -36 136.5 -73.5t143 -77.5t135 -84t113.5 -93t78 -104t29 -117v-19.5t-2 -19.5q-13 -102 -52 -186.5t-97 -151.5t-131.5 -116.5t-154.5 -82.5t-166.5 -49t-168.5 -16q-128 0 -232 26.5t-178 64t-114 79
t-40 71.5q0 12 4.5 26.5t17.5 27t37 21t62 8.5q36 0 70 -18t74 -39.5t90 -39.5t118 -18zM426 -195q22 -21 37 -57t13 -90q0 -10 -5 -16q-20 -25 -53 -59.5t-73 -70.5t-81.5 -68t-77.5 -52l-33 36q8 13 24 32t32 42t28 48.5t12 50.5q0 14 1.5 18.5t1 6.5t-4 4.5t-13.5 12.5
q-6 6 -6 18.5t2.5 26.5t6.5 27.5t7 20.5q14 31 35 55.5t45 36t50 7.5t52 -30z" />
    <glyph glyph-name="Tbar" unicode="&#x166;" horiz-adv-x="671" 
d="M756 875q-84 -8 -174 -19t-178.5 -17.5t-172.5 -3.5t-157 24q-14 21 -29 36t-30 38q184 24 381.5 44.5t392.5 43.5zM278 44q-17 -57 -48.5 -82.5t-66.5 -25.5q-26 0 -52 12.5t-46 34.5t-32.5 52.5t-12.5 66.5v7q3 82 23.5 181t51.5 206t68 219t73 220.5t67 209.5t50 187
q-60 -8 -120 -15q-51 -6 -109 -11.5t-105 -7.5q-55 0 -93 8t-61 22t-33.5 32t-10.5 39q0 18 15 30.5t48 15.5q165 16 329 33t328 31.5t328.5 24t330.5 11.5l26 -130l-518 -59q-47 -159 -103.5 -326t-114.5 -334t-113.5 -331.5t-98.5 -320.5z" />
    <glyph glyph-name="Tcaron" unicode="&#x164;" horiz-adv-x="671" 
d="M278 44q-17 -57 -48.5 -82.5t-66.5 -25.5q-26 0 -52 12.5t-46 34.5t-32.5 52.5t-12.5 66.5v7q3 82 23.5 181t51.5 206t68 219t73 220.5t67 209.5t50 187q-60 -8 -120 -15q-51 -6 -109 -11.5t-105 -7.5q-55 0 -93 8t-61 22t-33.5 32t-10.5 39q0 18 15 30.5t48 15.5
q165 16 329 33t328 31.5t328.5 24t330.5 11.5l26 -130l-518 -59q-47 -159 -103.5 -326t-114.5 -334t-113.5 -331.5t-98.5 -320.5zM608 1615q-33 19 -55.5 34.5t-42 31t-40 33.5t-49.5 42q-21 18 -31.5 39t-10 43t12 42t34.5 37q9 7 25.5 -8t39 -43.5t50 -66t58.5 -75.5
q20 28 41 52t41 47t39 47t35 53q26 -13 46 -28.5t37.5 -32t34.5 -33t37 -31.5q11 -8 10 -23t-8.5 -31.5t-19.5 -31t-24 -21.5q-23 -13 -56.5 -29.5t-69.5 -28.5t-70.5 -17t-58.5 5z" />
    <glyph glyph-name="Tcommaaccent" unicode="&#x162;" horiz-adv-x="671" 
d="M369 44q-17 -57 -48.5 -82.5t-66.5 -25.5q-26 0 -52 12.5t-46 34.5t-32.5 52.5t-12.5 66.5v7q3 82 23.5 181t51.5 206t68 219t73 220.5t67 209.5t50 187q-60 -8 -120 -15q-51 -6 -109 -11.5t-105 -7.5q-55 0 -93 8t-61 22t-33.5 32t-10.5 39q0 18 15 30.5t48 15.5
q165 16 329 33t328 31.5t328.5 24t330.5 11.5l26 -130l-518 -59q-47 -159 -103.5 -326t-114.5 -334t-113.5 -331.5t-98.5 -320.5zM-172 -247q18 28 43 34t52.5 3t55.5 -10t53.5 -5.5t45.5 17t31 57.5q12 46 27.5 85t25.5 74q2 7 10 10t18.5 3.5t23.5 0t25 -0.5q2 1 8 -3
q11 -7 12 -39.5t-3 -77t-11 -95t-12 -93.5q-2 -18 -22 -36.5t-45.5 -33.5t-51.5 -25.5t-39 -13.5q-48 -11 -100.5 2.5t-96.5 42.5q-11 7 -23.5 19.5t-21.5 27t-11.5 29.5t6.5 28z" />
    <glyph glyph-name="Ubreve" unicode="&#x16c;" 
d="M573 245q80 17 151 75.5t134 143t117.5 187t102 207t87.5 203t73 175t60.5 123.5t48.5 48q11 1 26.5 -5t27.5 -16q-20 -137 -55 -280.5t-87 -283.5t-122 -270.5t-160 -241.5t-200.5 -197t-244.5 -136q-128 60 -222 130.5t-156.5 148.5t-93 162.5t-30.5 171.5
q0 80 17 161.5t46.5 162.5t68 160t81 154t86.5 145t84 132q36 57 66.5 84t64.5 27q16 0 41.5 -10.5t53.5 -26t54 -34.5t43 -36q-12 -50 -42 -116.5t-68.5 -144t-80.5 -163t-77 -173.5t-57.5 -175.5t-22.5 -169.5q0 -41 12.5 -87.5t36.5 -91t58.5 -82t77.5 -61.5zM1100 1516
q-35 1 -62.5 12.5t-50.5 30.5t-43.5 43t-40.5 50q-17 22 -27 44t-10.5 42.5t9.5 39t33 35.5q-1 -1 3.5 -14.5t14 -32.5t24.5 -39.5t34.5 -35t43.5 -19t52 7.5t60 45t67 94q26 -13 46 -28.5t37.5 -32t34.5 -33t37 -31.5q11 -8 10 -21.5t-9 -29t-20 -30.5t-23 -26
q-38 -36 -97.5 -54.5t-122.5 -16.5z" />
    <glyph glyph-name="Uacute" unicode="&#xda;" 
d="M573 245q80 17 151 75.5t134 143t117.5 187t102 207t87.5 203t73 175t60.5 123.5t48.5 48q11 1 26.5 -5t27.5 -16q-20 -137 -55 -280.5t-87 -283.5t-122 -270.5t-160 -241.5t-200.5 -197t-244.5 -136q-128 60 -222 130.5t-156.5 148.5t-93 162.5t-30.5 171.5
q0 80 17 161.5t46.5 162.5t68 160t81 154t86.5 145t84 132q36 57 66.5 84t64.5 27q16 0 41.5 -10.5t53.5 -26t54 -34.5t43 -36q-12 -50 -42 -116.5t-68.5 -144t-80.5 -163t-77 -173.5t-57.5 -175.5t-22.5 -169.5q0 -41 12.5 -87.5t36.5 -91t58.5 -82t77.5 -61.5zM1003 1507
q-10 6 -18.5 13t-13 14.5t-4 16.5t9.5 20q25 34 50 58.5t48 46.5t45 45.5t43 55.5q30 -13 55 -25t47.5 -24.5t44 -26t44.5 -28.5q12 -8 11.5 -23t-9 -31t-22.5 -30t-28 -21q-27 -14 -69 -30.5t-85.5 -28.5t-84 -14.5t-64.5 12.5z" />
    <glyph glyph-name="Ucircumflex" unicode="&#xdb;" 
d="M573 245q80 17 151 75.5t134 143t117.5 187t102 207t87.5 203t73 175t60.5 123.5t48.5 48q11 1 26.5 -5t27.5 -16q-20 -137 -55 -280.5t-87 -283.5t-122 -270.5t-160 -241.5t-200.5 -197t-244.5 -136q-128 60 -222 130.5t-156.5 148.5t-93 162.5t-30.5 171.5
q0 80 17 161.5t46.5 162.5t68 160t81 154t86.5 145t84 132q36 57 66.5 84t64.5 27q16 0 41.5 -10.5t53.5 -26t54 -34.5t43 -36q-12 -50 -42 -116.5t-68.5 -144t-80.5 -163t-77 -173.5t-57.5 -175.5t-22.5 -169.5q0 -41 12.5 -87.5t36.5 -91t58.5 -82t77.5 -61.5zM847 1653
q0 11 10 24q6 8 36.5 32.5t72 55.5t88.5 65t87 62.5t66.5 47t27.5 18.5q22 0 35.5 -31.5t24.5 -75.5t22.5 -91.5t29.5 -80.5q7 -12 13.5 -27.5t6.5 -37.5q0 -16 -9 -26q-34 6 -52.5 17t-31.5 27t-24.5 35.5t-30.5 41.5q-27 -22 -61.5 -41.5t-72 -34.5t-75 -24t-71.5 -9
q-12 0 -27.5 3.5t-30 10t-24.5 16.5t-10 23z" />
    <glyph glyph-name="Udieresis" unicode="&#xdc;" 
d="M573 245q80 17 151 75.5t134 143t117.5 187t102 207t87.5 203t73 175t60.5 123.5t48.5 48q11 1 26.5 -5t27.5 -16q-20 -137 -55 -280.5t-87 -283.5t-122 -270.5t-160 -241.5t-200.5 -197t-244.5 -136q-128 60 -222 130.5t-156.5 148.5t-93 162.5t-30.5 171.5
q0 80 17 161.5t46.5 162.5t68 160t81 154t86.5 145t84 132q36 57 66.5 84t64.5 27q16 0 41.5 -10.5t53.5 -26t54 -34.5t43 -36q-12 -50 -42 -116.5t-68.5 -144t-80.5 -163t-77 -173.5t-57.5 -175.5t-22.5 -169.5q0 -41 12.5 -87.5t36.5 -91t58.5 -82t77.5 -61.5zM1146 1795
q30 2 56 4q22 1 43.5 1t30.5 -5q13 -6 27.5 -26.5t27.5 -46.5t21.5 -55.5t8.5 -53.5q0 -9 -3.5 -19.5t-11.5 -19.5t-20.5 -15t-30.5 -6q-24 0 -51.5 7.5t-52.5 20t-44 28t-25 31.5q-10 27 -10 55q0 26 9 51t25 49zM1001 1791q13 -6 26.5 -21.5t24.5 -36t18.5 -45t7.5 -48.5
q0 -9 -11 -24t-28.5 -28.5t-37.5 -23.5t-38 -10q-24 0 -43.5 8.5t-34.5 22t-26 30t-17 32.5q-10 27 -10 55q0 29 12 54t34 39t53 14.5t70 -18.5z" />
    <glyph glyph-name="Ugrave" unicode="&#xd9;" 
d="M573 245q80 17 151 75.5t134 143t117.5 187t102 207t87.5 203t73 175t60.5 123.5t48.5 48q11 1 26.5 -5t27.5 -16q-20 -137 -55 -280.5t-87 -283.5t-122 -270.5t-160 -241.5t-200.5 -197t-244.5 -136q-128 60 -222 130.5t-156.5 148.5t-93 162.5t-30.5 171.5
q0 80 17 161.5t46.5 162.5t68 160t81 154t86.5 145t84 132q36 57 66.5 84t64.5 27q16 0 41.5 -10.5t53.5 -26t54 -34.5t43 -36q-12 -50 -42 -116.5t-68.5 -144t-80.5 -163t-77 -173.5t-57.5 -175.5t-22.5 -169.5q0 -41 12.5 -87.5t36.5 -91t58.5 -82t77.5 -61.5zM1136 1650
q7 -6 17.5 -16.5t17.5 -24t8 -28t-9 -27.5q-80 29 -152 69t-144 79q-26 14 -45.5 41t-27.5 57.5t-3 59.5t29 49q26 21 50 16.5t47.5 -25t47.5 -53.5t50 -69t54 -70.5t60 -57.5z" />
    <glyph glyph-name="Uhungarumlaut" unicode="&#x170;" 
d="M573 245q80 17 151 75.5t134 143t117.5 187t102 207t87.5 203t73 175t60.5 123.5t48.5 48q11 1 26.5 -5t27.5 -16q-20 -137 -55 -280.5t-87 -283.5t-122 -270.5t-160 -241.5t-200.5 -197t-244.5 -136q-128 60 -222 130.5t-156.5 148.5t-93 162.5t-30.5 171.5
q0 80 17 161.5t46.5 162.5t68 160t81 154t86.5 145t84 132q36 57 66.5 84t64.5 27q16 0 41.5 -10.5t53.5 -26t54 -34.5t43 -36q-12 -50 -42 -116.5t-68.5 -144t-80.5 -163t-77 -173.5t-57.5 -175.5t-22.5 -169.5q0 -41 12.5 -87.5t36.5 -91t58.5 -82t77.5 -61.5zM1185 1635
q32 23 58.5 54t49.5 61.5t44 57.5t42 42.5t43 16.5t48 -20q24 -20 29.5 -47t-3 -54.5t-27.5 -52t-45 -38.5q-36 -20 -61 -35t-48.5 -28.5t-50.5 -26.5t-67 -27q-11 13 -17 27.5t-7.5 28t1.5 24.5t11 17zM920 1635q32 23 58.5 54t49.5 61.5t44 57.5t42 42.5t43 16.5t48 -20
q24 -20 29.5 -47t-3 -54.5t-27.5 -52t-45 -38.5q-36 -20 -61 -35t-48.5 -28.5t-50.5 -26.5t-67 -27q-11 13 -17 27.5t-7.5 28t1.5 24.5t11 17z" />
    <glyph glyph-name="Umacron" unicode="&#x16a;" 
d="M573 245q80 17 151 75.5t134 143t117.5 187t102 207t87.5 203t73 175t60.5 123.5t48.5 48q11 1 26.5 -5t27.5 -16q-20 -137 -55 -280.5t-87 -283.5t-122 -270.5t-160 -241.5t-200.5 -197t-244.5 -136q-128 60 -222 130.5t-156.5 148.5t-93 162.5t-30.5 171.5
q0 80 17 161.5t46.5 162.5t68 160t81 154t86.5 145t84 132q36 57 66.5 84t64.5 27q16 0 41.5 -10.5t53.5 -26t54 -34.5t43 -36q-12 -50 -42 -116.5t-68.5 -144t-80.5 -163t-77 -173.5t-57.5 -175.5t-22.5 -169.5q0 -41 12.5 -87.5t36.5 -91t58.5 -82t77.5 -61.5zM1353 1576
q-78 -8 -158 -10.5t-158.5 1t-153.5 14.5t-142 31q-13 21 -27 35.5t-28 37.5q85 12 171 15t173 3.5t175.5 3t178.5 14.5z" />
    <glyph glyph-name="Uogonek" unicode="&#x172;" 
d="M573 245q80 17 151 75.5t134 143t117.5 187t102 207t87.5 203t73 175t60.5 123.5t48.5 48q11 1 26.5 -5t27.5 -16q-20 -137 -55 -280.5t-87 -283.5t-122 -270.5t-160 -241.5t-200.5 -197t-244.5 -136q-128 60 -222 130.5t-156.5 148.5t-93 162.5t-30.5 171.5
q0 80 17 161.5t46.5 162.5t68 160t81 154t86.5 145t84 132q36 57 66.5 84t64.5 27q16 0 41.5 -10.5t53.5 -26t54 -34.5t43 -36q-12 -50 -42 -116.5t-68.5 -144t-80.5 -163t-77 -173.5t-57.5 -175.5t-22.5 -169.5q0 -41 12.5 -87.5t36.5 -91t58.5 -82t77.5 -61.5zM425 1
q0 24 5.5 41t16 28.5t25.5 18.5t35 13q1 0 2 0.5t2 0.5q9 0 9.5 -15.5t-5 -41.5t-15 -60.5t-20.5 -72.5t-21.5 -76.5t-18.5 -73.5q19 -5 46.5 5t53.5 30.5t46 48.5t25 60q20 -2 41.5 -1.5t39 -3.5t29 -15t11.5 -34q0 -51 -24 -97t-64 -80t-92.5 -53.5t-108.5 -18.5
q-73 1 -102.5 23.5t-31.5 58t15.5 79.5t40 88t41.5 83t19 65z" />
    <glyph glyph-name="Uring" unicode="&#x16e;" 
d="M573 245q80 17 151 75.5t134 143t117.5 187t102 207t87.5 203t73 175t60.5 123.5t48.5 48q11 1 26.5 -5t27.5 -16q-20 -137 -55 -280.5t-87 -283.5t-122 -270.5t-160 -241.5t-200.5 -197t-244.5 -136q-128 60 -222 130.5t-156.5 148.5t-93 162.5t-30.5 171.5
q0 80 17 161.5t46.5 162.5t68 160t81 154t86.5 145t84 132q36 57 66.5 84t64.5 27q16 0 41.5 -10.5t53.5 -26t54 -34.5t43 -36q-12 -50 -42 -116.5t-68.5 -144t-80.5 -163t-77 -173.5t-57.5 -175.5t-22.5 -169.5q0 -41 12.5 -87.5t36.5 -91t58.5 -82t77.5 -61.5zM1231 1938
q39 1 67.5 -20t46.5 -49.5t25 -57.5t2 -44q-20 -56 -47 -101.5t-64.5 -78.5t-87.5 -52t-116 -22q-6 0 -19.5 10t-30.5 26t-35.5 35.5t-32.5 39t-22 36.5t-5 28q22 72 59 119.5t80.5 76.5t90 41t89.5 13zM1203 1814q-24 4 -46.5 -17.5t-36.5 -51.5q-6 -12 -13 -24.5t-10 -23
t0 -20t17 -15.5q10 -4 24 4.5t28 22t25.5 28t14.5 22.5q3 4 5 13.5t2.5 20.5t-2 22t-8.5 19z" />
    <glyph glyph-name="Utilde" unicode="&#x168;" 
d="M573 245q80 17 151 75.5t134 143t117.5 187t102 207t87.5 203t73 175t60.5 123.5t48.5 48q11 1 26.5 -5t27.5 -16q-20 -137 -55 -280.5t-87 -283.5t-122 -270.5t-160 -241.5t-200.5 -197t-244.5 -136q-128 60 -222 130.5t-156.5 148.5t-93 162.5t-30.5 171.5
q0 80 17 161.5t46.5 162.5t68 160t81 154t86.5 145t84 132q36 57 66.5 84t64.5 27q16 0 41.5 -10.5t53.5 -26t54 -34.5t43 -36q-12 -50 -42 -116.5t-68.5 -144t-80.5 -163t-77 -173.5t-57.5 -175.5t-22.5 -169.5q0 -41 12.5 -87.5t36.5 -91t58.5 -82t77.5 -61.5zM834 1556
q-16 14 -25 28t5 37q20 35 40 69t42.5 64t49.5 53.5t62 36.5q0 -1 2 -1q8 7 23.5 -3.5t36 -32.5t46 -52.5t52.5 -64.5q31 41 60.5 76.5t53.5 82.5q24 -13 39 -25t28 -24t26 -24.5t31 -27.5q10 -8 8 -22t-9.5 -29.5t-18 -30.5t-18.5 -25q-21 -24 -51.5 -46t-62.5 -36
t-61.5 -16.5t-49.5 12.5q-19 12 -31.5 21t-21.5 17.5t-16.5 16t-14.5 16.5q-23 -14 -53.5 -32.5t-62 -32t-61 -17t-48.5 11.5z" />
    <glyph glyph-name="Wacute" unicode="&#x1e82;" horiz-adv-x="1415" 
d="M1969 1369q-47 -41 -93 -81t-95 -85t-101.5 -97.5t-113.5 -117.5t-131.5 -146t-154.5 -183q-23 -28 -60.5 -78.5t-81 -113t-88 -129.5t-80 -128.5t-58.5 -110t-23 -73.5q0 -17 -6.5 -26t-16.5 -14t-21.5 -6t-21.5 -1q-24 0 -47 1.5t-42 3t-30.5 3.5l-11.5 2l-122 104
q-18 49 -36.5 114.5t-35 133t-30 130t-19.5 105.5q-17 -31 -38 -75.5t-42.5 -95.5t-42 -105t-36.5 -103t-25.5 -88.5t-9.5 -62.5q0 -27 -6 -43t-16.5 -24.5t-25.5 -11t-32 -2.5q-11 0 -20.5 2t-14.5 7l-136 131q-7 120 -9 242.5t-2 246.5q0 138 1.5 271.5t1.5 258.5
q0 15 2 30.5t8 28t17 20.5t29 8q30 0 59.5 -26t56 -61t47.5 -71t34 -56q10 -17 10 -34v-280.5t-3 -224.5q26 57 54.5 120.5t60 124.5t66 115t72.5 93l118 -83q10 -32 22 -76.5t26.5 -91.5t31 -92.5t35.5 -79.5q86 147 208 282t265 252.5t299 216t311 172.5q13 0 36.5 -6
t46.5 -13.5t41 -14t20 -8.5zM564 1117q-10 6 -18.5 13t-13 14.5t-4 16.5t9.5 20q25 34 50 58.5t48 46.5t45 45.5t43 55.5q30 -13 55 -25t47.5 -24.5t44 -26t44.5 -28.5q12 -8 11.5 -23t-9 -31t-22.5 -30t-28 -21q-27 -14 -69 -30.5t-85.5 -28.5t-84 -14.5t-64.5 12.5z" />
    <glyph glyph-name="Wcircumflex" unicode="&#x174;" horiz-adv-x="1415" 
d="M1969 1369q-47 -41 -93 -81t-95 -85t-101.5 -97.5t-113.5 -117.5t-131.5 -146t-154.5 -183q-23 -28 -60.5 -78.5t-81 -113t-88 -129.5t-80 -128.5t-58.5 -110t-23 -73.5q0 -17 -6.5 -26t-16.5 -14t-21.5 -6t-21.5 -1q-24 0 -47 1.5t-42 3t-30.5 3.5l-11.5 2l-122 104
q-18 49 -36.5 114.5t-35 133t-30 130t-19.5 105.5q-17 -31 -38 -75.5t-42.5 -95.5t-42 -105t-36.5 -103t-25.5 -88.5t-9.5 -62.5q0 -27 -6 -43t-16.5 -24.5t-25.5 -11t-32 -2.5q-11 0 -20.5 2t-14.5 7l-136 131q-7 120 -9 242.5t-2 246.5q0 138 1.5 271.5t1.5 258.5
q0 15 2 30.5t8 28t17 20.5t29 8q30 0 59.5 -26t56 -61t47.5 -71t34 -56q10 -17 10 -34v-280.5t-3 -224.5q26 57 54.5 120.5t60 124.5t66 115t72.5 93l118 -83q10 -32 22 -76.5t26.5 -91.5t31 -92.5t35.5 -79.5q86 147 208 282t265 252.5t299 216t311 172.5q13 0 36.5 -6
t46.5 -13.5t41 -14t20 -8.5zM415 1175q0 11 10 24q6 8 36.5 32.5t72 55.5t88.5 65t87 62.5t66.5 47t27.5 18.5q22 0 35.5 -31.5t24.5 -75.5t22.5 -91.5t29.5 -80.5q7 -12 13.5 -27.5t6.5 -37.5q0 -16 -9 -26q-34 6 -52.5 17t-31.5 27t-24.5 35.5t-30.5 41.5
q-27 -22 -61.5 -41.5t-72 -34.5t-75 -24t-71.5 -9q-12 0 -27.5 3.5t-30 10t-24.5 16.5t-10 23z" />
    <glyph glyph-name="Wdieresis" unicode="&#x1e84;" horiz-adv-x="1415" 
d="M1969 1369q-47 -41 -93 -81t-95 -85t-101.5 -97.5t-113.5 -117.5t-131.5 -146t-154.5 -183q-23 -28 -60.5 -78.5t-81 -113t-88 -129.5t-80 -128.5t-58.5 -110t-23 -73.5q0 -17 -6.5 -26t-16.5 -14t-21.5 -6t-21.5 -1q-24 0 -47 1.5t-42 3t-30.5 3.5l-11.5 2l-122 104
q-18 49 -36.5 114.5t-35 133t-30 130t-19.5 105.5q-17 -31 -38 -75.5t-42.5 -95.5t-42 -105t-36.5 -103t-25.5 -88.5t-9.5 -62.5q0 -27 -6 -43t-16.5 -24.5t-25.5 -11t-32 -2.5q-11 0 -20.5 2t-14.5 7l-136 131q-7 120 -9 242.5t-2 246.5q0 138 1.5 271.5t1.5 258.5
q0 15 2 30.5t8 28t17 20.5t29 8q30 0 59.5 -26t56 -61t47.5 -71t34 -56q10 -17 10 -34v-280.5t-3 -224.5q26 57 54.5 120.5t60 124.5t66 115t72.5 93l118 -83q10 -32 22 -76.5t26.5 -91.5t31 -92.5t35.5 -79.5q86 147 208 282t265 252.5t299 216t311 172.5q13 0 36.5 -6
t46.5 -13.5t41 -14t20 -8.5zM750 1380q30 2 56 4q22 1 43.5 1t30.5 -5q13 -6 27.5 -26.5t27.5 -46.5t21.5 -55.5t8.5 -53.5q0 -9 -3.5 -19.5t-11.5 -19.5t-20.5 -15t-30.5 -6q-24 0 -51.5 7.5t-52.5 20t-44 28t-25 31.5q-10 27 -10 55q0 26 9 51t25 49zM605 1376
q13 -6 26.5 -21.5t24.5 -36t18.5 -45t7.5 -48.5q0 -9 -11 -24t-28.5 -28.5t-37.5 -23.5t-38 -10q-24 0 -43.5 8.5t-34.5 22t-26 30t-17 32.5q-10 27 -10 55q0 29 12 54t34 39t53 14.5t70 -18.5z" />
    <glyph glyph-name="Wgrave" unicode="&#x1e80;" horiz-adv-x="1415" 
d="M1969 1369q-47 -41 -93 -81t-95 -85t-101.5 -97.5t-113.5 -117.5t-131.5 -146t-154.5 -183q-23 -28 -60.5 -78.5t-81 -113t-88 -129.5t-80 -128.5t-58.5 -110t-23 -73.5q0 -17 -6.5 -26t-16.5 -14t-21.5 -6t-21.5 -1q-24 0 -47 1.5t-42 3t-30.5 3.5l-11.5 2l-122 104
q-18 49 -36.5 114.5t-35 133t-30 130t-19.5 105.5q-17 -31 -38 -75.5t-42.5 -95.5t-42 -105t-36.5 -103t-25.5 -88.5t-9.5 -62.5q0 -27 -6 -43t-16.5 -24.5t-25.5 -11t-32 -2.5q-11 0 -20.5 2t-14.5 7l-136 131q-7 120 -9 242.5t-2 246.5q0 138 1.5 271.5t1.5 258.5
q0 15 2 30.5t8 28t17 20.5t29 8q30 0 59.5 -26t56 -61t47.5 -71t34 -56q10 -17 10 -34v-280.5t-3 -224.5q26 57 54.5 120.5t60 124.5t66 115t72.5 93l118 -83q10 -32 22 -76.5t26.5 -91.5t31 -92.5t35.5 -79.5q86 147 208 282t265 252.5t299 216t311 172.5q13 0 36.5 -6
t46.5 -13.5t41 -14t20 -8.5zM809 1263q7 -6 17.5 -16.5t17.5 -24t8 -28t-9 -27.5q-80 29 -152 69t-144 79q-26 14 -45.5 41t-27.5 57.5t-3 59.5t29 49q26 21 50 16.5t47.5 -25t47.5 -53.5t50 -69t54 -70.5t60 -57.5z" />
    <glyph glyph-name="Yacute" unicode="&#xdd;" horiz-adv-x="891" 
d="M-318 -556q69 116 147 259t158 298t159 314.5t152 308.5q-13 -1 -25 -1.5t-24 -0.5q-76 0 -127 20t-81.5 55t-43.5 82.5t-13 102.5q0 64 14 134t34.5 137.5t43 128t39.5 105.5q10 28 18.5 50t18 37t21 22.5t29.5 7.5q22 0 63 -15q70 -27 113 -75.5t43 -121.5
q0 -32 -9 -68t-29 -77q-7 -15 -24 -50.5t-35 -80t-31.5 -91t-13.5 -83.5q0 -34 14.5 -55t49.5 -21q1 0 6.5 -0.5t11.5 -1.5t11 -1.5t7 -0.5q81 112 148 225t133 225.5t135.5 224t154.5 221.5q39 -30 65.5 -53t44.5 -47t28.5 -54t16.5 -73q6 -29 -9.5 -83.5t-44.5 -123.5
t-67.5 -147t-78 -154t-76.5 -145.5t-64 -120.5q-75 -144 -153 -291.5t-160.5 -284.5t-170.5 -256t-183.5 -205.5t-199 -134t-216.5 -41.5zM574 1616q-10 6 -18.5 13t-13 14.5t-4 16.5t9.5 20q25 34 50 58.5t48 46.5t45 45.5t43 55.5q30 -13 55 -25t47.5 -24.5t44 -26
t44.5 -28.5q12 -8 11.5 -23t-9 -31t-22.5 -30t-28 -21q-27 -14 -69 -30.5t-85.5 -28.5t-84 -14.5t-64.5 12.5z" />
    <glyph glyph-name="Ycircumflex" unicode="&#x176;" horiz-adv-x="891" 
d="M-318 -556q69 116 147 259t158 298t159 314.5t152 308.5q-13 -1 -25 -1.5t-24 -0.5q-76 0 -127 20t-81.5 55t-43.5 82.5t-13 102.5q0 64 14 134t34.5 137.5t43 128t39.5 105.5q10 28 18.5 50t18 37t21 22.5t29.5 7.5q22 0 63 -15q70 -27 113 -75.5t43 -121.5
q0 -32 -9 -68t-29 -77q-7 -15 -24 -50.5t-35 -80t-31.5 -91t-13.5 -83.5q0 -34 14.5 -55t49.5 -21q1 0 6.5 -0.5t11.5 -1.5t11 -1.5t7 -0.5q81 112 148 225t133 225.5t135.5 224t154.5 221.5q39 -30 65.5 -53t44.5 -47t28.5 -54t16.5 -73q6 -29 -9.5 -83.5t-44.5 -123.5
t-67.5 -147t-78 -154t-76.5 -145.5t-64 -120.5q-75 -144 -153 -291.5t-160.5 -284.5t-170.5 -256t-183.5 -205.5t-199 -134t-216.5 -41.5zM571 1727q0 11 10 24q6 8 36.5 32.5t72 55.5t88.5 65t87 62.5t66.5 47t27.5 18.5q22 0 35.5 -31.5t24.5 -75.5t22.5 -91.5t29.5 -80.5
q7 -12 13.5 -27.5t6.5 -37.5q0 -16 -9 -26q-34 6 -52.5 17t-31.5 27t-24.5 35.5t-30.5 41.5q-27 -22 -61.5 -41.5t-72 -34.5t-75 -24t-71.5 -9q-12 0 -27.5 3.5t-30 10t-24.5 16.5t-10 23z" />
    <glyph glyph-name="Ydieresis" unicode="&#x178;" horiz-adv-x="891" 
d="M-318 -556q69 116 147 259t158 298t159 314.5t152 308.5q-13 -1 -25 -1.5t-24 -0.5q-76 0 -127 20t-81.5 55t-43.5 82.5t-13 102.5q0 64 14 134t34.5 137.5t43 128t39.5 105.5q10 28 18.5 50t18 37t21 22.5t29.5 7.5q22 0 63 -15q70 -27 113 -75.5t43 -121.5
q0 -32 -9 -68t-29 -77q-7 -15 -24 -50.5t-35 -80t-31.5 -91t-13.5 -83.5q0 -34 14.5 -55t49.5 -21q1 0 6.5 -0.5t11.5 -1.5t11 -1.5t7 -0.5q81 112 148 225t133 225.5t135.5 224t154.5 221.5q39 -30 65.5 -53t44.5 -47t28.5 -54t16.5 -73q6 -29 -9.5 -83.5t-44.5 -123.5
t-67.5 -147t-78 -154t-76.5 -145.5t-64 -120.5q-75 -144 -153 -291.5t-160.5 -284.5t-170.5 -256t-183.5 -205.5t-199 -134t-216.5 -41.5zM649 1887q30 2 56 4q22 1 43.5 1t30.5 -5q13 -6 27.5 -26.5t27.5 -46.5t21.5 -55.5t8.5 -53.5q0 -9 -3.5 -19.5t-11.5 -19.5
t-20.5 -15t-30.5 -6q-24 0 -51.5 7.5t-52.5 20t-44 28t-25 31.5q-10 27 -10 55q0 26 9 51t25 49zM504 1883q13 -6 26.5 -21.5t24.5 -36t18.5 -45t7.5 -48.5q0 -9 -11 -24t-28.5 -28.5t-37.5 -23.5t-38 -10q-24 0 -43.5 8.5t-34.5 22t-26 30t-17 32.5q-10 27 -10 55
q0 29 12 54t34 39t53 14.5t70 -18.5z" />
    <glyph glyph-name="Ygrave" unicode="&#x1ef2;" horiz-adv-x="891" 
d="M-318 -556q69 116 147 259t158 298t159 314.5t152 308.5q-13 -1 -25 -1.5t-24 -0.5q-76 0 -127 20t-81.5 55t-43.5 82.5t-13 102.5q0 64 14 134t34.5 137.5t43 128t39.5 105.5q10 28 18.5 50t18 37t21 22.5t29.5 7.5q22 0 63 -15q70 -27 113 -75.5t43 -121.5
q0 -32 -9 -68t-29 -77q-7 -15 -24 -50.5t-35 -80t-31.5 -91t-13.5 -83.5q0 -34 14.5 -55t49.5 -21q1 0 6.5 -0.5t11.5 -1.5t11 -1.5t7 -0.5q81 112 148 225t133 225.5t135.5 224t154.5 221.5q39 -30 65.5 -53t44.5 -47t28.5 -54t16.5 -73q6 -29 -9.5 -83.5t-44.5 -123.5
t-67.5 -147t-78 -154t-76.5 -145.5t-64 -120.5q-75 -144 -153 -291.5t-160.5 -284.5t-170.5 -256t-183.5 -205.5t-199 -134t-216.5 -41.5zM768 1717q7 -6 17.5 -16.5t17.5 -24t8 -28t-9 -27.5q-80 29 -152 69t-144 79q-26 14 -45.5 41t-27.5 57.5t-3 59.5t29 49
q26 21 50 16.5t47.5 -25t47.5 -53.5t50 -69t54 -70.5t60 -57.5z" />
    <glyph glyph-name="Zacute" unicode="&#x179;" horiz-adv-x="1605" 
d="M1737 -74q-6 -24 -18 -43t-39 -19q-13 0 -26 4q-68 20 -142.5 50t-153 62.5t-159 64.5t-159 57.5t-154.5 41.5t-145 16q-62 0 -131 -12.5t-141 -34t-144.5 -50.5t-140 -63t-128.5 -71t-110 -74q-17 -13 -29.5 -18.5t-24.5 -5.5q-6 0 -30 12t-50 32.5t-47 46.5t-21 54
q0 14 6 29t20 29q150 150 313.5 286t331.5 267.5t337 261.5t329 267q-82 -9 -158 -30.5t-148.5 -42.5t-142 -36.5t-138.5 -13.5q-30 1 -68 31t-74.5 73.5t-67 92t-43.5 86.5q124 8 242 17q50 4 104 8t106 8.5t100.5 8.5t87.5 9q29 3 74 10t99 15t113.5 18t116.5 19
q135 22 287 48q3 -22 8 -50t8.5 -58.5t5 -62t-3 -60t-16 -52t-32.5 -38.5q-74 -51 -146.5 -100.5t-150.5 -90.5q-85 -47 -181 -111.5t-188.5 -132.5t-173 -134t-135.5 -116q95 5 174 11.5t155 6.5q72 0 150 -25.5t156.5 -67.5t155.5 -96.5t146.5 -112.5t129 -115.5
t104.5 -105.5zM902 1472q-10 6 -18.5 13t-13 14.5t-4 16.5t9.5 20q25 34 50 58.5t48 46.5t45 45.5t43 55.5q30 -13 55 -25t47.5 -24.5t44 -26t44.5 -28.5q12 -8 11.5 -23t-9 -31t-22.5 -30t-28 -21q-27 -14 -69 -30.5t-85.5 -28.5t-84 -14.5t-64.5 12.5z" />
    <glyph glyph-name="Zcaron" unicode="&#x17d;" horiz-adv-x="1605" 
d="M1737 -74q-6 -24 -18 -43t-39 -19q-13 0 -26 4q-68 20 -142.5 50t-153 62.5t-159 64.5t-159 57.5t-154.5 41.5t-145 16q-62 0 -131 -12.5t-141 -34t-144.5 -50.5t-140 -63t-128.5 -71t-110 -74q-17 -13 -29.5 -18.5t-24.5 -5.5q-6 0 -30 12t-50 32.5t-47 46.5t-21 54
q0 14 6 29t20 29q150 150 313.5 286t331.5 267.5t337 261.5t329 267q-82 -9 -158 -30.5t-148.5 -42.5t-142 -36.5t-138.5 -13.5q-30 1 -68 31t-74.5 73.5t-67 92t-43.5 86.5q124 8 242 17q50 4 104 8t106 8.5t100.5 8.5t87.5 9q29 3 74 10t99 15t113.5 18t116.5 19
q135 22 287 48q3 -22 8 -50t8.5 -58.5t5 -62t-3 -60t-16 -52t-32.5 -38.5q-74 -51 -146.5 -100.5t-150.5 -90.5q-85 -47 -181 -111.5t-188.5 -132.5t-173 -134t-135.5 -116q95 5 174 11.5t155 6.5q72 0 150 -25.5t156.5 -67.5t155.5 -96.5t146.5 -112.5t129 -115.5
t104.5 -105.5zM900 1443q-33 19 -55.5 34.5t-42 31t-40 33.5t-49.5 42q-21 18 -31.5 39t-10 43t12 42t34.5 37q9 7 25.5 -8t39 -43.5t50 -66t58.5 -75.5q20 28 41 52t41 47t39 47t35 53q26 -13 46 -28.5t37.5 -32t34.5 -33t37 -31.5q11 -8 10 -23t-8.5 -31.5t-19.5 -31
t-24 -21.5q-23 -13 -56.5 -29.5t-69.5 -28.5t-70.5 -17t-58.5 5z" />
    <glyph glyph-name="Zdotaccent" unicode="&#x17b;" horiz-adv-x="1605" 
d="M1737 -74q-6 -24 -18 -43t-39 -19q-13 0 -26 4q-68 20 -142.5 50t-153 62.5t-159 64.5t-159 57.5t-154.5 41.5t-145 16q-62 0 -131 -12.5t-141 -34t-144.5 -50.5t-140 -63t-128.5 -71t-110 -74q-17 -13 -29.5 -18.5t-24.5 -5.5q-6 0 -30 12t-50 32.5t-47 46.5t-21 54
q0 14 6 29t20 29q150 150 313.5 286t331.5 267.5t337 261.5t329 267q-82 -9 -158 -30.5t-148.5 -42.5t-142 -36.5t-138.5 -13.5q-30 1 -68 31t-74.5 73.5t-67 92t-43.5 86.5q124 8 242 17q50 4 104 8t106 8.5t100.5 8.5t87.5 9q29 3 74 10t99 15t113.5 18t116.5 19
q135 22 287 48q3 -22 8 -50t8.5 -58.5t5 -62t-3 -60t-16 -52t-32.5 -38.5q-74 -51 -146.5 -100.5t-150.5 -90.5q-85 -47 -181 -111.5t-188.5 -132.5t-173 -134t-135.5 -116q95 5 174 11.5t155 6.5q72 0 150 -25.5t156.5 -67.5t155.5 -96.5t146.5 -112.5t129 -115.5
t104.5 -105.5zM841 1753q35 3 66 5q26 2 51.5 1t36.5 -6q15 -8 32 -25t31 -40.5t23.5 -51.5t9.5 -57q0 -11 -9 -29t-24 -35t-35 -29.5t-41 -12.5q-28 0 -55 8t-50 21.5t-40 31t-24 36.5q-12 33 -12 65q0 31 10.5 60t29.5 58z" />
    <glyph glyph-name="iacute" unicode="&#xed;" horiz-adv-x="646" 
d="M694 593q14 -20 29 -36t27 -27t19.5 -18t7.5 -9q-15 -33 -47.5 -84t-75 -109t-91 -116.5t-95.5 -106t-89.5 -77t-72.5 -29.5q-19 0 -48.5 8.5t-63.5 22t-68.5 30t-64 33t-51 31.5t-27.5 24q-18 26 -26 60t-8 74q0 52 15 121.5t40.5 142.5t58.5 144t68 127t70 90.5
t64 34.5q16 0 34 -12q27 -20 46.5 -42.5t33.5 -47.5t24 -53t19 -59q-17 -19 -36.5 -50.5t-39.5 -70.5t-38.5 -82.5t-33 -87t-23 -85t-8.5 -74.5q0 -27 6 -46q50 25 110 71.5t120 100.5t116 109.5t99 97.5zM327 1021q-10 6 -18.5 13t-13 14.5t-4 16.5t9.5 20q25 34 50 58.5
t48 46.5t45 45.5t43 55.5q30 -13 55 -25t47.5 -24.5t44 -26t44.5 -28.5q12 -8 11.5 -23t-9 -31t-22.5 -30t-28 -21q-27 -14 -69 -30.5t-85.5 -28.5t-84 -14.5t-64.5 12.5z" />
    <glyph glyph-name="eacute" unicode="&#xe9;" horiz-adv-x="849" 
d="M359 644q31 3 60 20t54.5 42t46 55t34.5 58q-5 2 -9 5t-8 3q-33 -4 -62 -24t-52 -47t-39.5 -57t-24.5 -55zM963 411q-22 -31 -61 -74t-88.5 -90t-105.5 -93t-111.5 -82.5t-106.5 -59t-90 -22.5q-9 0 -28.5 6t-45 15.5t-54 21.5t-55.5 24t-49 22.5t-35 18.5q-38 22 -70 50
t-54.5 62.5t-35 75.5t-12.5 91q0 64 21.5 133.5t58.5 137t88 128t110 107t123.5 73.5t129.5 27q103 0 156.5 -48t53.5 -142q0 -56 -19.5 -102t-52.5 -84.5t-76.5 -69t-91 -56t-96.5 -46t-92 -38.5q-16 -27 -24 -49t-8 -59q0 -39 18 -61.5t75 -22.5t120 30.5t123.5 75.5
t115.5 95.5t96 91.5q11 11 29.5 31t41.5 39.5t49 34t52 14.5q9 0 19.5 1t19.5 -2t14.5 -11.5t5.5 -27.5q0 -48 -16.5 -89.5t-41.5 -76.5zM581 1090q-10 6 -18.5 13t-13 14.5t-4 16.5t9.5 20q25 34 50 58.5t48 46.5t45 45.5t43 55.5q30 -13 55 -25t47.5 -24.5t44 -26
t44.5 -28.5q12 -8 11.5 -23t-9 -31t-22.5 -30t-28 -21q-27 -14 -69 -30.5t-85.5 -28.5t-84 -14.5t-64.5 12.5z" />
    <glyph glyph-name="ebreve" unicode="&#x115;" horiz-adv-x="849" 
d="M359 644q31 3 60 20t54.5 42t46 55t34.5 58q-5 2 -9 5t-8 3q-33 -4 -62 -24t-52 -47t-39.5 -57t-24.5 -55zM963 411q-22 -31 -61 -74t-88.5 -90t-105.5 -93t-111.5 -82.5t-106.5 -59t-90 -22.5q-9 0 -28.5 6t-45 15.5t-54 21.5t-55.5 24t-49 22.5t-35 18.5q-38 22 -70 50
t-54.5 62.5t-35 75.5t-12.5 91q0 64 21.5 133.5t58.5 137t88 128t110 107t123.5 73.5t129.5 27q103 0 156.5 -48t53.5 -142q0 -56 -19.5 -102t-52.5 -84.5t-76.5 -69t-91 -56t-96.5 -46t-92 -38.5q-16 -27 -24 -49t-8 -59q0 -39 18 -61.5t75 -22.5t120 30.5t123.5 75.5
t115.5 95.5t96 91.5q11 11 29.5 31t41.5 39.5t49 34t52 14.5q9 0 19.5 1t19.5 -2t14.5 -11.5t5.5 -27.5q0 -48 -16.5 -89.5t-41.5 -76.5zM645 1054q-35 1 -62.5 12.5t-50.5 30.5t-43.5 43t-40.5 50q-17 22 -27 44t-10.5 42.5t9.5 39t33 35.5q-1 -1 3.5 -14.5t14 -32.5
t24.5 -39.5t34.5 -35t43.5 -19t52 7.5t60 45t67 94q26 -13 46 -28.5t37.5 -32t34.5 -33t37 -31.5q11 -8 10 -21.5t-9 -29t-20 -30.5t-23 -26q-38 -36 -97.5 -54.5t-122.5 -16.5z" />
    <glyph glyph-name="ecaron" unicode="&#x11b;" horiz-adv-x="849" 
d="M359 644q31 3 60 20t54.5 42t46 55t34.5 58q-5 2 -9 5t-8 3q-33 -4 -62 -24t-52 -47t-39.5 -57t-24.5 -55zM963 411q-22 -31 -61 -74t-88.5 -90t-105.5 -93t-111.5 -82.5t-106.5 -59t-90 -22.5q-9 0 -28.5 6t-45 15.5t-54 21.5t-55.5 24t-49 22.5t-35 18.5q-38 22 -70 50
t-54.5 62.5t-35 75.5t-12.5 91q0 64 21.5 133.5t58.5 137t88 128t110 107t123.5 73.5t129.5 27q103 0 156.5 -48t53.5 -142q0 -56 -19.5 -102t-52.5 -84.5t-76.5 -69t-91 -56t-96.5 -46t-92 -38.5q-16 -27 -24 -49t-8 -59q0 -39 18 -61.5t75 -22.5t120 30.5t123.5 75.5
t115.5 95.5t96 91.5q11 11 29.5 31t41.5 39.5t49 34t52 14.5q9 0 19.5 1t19.5 -2t14.5 -11.5t5.5 -27.5q0 -48 -16.5 -89.5t-41.5 -76.5zM575 1038q-33 19 -55.5 34.5t-42 31t-40 33.5t-49.5 42q-21 18 -31.5 39t-10 43t12 42t34.5 37q9 7 25.5 -8t39 -43.5t50 -66
t58.5 -75.5q20 28 41 52t41 47t39 47t35 53q26 -13 46 -28.5t37.5 -32t34.5 -33t37 -31.5q11 -8 10 -23t-8.5 -31.5t-19.5 -31t-24 -21.5q-23 -13 -56.5 -29.5t-69.5 -28.5t-70.5 -17t-58.5 5z" />
    <glyph glyph-name="ecircumflex" unicode="&#xea;" horiz-adv-x="849" 
d="M359 644q31 3 60 20t54.5 42t46 55t34.5 58q-5 2 -9 5t-8 3q-33 -4 -62 -24t-52 -47t-39.5 -57t-24.5 -55zM963 411q-22 -31 -61 -74t-88.5 -90t-105.5 -93t-111.5 -82.5t-106.5 -59t-90 -22.5q-9 0 -28.5 6t-45 15.5t-54 21.5t-55.5 24t-49 22.5t-35 18.5q-38 22 -70 50
t-54.5 62.5t-35 75.5t-12.5 91q0 64 21.5 133.5t58.5 137t88 128t110 107t123.5 73.5t129.5 27q103 0 156.5 -48t53.5 -142q0 -56 -19.5 -102t-52.5 -84.5t-76.5 -69t-91 -56t-96.5 -46t-92 -38.5q-16 -27 -24 -49t-8 -59q0 -39 18 -61.5t75 -22.5t120 30.5t123.5 75.5
t115.5 95.5t96 91.5q11 11 29.5 31t41.5 39.5t49 34t52 14.5q9 0 19.5 1t19.5 -2t14.5 -11.5t5.5 -27.5q0 -48 -16.5 -89.5t-41.5 -76.5zM336 1097q0 11 10 24q6 8 36.5 32.5t72 55.5t88.5 65t87 62.5t66.5 47t27.5 18.5q22 0 35.5 -31.5t24.5 -75.5t22.5 -91.5t29.5 -80.5
q7 -12 13.5 -27.5t6.5 -37.5q0 -16 -9 -26q-34 6 -52.5 17t-31.5 27t-24.5 35.5t-30.5 41.5q-27 -22 -61.5 -41.5t-72 -34.5t-75 -24t-71.5 -9q-12 0 -27.5 3.5t-30 10t-24.5 16.5t-10 23z" />
    </font>
</defs>
</svg>
